<svg xmlns="http://www.w3.org/2000/svg" width="14.528" height="15.043" viewBox="0 0 14.528 15.043">
  <g transform="translate(-8.499 -7.634)">
    <g transform="translate(8.499 7.634)">
      <path d="M7.264,8.282a1.014,1.014,0,0,1-.719-.3L.3,1.737A1.017,1.017,0,0,1,1.737.3L7.264,5.825,12.791.3A1.017,1.017,0,1,1,14.23,1.737L7.983,7.984A1.014,1.014,0,0,1,7.264,8.282Z" transform="translate(14.528 8.282) rotate(-180)"/>
      <path d="M7.264,8.282a1.014,1.014,0,0,1-.719-.3L.3,1.737A1.017,1.017,0,0,1,1.737.3L7.264,5.825,12.791.3A1.017,1.017,0,1,1,14.23,1.737L7.983,7.984A1.014,1.014,0,0,1,7.264,8.282Z" transform="translate(14.528 15.043) rotate(-180)"/>
    </g>
  </g>
</svg>
