<svg xmlns="http://www.w3.org/2000/svg" width="24.655" height="20.499" viewBox="0 0 24.655 20.499">
  <g id="Icon_feather-camera" data-name="Icon feather-camera" transform="translate(0.9 0.9)">
    <path id="Path_12512" data-name="Path 12512" d="M24.355,21.122A2.078,2.078,0,0,1,22.277,23.2H3.578A2.078,2.078,0,0,1,1.5,21.122V9.694A2.078,2.078,0,0,1,3.578,7.617H7.733L9.811,4.5h6.233l2.078,3.117h4.155a2.078,2.078,0,0,1,2.078,2.078Z" transform="translate(-1.5 -4.5)" fill="none" stroke="#fe9d2a" stroke-linecap="round" stroke-linejoin="round" stroke-width="1.8"/>
    <path id="Path_12513" data-name="Path 12513" d="M20.311,17.655A4.155,4.155,0,1,1,16.155,13.5a4.155,4.155,0,0,1,4.155,4.155Z" transform="translate(-4.728 -7.267)" fill="none" stroke="#fe9d2a" stroke-linecap="round" stroke-linejoin="round" stroke-width="1.8"/>
  </g>
</svg>
