<svg xmlns="http://www.w3.org/2000/svg" width="27" height="27" viewBox="0 0 27 27">
  <g id="close" transform="translate(-1437 -326)">
    <rect id="Rectangle_2200" data-name="Rectangle 2200" width="27" height="27" rx="2" transform="translate(1437 326)" fill="#324458"/>
    <g id="next_3_" data-name="next (3)" transform="translate(1458.61 331.106) rotate(90)">
      <g id="Group_66" data-name="Group 66" transform="translate(0 0)">
        <path id="Path_267" data-name="Path 267" d="M.159,7.478,6.664.171A.5.5,0,0,1,7.43.186a.664.664,0,0,1,0,.846L1.308,7.908,7.43,14.785a.663.663,0,0,1,0,.861.5.5,0,0,1-.767,0L.159,8.339A.663.663,0,0,1,.159,7.478Z" transform="translate(0 0)" fill="#fff" stroke="#fff" stroke-width="0.5"/>
      </g>
    </g>
    <g id="next_3_2" data-name="next (3)" transform="translate(1458.61 339.807) rotate(90)">
      <g id="Group_66-2" data-name="Group 66" transform="translate(0 0)">
        <path id="Path_267-2" data-name="Path 267" d="M.159,7.478,6.664.171A.5.5,0,0,1,7.43.186a.664.664,0,0,1,0,.846L1.308,7.908,7.43,14.785a.663.663,0,0,1,0,.861.5.5,0,0,1-.767,0L.159,8.339A.663.663,0,0,1,.159,7.478Z" transform="translate(0 0)" fill="#fff" stroke="#fff" stroke-width="0.5"/>
      </g>
    </g>
  </g>
</svg>
