<svg xmlns="http://www.w3.org/2000/svg" width="16.833" height="16.83" viewBox="0 0 16.833 16.83">
    <g id="prefix__edit" transform="translate(.151 .15)">
        <path id="prefix__Path_11616" fill="#fe9d2a" stroke="#fe9d2a" stroke-width="0.3px" d="M15.462 1.1a3.646 3.646 0 0 0-5.16 0L.84 10.556a.473.473 0 0 0-.134.271L0 16.019a.472.472 0 0 0 .134.4.481.481 0 0 0 .335.141.383.383 0 0 0 .063 0l3.128-.423a.476.476 0 1 0-.127-.944l-2.508.338.49-3.621 3.811 3.811a.481.481 0 0 0 .335.141.466.466 0 0 0 .339-.146l9.461-9.458a3.644 3.644 0 0 0 0-5.16zm-4.978 1.16l1.589 1.589-8.634 8.634-1.588-1.589zM5.669 14.709l-1.553-1.553 8.634-8.634 1.55 1.553zm9.3-9.314l-3.8-3.8a2.7 2.7 0 0 1 3.8 3.8z" data-name="Path 11616" transform="translate(0 -.028)"/>
    </g>
</svg>
