<svg xmlns="http://www.w3.org/2000/svg" width="70.293" height="95.854" viewBox="0 0 70.293 95.854">
  <g id="files_2_" data-name="files (2)" transform="translate(-64)">
    <g id="Group_13292" data-name="Group 13292" transform="translate(64)">
      <g id="Group_13291" data-name="Group 13291">
        <path id="Path_19488" data-name="Path 19488" d="M134.279,17.573a1.6,1.6,0,0,0-.454-1.129L117.849.468A1.577,1.577,0,0,0,116.72.014V0H68.793A4.793,4.793,0,0,0,64,4.793V91.061a4.793,4.793,0,0,0,4.793,4.793H129.5a4.793,4.793,0,0,0,4.793-4.793V17.573ZM118.317,5.454l10.522,10.522h-8.924a1.6,1.6,0,0,1-1.6-1.6ZM131.1,91.061a1.6,1.6,0,0,1-1.6,1.6H68.793a1.6,1.6,0,0,1-1.6-1.6V4.793a1.6,1.6,0,0,1,1.6-1.6h46.329V14.378a4.793,4.793,0,0,0,4.793,4.793H131.1Z" transform="translate(-64)" />
      </g>
    </g>
    <g id="Group_13294" data-name="Group 13294" transform="translate(75.183 43.134)">
      <g id="Group_13293" data-name="Group 13293" transform="translate(0)">
        <path id="Path_19489" data-name="Path 19489" d="M124.793,216a4.793,4.793,0,1,0,4.793,4.793A4.793,4.793,0,0,0,124.793,216Zm0,6.39a1.6,1.6,0,1,1,1.6-1.6A1.6,1.6,0,0,1,124.793,222.39Z" transform="translate(-120 -216)" />
      </g>
    </g>
    <g id="Group_13296" data-name="Group 13296" transform="translate(91.159 46.329)">
      <g id="Group_13295" data-name="Group 13295">
        <rect id="Rectangle_11435" data-name="Rectangle 11435" width="32" height="4" transform="translate(-0.158 -0.33)" />
      </g>
    </g>
    <g id="Group_13298" data-name="Group 13298" transform="translate(75.183 27.159)">
      <g id="Group_13297" data-name="Group 13297" transform="translate(0)">
        <path id="Path_19490" data-name="Path 19490" d="M124.793,136a4.793,4.793,0,1,0,4.793,4.793A4.793,4.793,0,0,0,124.793,136Zm0,6.39a1.6,1.6,0,1,1,1.6-1.6A1.6,1.6,0,0,1,124.793,142.39Z" transform="translate(-120 -136)" />
      </g>
    </g>
    <g id="Group_13300" data-name="Group 13300" transform="translate(91.159 30.354)">
      <g id="Group_13299" data-name="Group 13299">
        <rect id="Rectangle_11436" data-name="Rectangle 11436" width="32" height="4" transform="translate(-0.158 -0.354)" />
      </g>
    </g>
    <g id="Group_13302" data-name="Group 13302" transform="translate(75.183 59.11)">
      <g id="Group_13301" data-name="Group 13301" transform="translate(0)">
        <path id="Path_19491" data-name="Path 19491" d="M124.793,296a4.793,4.793,0,1,0,4.793,4.793A4.793,4.793,0,0,0,124.793,296Zm0,6.39a1.6,1.6,0,1,1,1.6-1.6A1.6,1.6,0,0,1,124.793,302.39Z" transform="translate(-120 -296)" />
      </g>
    </g>
    <g id="Group_13304" data-name="Group 13304" transform="translate(91.159 62.305)">
      <g id="Group_13303" data-name="Group 13303">
        <rect id="Rectangle_11437" data-name="Rectangle 11437" width="32" height="4" transform="translate(-0.158 -0.305)" />
      </g>
    </g>
    <g id="Group_13306" data-name="Group 13306" transform="translate(75.183 75.086)">
      <g id="Group_13305" data-name="Group 13305" transform="translate(0)">
        <path id="Path_19492" data-name="Path 19492" d="M124.793,376a4.793,4.793,0,1,0,4.793,4.793A4.793,4.793,0,0,0,124.793,376Zm0,6.39a1.6,1.6,0,1,1,1.6-1.6A1.6,1.6,0,0,1,124.793,382.39Z" transform="translate(-120 -376)" />
      </g>
    </g>
    <g id="Group_13308" data-name="Group 13308" transform="translate(91.159 78.281)">
      <g id="Group_13307" data-name="Group 13307">
        <rect id="Rectangle_11438" data-name="Rectangle 11438" width="32" height="3" transform="translate(-0.158 -0.281)" />
      </g>
    </g>
  </g>
</svg>
