<svg xmlns="http://www.w3.org/2000/svg" width="18.128" height="18.128" viewBox="0 0 18.128 18.128">
    <path id="prefix__filter" fill="#c2c2c2" d="M7.364 18.128a.567.567 0 0 1-.566-.566V10.3a.945.945 0 0 0-.306-.7L.428 4.045A1.327 1.327 0 0 1 0 3.07V1.322A1.323 1.323 0 0 1 1.322 0h15.484a1.323 1.323 0 0 1 1.322 1.322V3.07a1.329 1.329 0 0 1-.428.974L11.637 9.6a.938.938 0 0 0-.307.7v4.6a1.319 1.319 0 0 1-.588 1.1l-3.063 2.032a.557.557 0 0 1-.315.096zM1.322 1.133a.189.189 0 0 0-.189.189V3.07a.191.191 0 0 0 .062.14l6.061 5.553a2.084 2.084 0 0 1 .675 1.537v6.2l2.182-1.455a.189.189 0 0 0 .084-.157V10.3a2.077 2.077 0 0 1 .675-1.532l6.062-5.554a.19.19 0 0 0 .061-.139V1.322a.189.189 0 0 0-.189-.189zm0 0"/>
</svg>
