<svg xmlns="http://www.w3.org/2000/svg" width="18.628" height="18.628" viewBox="0 0 18.628 18.628">
  <g id="Group_12930" data-name="Group 12930" transform="translate(-6.548 -6.75)">
    <g id="Group_3252" data-name="Group 3252">
      <path id="filter" d="M7.364,18.128a.567.567,0,0,1-.566-.566V10.3a.945.945,0,0,0-.306-.7L.428,4.045A1.327,1.327,0,0,1,0,3.07V1.322A1.323,1.323,0,0,1,1.322,0H16.806a1.323,1.323,0,0,1,1.322,1.322V3.07a1.329,1.329,0,0,1-.428.974L11.637,9.6a.938.938,0,0,0-.307.7v4.6a1.319,1.319,0,0,1-.588,1.1L7.679,18.032A.557.557,0,0,1,7.364,18.128ZM1.322,1.133a.189.189,0,0,0-.189.189V3.07a.191.191,0,0,0,.062.14L7.256,8.763A2.084,2.084,0,0,1,7.931,10.3V16.5l2.182-1.455a.189.189,0,0,0,.084-.157V10.3a2.077,2.077,0,0,1,.675-1.532l6.062-5.554a.19.19,0,0,0,.061-.139V1.322a.189.189,0,0,0-.189-.189Zm0,0" transform="translate(6.798 7)" stroke-width="0.5"/>
    </g>
  </g>
</svg>
