<svg xmlns="http://www.w3.org/2000/svg" width="23.028" height="20.587" viewBox="0 0 23.028 20.587">
    <defs>
        <style>
            .prefix__cls-1{fill:#3c80aa;stroke:#3c80aa;stroke-width:.8px}
        </style>
    </defs>
    <g id="prefix__home_1_" data-name="home (1)" transform="translate(.456 -27.375)">
        <g id="prefix__Group_4093" data-name="Group 4093" transform="translate(-.001 27.798)">
            <g id="prefix__Group_4092" data-name="Group 4092">
                <path id="prefix__Path_12115" d="M21.935 35.6l-10.51-7.695a.576.576 0 0 0-.681 0L.235 35.6a.576.576 0 0 0 .681.93l10.169-7.446 10.169 7.446a.576.576 0 0 0 .681-.93z" class="prefix__cls-1" data-name="Path 12115" transform="translate(.001 -27.798)"/>
            </g>
        </g>
        <g id="prefix__Group_4095" data-name="Group 4095" transform="translate(2.444 36.664)">
            <g id="prefix__Group_4094" data-name="Group 4094">
                <path id="prefix__Path_12116" d="M73.158 232.543a.576.576 0 0 0-.576.576v9.17h-4.608v-5.005a2.881 2.881 0 0 0-5.761 0v5.005H57.6v-9.17a.576.576 0 1 0-1.152 0v9.746a.576.576 0 0 0 .576.576h5.761a.576.576 0 0 0 .574-.531.435.435 0 0 0 0-.045v-5.581a1.728 1.728 0 1 1 3.457 0v5.581a.422.422 0 0 0 0 .044.576.576 0 0 0 .574.532h5.761a.576.576 0 0 0 .576-.576v-9.746a.576.576 0 0 0-.569-.576z" class="prefix__cls-1" data-name="Path 12116" transform="translate(-56.452 -232.543)"/>
            </g>
        </g>
    </g>
</svg>
