<svg xmlns="http://www.w3.org/2000/svg" width="21.251" height="27.898" viewBox="0 0 21.251 27.898">
  <g id="hourglass" transform="translate(-61)">
    <g id="Group_6212" data-name="Group 6212" transform="translate(61)">
      <g id="Group_6211" data-name="Group 6211">
        <path id="Path_12775" data-name="Path 12775" d="M75.882,13.127c.26-.226.557-.476.871-.74,2.32-1.95,5.5-4.621,5.5-7.428V3.269A3.273,3.273,0,0,0,78.981,0H64.269A3.273,3.273,0,0,0,61,3.269V4.958c0,2.807,3.177,5.478,5.5,7.428.314.264.612.514.871.74a1.065,1.065,0,0,1,0,1.645c-.26.226-.557.476-.871.74-2.32,1.95-5.5,4.621-5.5,7.428v1.689A3.273,3.273,0,0,0,64.269,27.9H78.981a3.273,3.273,0,0,0,3.269-3.269,1.09,1.09,0,1,0-2.18,0,1.091,1.091,0,0,1-1.09,1.09H64.269a1.091,1.091,0,0,1-1.09-1.09V22.94c0-1.792,2.955-4.276,4.72-5.76.322-.27.626-.526.9-.764a3.244,3.244,0,0,0,0-4.934c-.274-.238-.578-.494-.9-.764-1.765-1.484-4.72-3.968-4.72-5.76V3.269a1.091,1.091,0,0,1,1.09-1.09H78.981a1.091,1.091,0,0,1,1.09,1.09V4.958c0,1.792-2.955,4.276-4.72,5.76-.322.27-.626.526-.9.764a3.244,3.244,0,0,0,0,4.934c.285.248.6.514.94.8a30.327,30.327,0,0,1,3.21,2.963,1.09,1.09,0,0,0,1.631-1.446,32.475,32.475,0,0,0-3.442-3.189c-.328-.275-.638-.534-.908-.769a1.065,1.065,0,0,1,0-1.645Z" transform="translate(-61 0)" fill="#959ba7"/>
        <path id="Path_12776" data-name="Path 12776" d="M163.523,327.417a1.733,1.733,0,0,0-2.257,0c-.04.034-3.16,2.667-3.989,3.553l-.027.029a.927.927,0,0,0,.681,1.557h8.927A.927.927,0,0,0,167.54,331l-.027-.029C166.684,330.084,163.564,327.452,163.523,327.417Z" transform="translate(-151.769 -309.181)" fill="#959ba7"/>
      </g>
    </g>
  </g>
</svg>
