<svg xmlns="http://www.w3.org/2000/svg" xmlns:xlink="http://www.w3.org/1999/xlink" width="38" height="38" viewBox="0 0 38 38">
  <defs>
    <filter id="Ellipse_128" x="0" y="0" width="38" height="38" filterUnits="userSpaceOnUse">
      <feOffset dy="1" input="SourceAlpha"/>
      <feGaussianBlur stdDeviation="1" result="blur"/>
      <feFlood flood-opacity="0.161"/>
      <feComposite operator="in" in2="blur"/>
      <feComposite in="SourceGraphic"/>
    </filter>
  </defs>
  <g id="return" transform="translate(3 2)">
    <g transform="matrix(1, 0, 0, 1, -3, -2)" filter="url(#Ellipse_128)">
      <g id="Ellipse_128-2" data-name="Ellipse 128" transform="translate(3 2)" fill="#fe9d2a" stroke="#fe9d2a" stroke-width="1.5">
        <circle cx="16" cy="16" r="16" stroke="none"/>
        <circle cx="16" cy="16" r="15.25" fill="none"/>
      </g>
    </g>
    <g id="back-left-arrow-of-returning-angle" transform="translate(9.844 11.163)">
      <path id="Path_12903" data-name="Path 12903" d="M2.411,137.388H12a.8.8,0,0,0,0-1.608H2.411a.8.8,0,0,1-.8-.8v-3.441a.8.8,0,0,1,.8-.8h9.006l-.638.646a.8.8,0,1,0,1.144,1.13l2.016-2.041a.8.8,0,0,0-.007-1.137l-2.013-1.989a.8.8,0,0,0-1.13,1.144l.647.639H2.411A2.414,2.414,0,0,0,0,131.535v3.441A2.414,2.414,0,0,0,2.411,137.388Z" transform="translate(0 -127.107)" fill="#fff"/>
    </g>
  </g>
</svg>
