<svg xmlns="http://www.w3.org/2000/svg" width="65.422" height="65.422" viewBox="0 0 65.422 65.422">
  <path id="Icon_metro-warning" data-name="Icon metro-warning" d="M35.282,7.855,62.7,62.495H7.867L35.282,7.855Zm0-5.927c-1.41,0-2.82.951-3.89,2.853L3.468,60.435c-2.139,3.8-.319,6.915,4.044,6.915H63.051c4.364,0,6.184-3.112,4.044-6.915h0L39.171,4.781C38.1,2.879,36.692,1.928,35.282,1.928Zm4.089,53.155a4.089,4.089,0,1,1-4.089-4.089A4.089,4.089,0,0,1,39.371,55.083Zm-4.089-8.178a4.089,4.089,0,0,1-4.089-4.089V30.55a4.089,4.089,0,1,1,8.178,0V42.817A4.089,4.089,0,0,1,35.282,46.906Z" transform="translate(-2.571 -1.928)" fill="#c2c2c2"/>
</svg>
