<svg xmlns="http://www.w3.org/2000/svg" width="12.84" height="11.285" viewBox="0 0 12.84 11.285">
  <g id="Group_13226" data-name="Group 13226" transform="translate(-1272 -543.56)">
    <g id="Group_12711" data-name="Group 12711" transform="translate(1272 543.56)">
      <ellipse id="Ellipse_523" data-name="Ellipse 523" cx="0.687" cy="0.589" rx="0.687" ry="0.589" transform="translate(5.735 7.895)" fill="#d80812"/>
      <path id="Path_18649" data-name="Path 18649" d="M7.4,31.561a1.129,1.129,0,0,0-1.951,0L.154,40.588a1.128,1.128,0,0,0,.975,1.7H11.711a1.129,1.129,0,0,0,.975-1.7Z" transform="translate(0 -31)" fill="#da2337"/>
      <path id="Path_18957" data-name="Path 18957" d="M236.511,128.877a.511.511,0,0,0-.511.511v3.29a.511.511,0,0,0,1.022,0v-3.29A.511.511,0,0,0,236.511,128.877Z" transform="translate(-230.015 -125.271)" fill="#fff"/>
      <ellipse id="Ellipse_526" data-name="Ellipse 526" cx="0.69" cy="0.69" rx="0.69" ry="0.69" transform="translate(5.806 8.604)" fill="#fff"/>
    </g>
  </g>
</svg>
