<?xml version="1.0" encoding="UTF-8" standalone="no"?>
<svg
   xmlns:dc="http://purl.org/dc/elements/1.1/"
   xmlns:cc="http://creativecommons.org/ns#"
   xmlns:rdf="http://www.w3.org/1999/02/22-rdf-syntax-ns#"
   xmlns:svg="http://www.w3.org/2000/svg"
   xmlns="http://www.w3.org/2000/svg"
   xmlns:sodipodi="http://sodipodi.sourceforge.net/DTD/sodipodi-0.dtd"
   xmlns:inkscape="http://www.inkscape.org/namespaces/inkscape"
   width="29"
   height="29"
   viewBox="0 0 29 29"
   version="1.1"
   id="svg27"
   sodipodi:docname="accept.svg"
   inkscape:version="1.0.2-2 (e86c870879, 2021-01-15)">
  <metadata
     id="metadata31">
    <rdf:RDF>
      <cc:Work
         rdf:about="">
        <dc:format>image/svg+xml</dc:format>
        <dc:type
           rdf:resource="http://purl.org/dc/dcmitype/StillImage" />
      </cc:Work>
    </rdf:RDF>
  </metadata>
  <sodipodi:namedview
     pagecolor="#ffffff"
     bordercolor="#666666"
     borderopacity="1"
     objecttolerance="10"
     gridtolerance="10"
     guidetolerance="10"
     inkscape:pageopacity="0"
     inkscape:pageshadow="2"
     inkscape:window-width="1920"
     inkscape:window-height="1017"
     id="namedview29"
     showgrid="false"
     inkscape:zoom="29.310345"
     inkscape:cx="14.5"
     inkscape:cy="17.229412"
     inkscape:window-x="-8"
     inkscape:window-y="-8"
     inkscape:window-maximized="1"
     inkscape:current-layer="svg27" />
  <defs
     id="defs13">
    <filter
       id="fwefwefdfv"
       x="0"
       y="0"
       width="29"
       height="29"
       filterUnits="userSpaceOnUse">
      <feOffset
         dy="1"
         input="SourceAlpha"
         id="feOffset2" />
      <feGaussianBlur
         stdDeviation="0.5"
         result="blur"
         id="feGaussianBlur4" />
      <feFlood
         flood-opacity="0.161"
         id="feFlood6" />
      <feComposite
         operator="in"
         in2="blur"
         id="feComposite8"
         result="result1" />
      <feComposite
         in="SourceGraphic"
         in2="result1"
         id="feComposite10" />
    </filter>
  </defs>
  <g
     id="Group_12713"
     data-name="Group 12713"
     transform="translate(-222.36353,-802.34)">
    <g
       id="Component_353"
       data-name="Component 353"
       transform="translate(224,804)">
      <g
         transform="translate(-1.5,-0.5)"
         filter="url(#fwefwefdfv)"
         id="g20">
        <g
           id="fwefwefdfv-2"
           data-name="fwefwefdfv"
           transform="translate(1.5,0.5)"
           fill="#69ccc1">
          <path
             d="M 23,25.25 H 0.75 V 0.75 H 23 c 1.24065,0 2.25,1.0093499 2.25,2.25 v 20 c 0,1.24065 -1.00935,2.25 -2.25,2.25 z"
             stroke="none"
             id="path15" />
          <path
             d="m 1.5,1.5 v 23 H 23 c 0.827101,0 1.5,-0.672899 1.5,-1.5 V 3 C 24.5,2.1728992 23.827101,1.5 23,1.5 H 1.5 M 0,0 h 23 c 1.656851,0 3,1.3431396 3,3 v 20 c 0,1.656851 -1.343149,3 -3,3 H 0 Z"
             stroke="none"
             fill="#69ccc1"
             id="path17" />
        </g>
      </g>
    </g>
    <g
       id="_447147"
       data-name="447147"
       transform="translate(230.002,744.003)">
      <g
         id="Group_12701"
         data-name="Group 12701"
         transform="translate(0,67.997)">
        <path
           id="Path_18920"
           data-name="Path 18920"
           d="m 12.256,68.18 a 0.622,0.622 0 0 0 -0.88,0 L 3.925,75.631 1.061,72.767 a 0.622,0.622 0 0 0 -0.88,0.879 l 3.3,3.3 a 0.622,0.622 0 0 0 0.88,0 l 7.891,-7.891 a 0.622,0.622 0 0 0 0.004,-0.875 z"
           transform="translate(0,-67.997)"
           fill="#ffffff"
           stroke="#ffffff"
           stroke-width="1" />
      </g>
    </g>
  </g>
</svg>
