<?xml version="1.0" encoding="UTF-8" standalone="no"?>
<svg
   xmlns:dc="http://purl.org/dc/elements/1.1/"
   xmlns:cc="http://creativecommons.org/ns#"
   xmlns:rdf="http://www.w3.org/1999/02/22-rdf-syntax-ns#"
   xmlns:svg="http://www.w3.org/2000/svg"
   xmlns="http://www.w3.org/2000/svg"
   xmlns:sodipodi="http://sodipodi.sourceforge.net/DTD/sodipodi-0.dtd"
   xmlns:inkscape="http://www.inkscape.org/namespaces/inkscape"
   width="29"
   height="29"
   viewBox="0 0 29 29"
   version="1.1"
   id="svg16"
   sodipodi:docname="reject.svg"
   inkscape:version="1.0.2-2 (e86c870879, 2021-01-15)">
  <metadata
     id="metadata22">
    <rdf:RDF>
      <cc:Work
         rdf:about="">
        <dc:format>image/svg+xml</dc:format>
        <dc:type
           rdf:resource="http://purl.org/dc/dcmitype/StillImage" />
      </cc:Work>
    </rdf:RDF>
  </metadata>
  <defs
     id="defs20" />
  <sodipodi:namedview
     pagecolor="#ffffff"
     bordercolor="#666666"
     borderopacity="1"
     objecttolerance="10"
     gridtolerance="10"
     guidetolerance="10"
     inkscape:pageopacity="0"
     inkscape:pageshadow="2"
     inkscape:window-width="1920"
     inkscape:window-height="1017"
     id="namedview18"
     showgrid="false"
     inkscape:zoom="20.725544"
     inkscape:cx="7.1513641"
     inkscape:cy="16.803515"
     inkscape:window-x="-8"
     inkscape:window-y="-8"
     inkscape:window-maximized="1"
     inkscape:current-layer="svg16" />
  <g
     transform="translate(-107.95175,-609.43851)"
     id="g14">
    <g
       transform="translate(108,610.5)"
       id="g8">
      <g
         transform="translate(1.5,0.5)"
         fill="#ffffff"
         id="g6">
        <path
           d="M 25.25,25.25 H 3 C 1.7593499,25.25 0.75,24.24065 0.75,23 V 3 C 0.75,1.7593499 1.7593499,0.75 3,0.75 h 22.25 z"
           stroke="none"
           id="path2" />
        <path
           d="M 3,1.5 C 2.1728992,1.5 1.5,2.1728992 1.5,3 v 20 c 0,0.827101 0.6728992,1.5 1.5,1.5 H 24.5 V 1.5 H 3 M 3,0 H 26 V 26 H 3 C 1.3431396,26 0,24.656851 0,23 V 3 C 0,1.3431396 1.3431396,0 3,0 Z"
           stroke="none"
           fill="#da2337"
           id="path4" />
      </g>
    </g>
    <g
       transform="translate(116.857,617.324)"
       id="g12">
      <path
         data-name="Path 14575"
         d="m 22.842,21.141 -1.7,1.7 -4.377,-4.377 -4.377,4.377 -1.7,-1.7 4.377,-4.377 -4.377,-4.377 1.7,-1.7 4.377,4.377 4.377,-4.377 1.7,1.7 -4.377,4.377 z"
         transform="translate(-10.688,-10.688)"
         fill="#da2337"
         id="path10" />
    </g>
  </g>
</svg>
