<svg id="Group_8246" data-name="Group 8246" xmlns="http://www.w3.org/2000/svg" width="32.377" height="44" viewBox="0 0 32.377 44">
  <path id="Path_14329" data-name="Path 14329" d="M39.134,8.363,31,.242A.831.831,0,0,0,30.416,0H7.83A.829.829,0,0,0,7,.83V43.17a.829.829,0,0,0,.83.83H38.547a.829.829,0,0,0,.83-.83V8.951A.833.833,0,0,0,39.134,8.363ZM36.543,8.3H31.075V2.834ZM8.66,42.34V1.66H29.415V9.132a.829.829,0,0,0,.83.83h7.472V42.34Z" transform="translate(-7 0)" fill="#fe9d2a"/>
  <path id="Path_14330" data-name="Path 14330" d="M25.722,32.855l-3.228,3.227a2.711,2.711,0,0,1-2.1.766,3.535,3.535,0,0,1-2.3-1.058,3.14,3.14,0,0,1-.292-4.4l3.227-3.227a.83.83,0,0,0-1.174-1.174l-3.227,3.227a4.793,4.793,0,0,0,.292,6.753,5.186,5.186,0,0,0,3.391,1.542c.086,0,.173.007.258.007a4.326,4.326,0,0,0,3.1-1.258L26.9,34.029a.83.83,0,1,0-1.175-1.174Z" transform="translate(-8.421 -4.541)" fill="#fe9d2a"/>
  <path id="Path_14331" data-name="Path 14331" d="M27.48,19.355l-3.227,3.228a.83.83,0,0,0,1.174,1.174l3.228-3.228a3.14,3.14,0,0,1,4.4.292,3.14,3.14,0,0,1,.292,4.4l-3.228,3.227A.83.83,0,1,0,31.3,29.627L34.526,26.4a4.8,4.8,0,0,0-.292-6.753A4.8,4.8,0,0,0,27.48,19.355Z" transform="translate(-9.888 -3.074)" fill="#fe9d2a"/>
  <path id="Path_14332" data-name="Path 14332" d="M27.3,24.864l-5.87,5.869A.83.83,0,1,0,22.6,31.908l5.87-5.869A.83.83,0,0,0,27.3,24.864Z" transform="translate(-9.408 -4.181)" fill="#fe9d2a"/>
</svg>
