<svg xmlns="http://www.w3.org/2000/svg" width="32.377" height="44" viewBox="0 0 32.377 44">
  <g id="Group_8277" data-name="Group 8277" transform="translate(-409 -729)">
    <g id="attach" transform="translate(402 728)">
      <g id="Group_8246" data-name="Group 8246" transform="translate(7 0)">
        <path id="Path_14329" data-name="Path 14329" d="M39.134,8.363,31,.242A.831.831,0,0,0,30.416,0H7.83A.829.829,0,0,0,7,.83V43.17a.829.829,0,0,0,.83.83H38.547a.829.829,0,0,0,.83-.83V8.951A.833.833,0,0,0,39.134,8.363ZM36.543,8.3H31.075V2.834ZM8.66,42.34V1.66H29.415V9.132a.829.829,0,0,0,.83.83h7.472V42.34Z" transform="translate(-7 1)" fill="#848d97"/>
      </g>
    </g>
    <g id="Icon_feather-upload" data-name="Icon feather-upload" transform="translate(418 746)">
      <path id="Path_12514" data-name="Path 12514" d="M18.475,22.5v3.105a1.553,1.553,0,0,1-1.553,1.553H6.053A1.553,1.553,0,0,1,4.5,25.605V22.5" transform="translate(-4.5 -13.184)" fill="none" stroke="#848d97" stroke-linecap="round" stroke-linejoin="round" stroke-width="1.5"/>
      <path id="Path_12515" data-name="Path 12515" d="M18.264,8.382,14.382,4.5,10.5,8.382" transform="translate(-7.395 -4.5)" fill="none" stroke="#848d97" stroke-linecap="round" stroke-linejoin="round" stroke-width="1.5"/>
      <path id="Path_12516" data-name="Path 12516" d="M18,4.5v9.316" transform="translate(-11.013 -4.5)" fill="none" stroke="#848d97" stroke-linecap="round" stroke-linejoin="round" stroke-width="1.5"/>
    </g>
  </g>
</svg>
