<svg xmlns="http://www.w3.org/2000/svg" width="22" height="28.193" viewBox="0 0 22 28.193">
  <path id="Subtraction_4" data-name="Subtraction 4" d="M18.9,28.193H3.1A3.07,3.07,0,0,1,0,25.165V3.029A3.07,3.07,0,0,1,3.1,0H14.666V6.332a.837.837,0,0,0,.846.826H22V25.165A3.07,3.07,0,0,1,18.9,28.193ZM13.64,26.114a.248.248,0,0,0,0,.5H18a.248.248,0,0,0,0-.5Zm0-.9a.248.248,0,0,0,0,.5h6.2a.248.248,0,0,0,0-.5Zm-4.9-16.29a.843.843,0,0,0-.757.456l-.119.232A2.8,2.8,0,0,1,5.36,11.123a.838.838,0,0,0-.847.826v4.713a8.36,8.36,0,0,0,1.733,5.106,8.7,8.7,0,0,0,4.512,3.087.88.88,0,0,0,.486,0,8.7,8.7,0,0,0,4.512-3.087,8.36,8.36,0,0,0,1.733-5.106V11.949a.837.837,0,0,0-.846-.826,2.8,2.8,0,0,1-2.509-1.514l-.119-.232a.843.843,0,0,0-.757-.456Zm-6.1-2.853a.248.248,0,1,0,0,.5H13.622a.248.248,0,1,0,0-.5Zm0-1.867a.248.248,0,1,0,0,.5H12.665a.248.248,0,0,0,0-.5Zm0-1.867a.248.248,0,0,0,0,.5H12.665a.248.248,0,0,0,0-.5ZM11,23.2h0a7.01,7.01,0,0,1-3.476-2.5,6.758,6.758,0,0,1-1.318-4.031V12.7a4.468,4.468,0,0,0,3.053-2.126h3.483A4.471,4.471,0,0,0,15.794,12.7v3.965a6.758,6.758,0,0,1-1.318,4.031A7.01,7.01,0,0,1,11,23.2ZM8.607,16.079a.853.853,0,0,0-.6.242.812.812,0,0,0,0,1.168l1.6,1.558a.86.86,0,0,0,1.2,0l3.191-3.115a.812.812,0,0,0,0-1.168.859.859,0,0,0-1.2,0L10.2,17.294l-1-.974A.85.85,0,0,0,8.607,16.079ZM21.5,5.506H16.358V.483L21.5,5.5Z" fill="#b7bdc4"/>
</svg>
