<svg xmlns="http://www.w3.org/2000/svg" width="21.361" height="19.428" viewBox="0 0 21.361 19.428">
  <g id="Edit" transform="translate(24075.438 -1001.381)">
    <g id="writing" transform="translate(-24102.008 927.381)">
      <g id="Group_6694" data-name="Group 6694" transform="translate(26.57 74)">
        <g id="Group_6693" data-name="Group 6693" transform="translate(0)">
          <path id="Path_13027" data-name="Path 13027" d="M115.794,200.759a.759.759,0,0,0-.759-.759h-7.817a.759.759,0,1,0,0,1.518h7.817A.759.759,0,0,0,115.794,200.759Z" transform="translate(-103.428 -192.411)" />
          <path id="Path_13028" data-name="Path 13028" d="M107.218,280a.759.759,0,0,0,0,1.518h4.747a.759.759,0,1,0,0-1.518Z" transform="translate(-103.428 -269.375)" />
          <path id="Path_13029" data-name="Path 13029" d="M34.728,17.91H29.606a1.52,1.52,0,0,1-1.518-1.518V3.036a1.52,1.52,0,0,1,1.518-1.518h9.33a1.52,1.52,0,0,1,1.518,1.518V7.7a.759.759,0,0,0,1.518,0V3.036A3.039,3.039,0,0,0,38.936,0h-9.33A3.039,3.039,0,0,0,26.57,3.036V16.393a3.039,3.039,0,0,0,3.036,3.036h5.122a.759.759,0,0,0,0-1.518Z" transform="translate(-26.57)" />
          <path id="Path_13031" data-name="Path 13031" d="M115.035,120h-7.817a.759.759,0,1,0,0,1.518h7.817a.759.759,0,0,0,0-1.518Z" transform="translate(-103.428 -115.447)" />
        </g>
      </g>
    </g>
    <g id="edit-24px" transform="translate(-24068.098 1006.788)">
      <path id="Path_14390" data-name="Path 14390" d="M0,0H14.021V14.021H0Z" fill="none"/>
      <path id="Path_14391" data-name="Path 14391" d="M9.462,6.517,10,7.055,4.706,12.348H4.168V11.81L9.462,6.517M11.565,3a.585.585,0,0,0-.409.169L10.087,4.239l2.191,2.191L13.347,5.36a.582.582,0,0,0,0-.824L11.98,3.169A.574.574,0,0,0,11.565,3Zm-2.1,1.864L3,11.325v2.191H5.191l6.462-6.462Z" transform="translate(-1.247 -1.247)" />
    </g>
  </g>
</svg>
