<svg xmlns="http://www.w3.org/2000/svg" width="19.07" height="19.07" viewBox="0 0 19.07 19.07">
  <path id="filter" d="M7.544,18.57a.581.581,0,0,1-.58-.58V10.546a.968.968,0,0,0-.313-.713L.439,4.143a1.359,1.359,0,0,1-.439-1V1.354A1.356,1.356,0,0,1,1.354,0H17.216A1.356,1.356,0,0,1,18.57,1.354V3.145a1.361,1.361,0,0,1-.438,1l-6.211,5.69a.961.961,0,0,0-.315.713v4.708a1.351,1.351,0,0,1-.6,1.127L7.866,18.472A.57.57,0,0,1,7.544,18.57ZM1.354,1.161a.194.194,0,0,0-.193.193V3.145a.2.2,0,0,0,.063.143L7.434,8.977a2.135,2.135,0,0,1,.691,1.569v6.359l2.235-1.49a.194.194,0,0,0,.086-.161V10.546a2.128,2.128,0,0,1,.692-1.569l6.21-5.689a.194.194,0,0,0,.063-.142V1.354a.194.194,0,0,0-.193-.193Zm0,0" transform="translate(0.25 0.25)" fill="#324458" stroke="#324458" stroke-width="0.5"/>
</svg>
