<svg xmlns="http://www.w3.org/2000/svg" width="18.668" height="19.63" viewBox="0 0 18.668 19.63">
  <g id="Component_135" data-name="Component 135" transform="translate(-17.899 -7.068)">
    <g id="printer" transform="translate(6.05 7.167)">
      <g id="Group_6697" data-name="Group 6697" transform="translate(11.95)">
        <path id="Path_13040" data-name="Path 13040" d="M27.546,3.983h-.5V2.871A2.875,2.875,0,0,0,24.176,0H18.147a2.875,2.875,0,0,0-2.871,2.871V3.983h-.455A2.875,2.875,0,0,0,11.95,6.854v4.631a2.875,2.875,0,0,0,2.871,2.871h.451V18a1.437,1.437,0,0,0,1.434,1.434h8.9A1.437,1.437,0,0,0,27.043,18v-3.64h.5a2.875,2.875,0,0,0,2.871-2.871V6.854A2.875,2.875,0,0,0,27.546,3.983ZM16.359,2.871a1.787,1.787,0,0,1,1.784-1.784h6.024a1.787,1.787,0,0,1,1.784,1.784V3.983H16.359ZM25.956,18a.349.349,0,0,1-.346.346h-8.9A.349.349,0,0,1,16.359,18V12h9.6Zm3.375-6.516a1.787,1.787,0,0,1-1.784,1.784h-.5V12h.717a.544.544,0,1,0,0-1.087H14.475a.544.544,0,0,0,0,1.087h.8v1.273h-.455a1.787,1.787,0,0,1-1.784-1.784V6.858a1.787,1.787,0,0,1,1.784-1.784H27.546A1.787,1.787,0,0,1,29.33,6.858Z" transform="translate(-11.95)" fill="#00445c" stroke="#00445c" stroke-width="0.2"/>
        <path id="Path_13041" data-name="Path 13041" d="M141.188,338.476h6.852a.538.538,0,0,0,0-1.076h-6.852a.538.538,0,0,0,0,1.076Z" transform="translate(-135.427 -323.805)" fill="#00445c"/>
        <path id="Path_13042" data-name="Path 13042" d="M149.044,392.6h-6.856a.538.538,0,0,0,0,1.076h6.852a.538.538,0,0,0,0-1.076Z" transform="translate(-136.387 -376.754)" fill="#00445c"/>
      </g>
    </g>
  </g>
</svg>
