<svg xmlns="http://www.w3.org/2000/svg" width="26.637" height="19.723" viewBox="0 0 26.637 19.723">
  <g id="Group_6699" data-name="Group 6699" transform="translate(-300.363 -77.277)">
    <g id="Group_6693" data-name="Group 6693" transform="translate(300.363 77.277)">
      <path id="Path_13029" data-name="Path 13029" d="M32.782,17.91H29.606a1.52,1.52,0,0,1-1.518-1.518V3.036a1.52,1.52,0,0,1,1.518-1.518h9.33a1.52,1.52,0,0,1,1.518,1.518V7.7a.759.759,0,0,0,1.518,0V3.036A3.039,3.039,0,0,0,38.936,0h-9.33A3.039,3.039,0,0,0,26.57,3.036V16.393a3.039,3.039,0,0,0,3.036,3.036h3.177a.759.759,0,0,0,0-1.518Z" transform="translate(-26.57)" fill="#00445c"/>
      <path id="Path_13031" data-name="Path 13031" d="M115.035,120h-7.817a.759.759,0,1,0,0,1.518h7.817a.759.759,0,0,0,0-1.518Z" transform="translate(-103.428 -115.447)" fill="#00445c"/>
      <g id="Rectangle_3158" data-name="Rectangle 3158" transform="translate(7.637 8.723)" fill="none" stroke="#00445c" stroke-width="1">
        <rect width="19" height="11" rx="2" stroke="none"/>
        <rect x="0.5" y="0.5" width="18" height="10" rx="1.5" fill="none"/>
      </g>
    </g>
    <g id="xls" transform="translate(299.956 81.884)">
      <g id="Group_6698" data-name="Group 6698" transform="translate(11.184 7.126)">
        <path id="XMLID_247_" d="M267.547,375.094h.209a.522.522,0,1,1,0,1.044H267a.522.522,0,1,0,0,1.044h.757a1.566,1.566,0,0,0,0-3.132h-.209a.522.522,0,1,1,0-1.044h.6a.522.522,0,1,0,0-1.044h-.6a1.566,1.566,0,0,0,0,3.132Z" transform="translate(-256.376 -371.962)" fill="#00445c"/>
        <path id="XMLID_248_" d="M82.91,372.157a.522.522,0,1,0-.815.652l1.41,1.762-1.41,1.762a.522.522,0,1,0,.815.652l1.263-1.579,1.263,1.579a.522.522,0,0,0,.815-.652l-1.41-1.762,1.41-1.762a.522.522,0,0,0-.815-.652l-1.263,1.578Z" transform="translate(-81.98 -371.961)" fill="#00445c"/>
        <path id="XMLID_1057_" d="M186.5,377.182h2.088a.522.522,0,0,0,0-1.044h-1.566v-3.654a.522.522,0,0,0-1.044,0v4.176A.522.522,0,0,0,186.5,377.182Z" transform="translate(-180.552 -371.962)" fill="#00445c"/>
      </g>
    </g>
  </g>
</svg>
