<svg id="credit-card" xmlns="http://www.w3.org/2000/svg" width="24" height="17.129" viewBox="0 0 24 17.129">
  <g id="Group_5575" data-name="Group 5575" transform="translate(0 0)">
    <g id="Group_5574" data-name="Group 5574">
      <path id="Path_12690" data-name="Path 12690" d="M19.246,55.05H1.4A1.4,1.4,0,0,0,0,56.438v10.68a1.365,1.365,0,0,0,1.4,1.327h.723v-8.71a2.611,2.611,0,0,1,2.66-2.564h15.85v-.733A1.386,1.386,0,0,0,19.246,55.05Z" transform="translate(0 -55.05)" fill="#b6bdc4"/>
    </g>
  </g>
  <g id="Group_5577" data-name="Group 5577" transform="translate(17.131 12.71)">
    <g id="Group_5576" data-name="Group 5576" transform="translate(0 0)">
      <path id="Path_12691" data-name="Path 12691" d="M277.442,258.386a.971.971,0,0,0-1.37.121.644.644,0,0,1-.091.091.607.607,0,0,1-.855-.091.976.976,0,1,0-.746,1.6.948.948,0,0,0,.752-.352.6.6,0,0,1,.467-.218.586.586,0,0,1,.467.212.842.842,0,0,0,.127.127.972.972,0,1,0,1.249-1.491Z" transform="translate(-273.399 -258.15)" fill="#b6bdc4"/>
    </g>
  </g>
  <g id="Group_5579" data-name="Group 5579" transform="translate(3.273 3.426)">
    <g id="Group_5578" data-name="Group 5578" transform="translate(0 0)">
      <path id="Path_12692" data-name="Path 12692" d="M73.269,110.049H55.414A1.382,1.382,0,0,0,54,111.4v.891H74.69V111.4A1.384,1.384,0,0,0,73.269,110.049Z" transform="translate(-54 -110.049)" fill="#b6bdc4"/>
    </g>
  </g>
  <g id="Group_5581" data-name="Group 5581" transform="translate(3.473 6.48)">
    <g id="Group_5580" data-name="Group 5580" transform="translate(0 0)">
      <rect id="Rectangle_2253" data-name="Rectangle 2253" width="20.527" height="1.736" fill="#b6bdc4"/>
    </g>
  </g>
  <g id="Group_5583" data-name="Group 5583" transform="translate(3.273 9.976)">
    <g id="Group_5582" data-name="Group 5582" transform="translate(0 0)">
      <path id="Path_12693" data-name="Path 12693" d="M54,213.05v5.764a1.4,1.4,0,0,0,1.414,1.388H73.263a1.414,1.414,0,0,0,1.42-1.388V213.05Zm19.058,4.934a2.294,2.294,0,0,1-3.127.588,2.264,2.264,0,0,1-1.258.376,2.192,2.192,0,1,1,0-4.382,2.264,2.264,0,0,1,1.258.376,2.3,2.3,0,0,1,2.523,0A2.157,2.157,0,0,1,73.058,217.984Z" transform="translate(-54 -213.05)" fill="#b6bdc4"/>
    </g>
  </g>
</svg>
