<svg xmlns="http://www.w3.org/2000/svg" width="21.859" height="24" viewBox="0 0 21.859 24">
  <g id="Group_5965" data-name="Group 5965" transform="translate(-1705.07 -743)">
    <g id="house" transform="translate(1705.07 743)">
      <path id="Path_12439" data-name="Path 12439" d="M2.853,10.862H5.975v2.115H2.853Zm0,0" transform="translate(0.319 0.987)" fill="#b6bdc4"/>
      <path id="Path_12440" data-name="Path 12440" d="M8.7,12.976a6.909,6.909,0,0,1,2.033-2.115H8.53v2.115Zm0,0" transform="translate(0.835 0.987)" fill="#b6bdc4"/>
      <path id="Path_12441" data-name="Path 12441" d="M7.975,15.707H5.63a.612.612,0,0,0-.608.609v3.369h3.8a7.081,7.081,0,0,1-.865-3.4c0-.191.008-.374.023-.575Zm0,0" transform="translate(0.516 1.428)" fill="#b6bdc4"/>
      <path id="Path_12442" data-name="Path 12442" d="M2.853,5.877H5.975V7.992H2.853Zm0,0" transform="translate(0.319 0.534)" fill="#b6bdc4"/>
      <path id="Path_12443" data-name="Path 12443" d="M8.53,5.877h3.122V7.992H8.53Zm0,0" transform="translate(0.835 0.534)" fill="#b6bdc4"/>
      <path id="Path_12444" data-name="Path 12444" d="M8.548,16.33a7.039,7.039,0,0,1,.5-1.561H8.918a.412.412,0,0,1-.413-.4V11.44a.407.407,0,0,1,.413-.4h3.91a.37.37,0,0,1,.157.032,7.029,7.029,0,0,1,2.515-.467c.056,0,.1,0,.154,0V5.447L7.775,0-.054,5.447V21.113H4.678V17.744A1.418,1.418,0,0,1,6.091,16.33Zm4.689-7.4a.4.4,0,0,1-.4.4H8.907a.4.4,0,0,1-.4-.4V6.009a.4.4,0,0,1,.4-.4h3.927a.4.4,0,0,1,.4.4Zm-6.193,0a.4.4,0,0,1-.4.4H2.715a.4.4,0,0,1-.4-.4V6.009a.4.4,0,0,1,.4-.4H6.642a.4.4,0,0,1,.4.4Zm0,5.437a.4.4,0,0,1-.4.4H2.715a.4.4,0,0,1-.4-.4v-2.92a.4.4,0,0,1,.4-.4H6.642a.4.4,0,0,1,.4.4Zm0,0" transform="translate(0.054 0)" fill="#b6bdc4"/>
      <path id="Path_12445" data-name="Path 12445" d="M14.323,14.212a1.315,1.315,0,1,0,1.315,1.315A1.315,1.315,0,0,0,14.323,14.212Zm0,0" transform="translate(1.242 1.292)" fill="#b6bdc4"/>
      <path id="Path_12446" data-name="Path 12446" d="M14.521,12.708h0a3.046,3.046,0,0,0-2.2.949,3.245,3.245,0,0,0-.037,4.492l.02.023,2.125,2.538,2.161-2.574.02-.023a3.246,3.246,0,0,0,.036-4.492,2.948,2.948,0,0,0-2.129-.913Zm-.052,5.077a2.121,2.121,0,1,1,2.121-2.121A2.121,2.121,0,0,1,14.469,17.785Zm0,0" transform="translate(1.096 1.155)" fill="#b6bdc4"/>
      <path id="Path_12447" data-name="Path 12447" d="M14.739,10.464a6.292,6.292,0,1,0,6.292,6.292,6.292,6.292,0,0,0-6.292-6.292Zm2.731,8.4L15.01,21.79a.421.421,0,0,1-.617,0L11.969,18.9a4.054,4.054,0,0,1,.049-5.6,3.844,3.844,0,0,1,2.772-1.192h0A3.747,3.747,0,0,1,17.5,13.263a4.056,4.056,0,0,1-.027,5.6Zm0,0" transform="translate(0.827 0.951)" fill="#b6bdc4"/>
    </g>
  </g>
</svg>
