<svg xmlns="http://www.w3.org/2000/svg" width="24" height="20.303" viewBox="0 0 24 20.303">
  <g id="Group_5828" data-name="Group 5828" transform="translate(-1816 -834.811)">
    <ellipse id="Ellipse_133" data-name="Ellipse 133" cx="3.241" cy="3.241" rx="3.241" ry="3.241" transform="translate(1829.787 843.184)" fill="#b6bdc4"/>
    <path id="Path_12586" data-name="Path 12586" d="M308.08,364.247A4.676,4.676,0,0,1,305,363.1v4.284a1.069,1.069,0,0,0,.625.973,1.122,1.122,0,0,0,.478.107,1.107,1.107,0,0,0,.687-.239l1.291-1.018,1.291,1.018a1.109,1.109,0,0,0,1.164.132,1.069,1.069,0,0,0,.625-.973V363.1A4.676,4.676,0,0,1,308.08,364.247Z" transform="translate(1525.097 486.651)" fill="#b6bdc4"/>
    <path id="Path_12587" data-name="Path 12587" d="M107.226,131.059h-9.74A3.122,3.122,0,0,1,95,133.323v2.213a3.122,3.122,0,0,1,2.486,2.264h5.647v-.042a4.165,4.165,0,0,1,4.34-3.953,4.636,4.636,0,0,1,2.239.568v-1.05A3.122,3.122,0,0,1,107.226,131.059Z" transform="translate(1725.645 707.868)" fill="#b6bdc4"/>
    <path id="Path_12588" data-name="Path 12588" d="M21.891,37.059H2.109A2.011,2.011,0,0,0,0,38.95V49.873a2.011,2.011,0,0,0,2.109,1.891H12.8V49.075H6.375a.67.67,0,0,1-.7-.63A1.833,1.833,0,0,0,3.75,46.722a.67.67,0,0,1-.7-.63V42.731a.67.67,0,0,1,.7-.63,1.833,1.833,0,0,0,1.922-1.723.67.67,0,0,1,.7-.63h11.25a.67.67,0,0,1,.7.63A1.833,1.833,0,0,0,20.25,42.1a.67.67,0,0,1,.7.63v2.827a3.684,3.684,0,0,1,.75,2.214v3.991h.188A2.011,2.011,0,0,0,24,49.873V38.95A2.011,2.011,0,0,0,21.891,37.059Z" transform="translate(1816 797.752)" fill="#b6bdc4"/>
  </g>
</svg>
