<svg xmlns="http://www.w3.org/2000/svg" width="24" height="22.715" viewBox="0 0 24 22.715">
  <g id="Group_5966" data-name="Group 5966" transform="translate(-1700 -913.642)">
    <g id="contact" transform="translate(1700 913.642)">
      <g id="Group_4923" data-name="Group 4923" transform="translate(0)">
        <g id="Group_4922" data-name="Group 4922">
          <path id="Path_12420" data-name="Path 12420" d="M18.281,19.774l-4.046-2.7a.417.417,0,0,0-.557.09L12.5,18.682a1.263,1.263,0,0,1-1.618.333l-.218-.12a14.23,14.23,0,0,1-3.706-2.9,14.212,14.212,0,0,1-2.9-3.706l-.12-.218a1.262,1.262,0,0,1,.333-1.618L5.781,9.272a.416.416,0,0,0,.09-.557l-2.7-4.046a.415.415,0,0,0-.557-.126L.925,5.558a1.629,1.629,0,0,0-.745.961c-.556,2.025-.088,5.57,5.3,10.955s8.929,5.853,10.955,5.3a1.629,1.629,0,0,0,.961-.746l1.015-1.693A.414.414,0,0,0,18.281,19.774Z" transform="translate(0 -0.235)" fill="#b6bdc4"/>
          <path id="Path_12421" data-name="Path 12421" d="M23.546.657a.233.233,0,0,0-.167-.068H5.417a.233.233,0,0,0-.236.236V7.065L6.2,8.593a1.277,1.277,0,0,1-.277,1.71L4.409,11.481A.409.409,0,0,0,4.3,12l.123.225a10.809,10.809,0,0,0,1.43,2.085H23.378a.234.234,0,0,0,.236-.231V.825A.233.233,0,0,0,23.546.657Zm-12.179,7.8v0l-4.391,4.7a.429.429,0,0,1-.627-.585l4.391-4.7a.429.429,0,0,1,.627.585ZM14.4,8.115a1.421,1.421,0,0,1-.857-.283L6.375,2.4a.429.429,0,1,1,.52-.683l7.162,5.433a.578.578,0,0,0,.68,0L21.9,1.716a.429.429,0,1,1,.518.683L15.255,7.832A1.421,1.421,0,0,1,14.4,8.115Zm8.056,5.061a.429.429,0,0,1-.606-.021l-4.391-4.7a.429.429,0,0,1,.628-.583l4.39,4.7A.429.429,0,0,1,22.453,13.177Z" transform="translate(0.386 -0.589)" fill="#b6bdc4"/>
        </g>
      </g>
    </g>
  </g>
</svg>
