<svg xmlns="http://www.w3.org/2000/svg" width="23.66" height="24" viewBox="0 0 23.66 24">
  <g id="Group_5967" data-name="Group 5967" transform="translate(-1700.17 -948)">
    <g id="school" transform="translate(1700.17 948)">
      <path id="Path_12416" data-name="Path 12416" d="M.688,6.752,1.967,7.5a2.091,2.091,0,0,1,1.094-.48l9.04-1.11a.421.421,0,1,1,.1.835L3.163,7.859a1.25,1.25,0,0,0-.391.118L12.148,13.5l11.46-6.752L12.148,0Zm0,0" transform="translate(0.052 0)" fill="#b6bdc4"/>
      <path id="Path_12417" data-name="Path 12417" d="M11.68,13.561,3.48,8.73v4.38c0,1.158,1,2.284,2.747,3.089a13.835,13.835,0,0,0,5.667,1.118A13.828,13.828,0,0,0,17.561,16.2c1.746-.8,2.747-1.931,2.747-3.089V8.73l-8.2,4.831a.421.421,0,0,1-.427,0Zm0,0" transform="translate(0.306 0.794)" fill="#b6bdc4"/>
      <path id="Path_12418" data-name="Path 12418" d="M2.534,21.614l-.841-4.628L.009,22.456Zm0,0" transform="translate(-0.009 1.544)" fill="#b6bdc4"/>
      <path id="Path_12419" data-name="Path 12419" d="M2.919,16.644a1.258,1.258,0,0,0-.841-1.185V8.486a1.279,1.279,0,0,1,.715-1.134l-.8-.474a2.109,2.109,0,0,0-.524.668,2.083,2.083,0,0,0-.231.94v6.972a1.26,1.26,0,1,0,1.683,1.185Zm0,0" transform="translate(0.026 0.625)" fill="#b6bdc4"/>
    </g>
  </g>
</svg>
