<svg xmlns="http://www.w3.org/2000/svg" width="24.357" height="20.877" viewBox="0 0 24.357 20.877">
  <g id="Group_5831" data-name="Group 5831" transform="translate(-1816.822 -1034.562)">
    <g id="Group_5830" data-name="Group 5830" transform="translate(0.712 0.61)">
      <path id="Path_12701" data-name="Path 12701" d="M19,41.74H30.308V40H19Zm7.829-1.3h.87v.87h-.87Zm-1.74,0h.87v.87h-.87Zm-1.74,0h.87v.87h-.87Zm-1.74,0h.87v.87h-.87Zm-1.74,0h.87v.87h-.87Z" transform="translate(1803.634 1006.129)" fill="#b6bdc4"/>
      <path id="Path_12702" data-name="Path 12702" d="M27.175,23.909h1.74a1.3,1.3,0,0,1,1.3,1.261,3.045,3.045,0,1,0-4.341,0A1.3,1.3,0,0,1,27.175,23.909Zm.87-3.045a1.3,1.3,0,1,1-1.3,1.3A1.3,1.3,0,0,1,28.045,20.865Z" transform="translate(1800.244 1017.436)" fill="#b6bdc4"/>
      <path id="Path_12703" data-name="Path 12703" d="M28.357,54H19.223v.435a1.3,1.3,0,0,1-1.3,1.3h-3.48a1.3,1.3,0,0,1-1.3-1.3V54H4v1.3a1.3,1.3,0,0,0,1.3,1.3H27.052a1.3,1.3,0,0,0,1.3-1.3Z" transform="translate(1812.11 998.219)" fill="#b6bdc4"/>
      <path id="Path_12704" data-name="Path 12704" d="M31.175,31h-1.74a.435.435,0,0,0-.435.435v.572a3.006,3.006,0,0,0,2.61,0v-.572A.435.435,0,0,0,31.175,31Z" transform="translate(1797.984 1011.215)" fill="#b6bdc4"/>
      <path id="Path_12705" data-name="Path 12705" d="M27.435,54.87h3.48a.435.435,0,0,0,.435-.435V54H27v.435A.435.435,0,0,0,27.435,54.87Z" transform="translate(1799.114 998.219)" fill="#b6bdc4"/>
      <path id="Path_12706" data-name="Path 12706" d="M6,29.4H28.617V13.3a1.3,1.3,0,0,0-1.3-1.3H7.3A1.3,1.3,0,0,0,6,13.3ZM6.87,13.3A.435.435,0,0,1,7.3,12.87H27.312a.435.435,0,0,1,.435.435V28.093a.435.435,0,0,1-.435.435H7.3a.435.435,0,0,1-.435-.435Z" transform="translate(1810.98 1021.951)" fill="#b6bdc4"/>
    </g>
    <path id="Path_12707" data-name="Path 12707" d="M29.267,16H10V30.013H29.267Zm-9.634.876a3.941,3.941,0,1,1-3.941,3.941A3.941,3.941,0,0,1,19.634,16.876ZM26.2,28.7a.438.438,0,0,1-.438.438H13.5a.438.438,0,0,1-.438-.438V26.072a.438.438,0,0,1,.438-.438H25.764a.438.438,0,0,1,.438.438Z" transform="translate(1809.366 1020.152)" fill="#b6bdc4"/>
  </g>
</svg>
