<svg xmlns="http://www.w3.org/2000/svg" width="24" height="21.466" viewBox="0 0 24 21.466">
  <g id="Group_5964" data-name="Group 5964" transform="translate(-1701 -788.267)">
    <g id="family" transform="translate(1701 788.267)">
      <g id="Group_4926" data-name="Group 4926" transform="translate(0 10.534)">
        <g id="Group_4925" data-name="Group 4925">
          <path id="Path_12433" data-name="Path 12433" d="M9.026,11.257c0-.057,0-.113.005-.17a1.967,1.967,0,0,0-.989-.27H2.578a2.036,2.036,0,0,0-2,1.88L0,21.749H7.922V16.336a2.916,2.916,0,0,1,2.163-2.813A2.953,2.953,0,0,1,9.026,11.257Z" transform="translate(0 -10.818)" fill="#b6bdc4"/>
        </g>
      </g>
      <g id="Group_4928" data-name="Group 4928" transform="translate(2.705 1.92)">
        <g id="Group_4927" data-name="Group 4927">
          <path id="Path_12434" data-name="Path 12434" d="M5.085,2.922A2.608,2.608,0,0,0,2.479,5.527v4.516H7.69V5.527A2.608,2.608,0,0,0,5.085,2.922Z" transform="translate(-2.479 -2.922)" fill="#b6bdc4"/>
        </g>
      </g>
      <g id="Group_4930" data-name="Group 4930" transform="translate(13.687 7.227)">
        <g id="Group_4929" data-name="Group 4929">
          <path id="Path_12435" data-name="Path 12435" d="M22.306,8.41a1.989,1.989,0,0,0-1.454-.623H14.437a2.012,2.012,0,0,0-1.89,1.329,2.953,2.953,0,0,1,.2,4.682,2.916,2.916,0,0,1,2.163,2.813v5.414h7.952l0-12.132A1.989,1.989,0,0,0,22.306,8.41Z" transform="translate(-12.546 -7.787)" fill="#b6bdc4"/>
        </g>
      </g>
      <g id="Group_4932" data-name="Group 4932" transform="translate(15.801)">
        <g id="Group_4931" data-name="Group 4931">
          <path id="Path_12436" data-name="Path 12436" d="M17.468,1.162a2.984,2.984,0,1,0,2.984,2.984A2.988,2.988,0,0,0,17.468,1.162Z" transform="translate(-14.484 -1.162)" fill="#b6bdc4"/>
        </g>
      </g>
      <g id="Group_4934" data-name="Group 4934" transform="translate(8.862 14.082)">
        <g id="Group_4933" data-name="Group 4933">
          <path id="Path_12437" data-name="Path 12437" d="M12.4,14.07h-2.3a1.972,1.972,0,0,0-1.97,1.97v5.414h6.245V16.04A1.972,1.972,0,0,0,12.4,14.07Z" transform="translate(-8.124 -14.07)" fill="#b6bdc4"/>
        </g>
      </g>
      <g id="Group_4936" data-name="Group 4936" transform="translate(9.967 8.956)">
        <g id="Group_4935" data-name="Group 4935">
          <path id="Path_12438" data-name="Path 12438" d="M11.154,9.371a2.017,2.017,0,1,0,2.018,2.017A2.02,2.02,0,0,0,11.154,9.371Z" transform="translate(-9.136 -9.371)" fill="#b6bdc4"/>
        </g>
      </g>
    </g>
  </g>
</svg>
