<svg xmlns="http://www.w3.org/2000/svg" width="24.565" height="16.157" viewBox="0 0 24.565 16.157">
  <g id="Group_5970" data-name="Group 5970" transform="translate(-1701.808 -831.921)">
    <g id="identification" transform="translate(1701 831.39)">
      <path id="Path_12430" data-name="Path 12430" d="M22.748,0H1.818A1.749,1.749,0,0,0,0,1.666V14.49a1.749,1.749,0,0,0,1.818,1.666h20.93a1.749,1.749,0,0,0,1.818-1.666V1.666A1.749,1.749,0,0,0,22.748,0ZM6.962,2.812A2.575,2.575,0,0,1,9.639,5.271,2.576,2.576,0,0,1,6.957,7.725,2.575,2.575,0,0,1,4.28,5.266,2.582,2.582,0,0,1,6.962,2.812Zm3.823,10.532H3.139a.4.4,0,0,1-.273-.1.337.337,0,0,1-.112-.25,3.869,3.869,0,0,1,1.228-2.858,4.462,4.462,0,0,1,5.96,0,3.869,3.869,0,0,1,1.228,2.858.337.337,0,0,1-.112.25.4.4,0,0,1-.273.1Zm10.608-1.681H14.976a.355.355,0,1,1,0-.707h6.417a.355.355,0,1,1,0,.707Zm0-3.231H14.976a.355.355,0,1,1,0-.707h6.417a.355.355,0,1,1,0,.707Zm0-3.231H14.976a.355.355,0,1,1,0-.707h6.417a.355.355,0,1,1,0,.707Zm0,0" transform="translate(0.808 0.532)" fill="#b6bdc4"/>
      <path id="Path_12431" data-name="Path 12431" d="M8.346,5.19A1.837,1.837,0,0,1,6.435,6.942,1.837,1.837,0,0,1,4.523,5.19,1.837,1.837,0,0,1,6.435,3.438,1.837,1.837,0,0,1,8.346,5.19Zm0,0" transform="translate(1.336 0.613)" fill="#b6bdc4"/>
      <path id="Path_12432" data-name="Path 12432" d="M6.592,9.476a3.521,3.521,0,0,0-2.429.929,3.19,3.19,0,0,0-.991,2.01h6.841a3.177,3.177,0,0,0-.991-2.01,3.512,3.512,0,0,0-2.429-.929Zm0,0" transform="translate(1.178 0.755)" fill="#b6bdc4"/>
    </g>
  </g>
</svg>
