<svg xmlns="http://www.w3.org/2000/svg" width="21.052" height="24" viewBox="0 0 21.052 24">
  <g id="Group_5968" data-name="Group 5968" transform="translate(-1696.474 -712)">
    <g id="helmet" transform="translate(1696.474 712)">
      <g id="Group_4938" data-name="Group 4938" transform="translate(0 10.641)">
        <g id="Group_4937" data-name="Group 4937">
          <path id="Path_12448" data-name="Path 12448" d="M22.4,9.754H1.351v5.865H3.584a10.6,10.6,0,0,0,.671,1.832,7.737,7.737,0,0,0,5.127,4.332v1.33h4.988V21.784A7.737,7.737,0,0,0,19.5,17.452a10.6,10.6,0,0,0,.671-1.832H22.4V9.754ZM18.23,16.845a6.308,6.308,0,0,1-3.859,3.476v-.8H9.383v.8a6.3,6.3,0,0,1-3.839-3.436A9.408,9.408,0,0,1,4.7,14.023l.19-.376H18.863l.191.377A9.328,9.328,0,0,1,18.23,16.845Z" transform="translate(-1.351 -9.754)" fill="#b6bdc4"/>
        </g>
      </g>
      <g id="Group_4940" data-name="Group 4940" transform="translate(1.019)">
        <g id="Group_4939" data-name="Group 4939">
          <path id="Path_12449" data-name="Path 12449" d="M18.624,2.6A9.047,9.047,0,0,0,11.792,0,9.047,9.047,0,0,0,4.961,2.6,10.851,10.851,0,0,0,2.285,9.234H21.3A10.851,10.851,0,0,0,18.624,2.6ZM12.916,8.1l-1.124-.591L10.669,8.1l.215-1.251-.909-.886,1.256-.182.562-1.138.562,1.138,1.256.182-.909.886Z" transform="translate(-2.285)" fill="#b6bdc4"/>
        </g>
      </g>
    </g>
  </g>
</svg>
