<svg xmlns="http://www.w3.org/2000/svg" width="22.968" height="16.795" viewBox="0 0 22.968 16.795">
  <g id="Group_5829" data-name="Group 5829" transform="translate(-1817.031 -969.72)">
    <g id="Group_5568" data-name="Group 5568" transform="translate(1817.031 977.566)">
      <path id="Path_12671" data-name="Path 12671" d="M8.224,235.11A5.113,5.113,0,0,0,0,239.175v3.158a.67.67,0,0,0,.67.67h5.4v-3.23A6.134,6.134,0,0,1,8.224,235.11Z" transform="translate(0 -234.055)" fill="#b6bdc4"/>
    </g>
    <g id="Group_5569" data-name="Group 5569" transform="translate(1818.658 969.72)">
      <path id="Path_12672" data-name="Path 12672" d="M38.32,73.054a3.493,3.493,0,1,0-3.493-3.493A3.493,3.493,0,0,0,38.32,73.054Z" transform="translate(-34.827 -66.068)" fill="#b6bdc4"/>
    </g>
    <g id="Group_5570" data-name="Group 5570" transform="translate(1824.635 978.666)">
      <path id="Path_12673" data-name="Path 12673" d="M167.4,257.581a4.62,4.62,0,0,0-4.619,4.619v2.56a.67.67,0,0,0,.67.67h5.307v-2.746a5.441,5.441,0,0,1,1.7-3.945A4.6,4.6,0,0,0,167.4,257.581Z" transform="translate(-162.776 -257.581)" fill="#b6bdc4"/>
    </g>
    <g id="Group_5571" data-name="Group 5571" transform="translate(1826.103 971.585)">
      <path id="Path_12674" data-name="Path 12674" d="M195.647,111.812a3.148,3.148,0,1,0-1.445-2.643A3.13,3.13,0,0,0,195.647,111.812Z" transform="translate(-194.202 -106.017)" fill="#b6bdc4"/>
    </g>
    <g id="Group_5572" data-name="Group 5572" transform="translate(1832.142 979.841)">
      <path id="Path_12675" data-name="Path 12675" d="M327.418,282.733a3.928,3.928,0,0,0-3.928,3.928v2.076a.67.67,0,0,0,.67.67h6.516a.67.67,0,0,0,.67-.67v-2.076A3.928,3.928,0,0,0,327.418,282.733Z" transform="translate(-323.49 -282.733)" fill="#b6bdc4"/>
    </g>
    <g id="Group_5573" data-name="Group 5573" transform="translate(1833.391 973.819)">
      <path id="Path_12676" data-name="Path 12676" d="M351.214,158.595a2.67,2.67,0,1,0-1-2.076A2.655,2.655,0,0,0,351.214,158.595Z" transform="translate(-350.21 -153.839)" fill="#b6bdc4"/>
    </g>
  </g>
</svg>
