<svg xmlns="http://www.w3.org/2000/svg" width="26" height="26.072" viewBox="0 0 26 26.072">
  <g id="_3319129" data-name="3319129" transform="translate(-578.929 -46.73)">
    <path id="Path_12502" data-name="Path 12502" d="M108.786,134.8c-.593-.453-.6-.884,0-1.4Z" transform="translate(473.145 -78.517)" fill="#b6bdc4"/>
    <path id="Path_12504" data-name="Path 12504" d="M109.053,200.57v1.256l-.14.07c-.116-.221-.314-.442-.314-.663a2.11,2.11,0,0,1,.279-.732Z" transform="translate(472.913 -137.816)" fill="#b6bdc4"/>
    <path id="Path_12505" data-name="Path 12505" d="M108.821,233.8v1.384C108.2,234.823,108.181,234.3,108.821,233.8Z" transform="translate(473.135 -167.244)" fill="#b6bdc4"/>
    <path id="Path_12532" data-name="Path 12532" d="M130.8,155.837c.374-.852.732-1.687,1.108-2.515a3,3,0,0,0-.171-2.99,3.8,3.8,0,0,0-.333-.544,3.762,3.762,0,0,1-.709-3.264c.043-.362.188-.444.515-.441,1.259.013,2.518-.009,3.776.02a.95.95,0,0,1,.621.313q1.528,1.789,3,3.622a2.113,2.113,0,0,1,.374.824c.128.545.2,1.1.286,1.658a2.573,2.573,0,0,0,2.1,2.39,2.9,2.9,0,0,0,3.094-1.481c.7-1.511,1.253-3.082,1.849-4.636a1.829,1.829,0,0,0,.019-.691c-.049-1.2-.1-2.4-.162-3.6-.016-.307.008-.555.394-.553a3.635,3.635,0,0,0,2.544-1.2c.516-.488,1.092-.915,1.651-1.379a12.767,12.767,0,0,1-3.929,13.933A12.937,12.937,0,0,1,130.8,155.837Z" transform="translate(453.449 -85.561)" fill="#b6bdc4"/>
    <path id="Path_12533" data-name="Path 12533" d="M189.37,84.171h1.664v-4.4c.71-.072,1.361-.13,2.011-.209a1.3,1.3,0,0,0,.652-.178c.952-.814,1.878-1.67,2.842-2.537-.526-.648-1.02-1.266-1.524-1.877-.971-1.178-1.02-1.635-.3-2.985.116-.22.242-.436.381-.689a11.737,11.737,0,0,1,3.693,2.185,13.4,13.4,0,0,1,3.139,3.922c.193.356.192.588-.165.814a3.88,3.88,0,0,0-.667.559,5.672,5.672,0,0,1-4.169,1.952c-.367,0-.438.194-.421.523.078,1.548.154,3.1.2,4.651a3.333,3.333,0,0,1-.183,1.18c-.394,1.113-.8,2.223-1.279,3.3a2.168,2.168,0,0,1-.851.96c-.8.448-1.661.056-1.652-.841.027-2.485-1.573-4.058-2.988-5.755-.1-.116-.2-.233-.3-.357A1.326,1.326,0,0,1,189.37,84.171Z" transform="translate(401.534 -23.638)" fill="#b6bdc4"/>
    <path id="Path_12534" data-name="Path 12534" d="M98.893,63.88c0,.884.023,1.734-.024,2.579-.007.136-.315.339-.5.367a10.175,10.175,0,0,0-8.655,8.636q-.035.233-.08.457a.527.527,0,0,1-.073.13H86.8C86.739,70.665,91.629,64.281,98.893,63.88Z" transform="translate(492.175 -17.08)" fill="#b6bdc4"/>
    <path id="Path_12535" data-name="Path 12535" d="M86.39,182.23h3.69c-.035.615-.033,1.194-.109,1.763a2.192,2.192,0,0,0,.413,1.685c.349.483.623,1.022.942,1.53a1.549,1.549,0,0,1,.116,1.546q-.471,1.057-.936,2.117C88.594,189.9,86.114,184.681,86.39,182.23Z" transform="translate(492.56 -121.67)" fill="#b6bdc4"/>
    <path id="Path_12536" data-name="Path 12536" d="M124.91,110.228a8.409,8.409,0,0,1,7.648-7.708c0,.822.01,1.643-.015,2.463,0,.083-.207.2-.335.233a5.94,5.94,0,0,0-4.62,4.692c-.03.124-.2.3-.315.308C126.487,110.241,125.7,110.228,124.91,110.228Z" transform="translate(458.5 -51.228)" fill="#b6bdc4"/>
    <path id="Path_12537" data-name="Path 12537" d="M206.758,63.682c-1.644,2.266-1.056,4.153.717,5.813a3.27,3.27,0,0,1-3.325,1.574V63.28Z" transform="translate(388.473 -16.55)" fill="#b6bdc4"/>
    <path id="Path_12538" data-name="Path 12538" d="M164.8,139.18v3.4h-3.38A4.118,4.118,0,0,1,164.8,139.18Z" transform="translate(426.234 -83.625)" fill="#b6bdc4"/>
  </g>
</svg>
