<svg id="certificate" xmlns="http://www.w3.org/2000/svg" width="26" height="26" viewBox="0 0 26 26">
  <ellipse id="Ellipse_128" data-name="Ellipse 128" cx="2.539" cy="2.539" rx="2.539" ry="2.539" transform="translate(10.486 15.057)" fill="#b6bdc4"/>
  <path id="Path_12539" data-name="Path 12539" d="M25.238,0H.762A.762.762,0,0,0,0,.762v18.28a.762.762,0,0,0,.762.762H9.618a4.061,4.061,0,1,1,6.816,0h8.805A.762.762,0,0,0,26,19.042V.762A.762.762,0,0,0,25.238,0ZM9.953,3.1h6.094a.762.762,0,1,1,0,1.523H9.953a.762.762,0,1,1,0-1.523Zm10.664,9.14H5.383a.762.762,0,1,1,0-1.523H20.617a.762.762,0,1,1,0,1.523Zm0-3.047H5.383a.762.762,0,1,1,0-1.523H20.617a.762.762,0,1,1,0,1.523Z" fill="#b6bdc4"/>
  <path id="Path_12540" data-name="Path 12540" d="M196.749,398.536v4.943a.762.762,0,0,0,1.183.635l1.877-1.244,1.877,1.244a.763.763,0,0,0,1.183-.635v-5A4.055,4.055,0,0,1,196.749,398.536Z" transform="translate(-186.758 -378.242)" fill="#b6bdc4"/>
</svg>
