<svg xmlns="http://www.w3.org/2000/svg" width="26" height="25.912" viewBox="0 0 26 25.912">
  <g id="book" transform="translate(0 -0.867)">
    <path id="Path_12541" data-name="Path 12541" d="M433.094,29.49H429.8a.484.484,0,0,0-.478.49V31.39h4.246V29.98A.484.484,0,0,0,433.094,29.49Z" transform="translate(-407.572 -27.173)" fill="#b6bdc4"/>
    <path id="Path_12542" data-name="Path 12542" d="M315.262,75.652h-3.289a.484.484,0,0,0-.478.49V78.6h4.246V76.142A.484.484,0,0,0,315.262,75.652Z" transform="translate(-295.711 -70.996)" fill="#b6bdc4"/>
    <path id="Path_12543" data-name="Path 12543" d="M429.325,101.832h4.246V119h-4.246Z" transform="translate(-407.571 -95.849)" fill="#b6bdc4"/>
    <path id="Path_12544" data-name="Path 12544" d="M311.493,168.628h4.246V186.04h-4.246Z" transform="translate(-295.71 -159.261)" fill="#b6bdc4"/>
    <path id="Path_12545" data-name="Path 12545" d="M429.325,475.5h4.246v1.862h-4.246Z" transform="translate(-407.571 -450.587)" fill="#b6bdc4"/>
    <path id="Path_12546" data-name="Path 12546" d="M4.948,97.062H.478a.484.484,0,0,0-.478.49V99.4H5.426V97.552a.484.484,0,0,0-.478-.49Z" transform="translate(0 -91.321)" fill="#b6bdc4"/>
    <path id="Path_12547" data-name="Path 12547" d="M0,178.007H5.426v16.936H0Z" transform="translate(0 -168.164)" fill="#b6bdc4"/>
    <path id="Path_12548" data-name="Path 12548" d="M141.12,431.634h6.908v4.085H141.12Z" transform="translate(-133.969 -408.94)" fill="#b6bdc4"/>
    <path id="Path_12549" data-name="Path 12549" d="M141.12,116.749h6.908v14.19H141.12Z" transform="translate(-133.969 -110.01)" fill="#b6bdc4"/>
    <path id="Path_12550" data-name="Path 12550" d="M147.55.867H141.6a.484.484,0,0,0-.478.49V4.973h6.908V1.357a.484.484,0,0,0-.478-.49Z" transform="translate(-133.969)" fill="#b6bdc4"/>
  </g>
</svg>
