<svg id="university_1_" data-name="university (1)" xmlns="http://www.w3.org/2000/svg" width="26" height="26.102" viewBox="0 0 26 26.102">
  <path id="Path_12496" data-name="Path 12496" d="M214.588,436.078V432H210v4.078" transform="translate(-199.294 -409.976)" fill="#b6bdc4"/>
  <path id="Path_12497" data-name="Path 12497" d="M133,0H120.765A.765.765,0,0,0,120,.765V26.1h3.059V21.259a.765.765,0,0,1,.765-.765h6.118a.765.765,0,0,1,.765.765V26.1h3.059V.765A.765.765,0,0,0,133,0Zm-9.176,18.2Zm0-4.078Zm3.059,4.078Zm0-4.078Zm3.059,4.078Zm0-4.078Zm-3.059-4.18a3.824,3.824,0,1,1,3.824-3.824A3.828,3.828,0,0,1,126.882,9.941Zm0,0" transform="translate(-113.882)" fill="#b6bdc4"/>
  <path id="Path_12498" data-name="Path 12498" d="M212.294,75a2.294,2.294,0,1,0,2.294,2.294A2.3,2.3,0,0,0,212.294,75Zm.765,2.294a.765.765,0,1,1-1.529,0v-1.02a.765.765,0,1,1,1.529,0Zm0,0" transform="translate(-199.294 -71.176)" fill="#b6bdc4"/>
  <path id="Path_12499" data-name="Path 12499" d="M424.165,164.813,420,162.73v17.806h3.824a.765.765,0,0,0,.765-.765V165.5a.765.765,0,0,0-.423-.684Zm-1.107,11.9a.765.765,0,0,1-1.529,0v-1.02a.765.765,0,1,1,1.529,0Zm0-4.078a.765.765,0,1,1-1.529,0v-1.02a.765.765,0,1,1,1.529,0Zm0-4.078a.765.765,0,0,1-1.529,0v-1.02a.765.765,0,1,1,1.529,0Zm0,0" transform="translate(-398.588 -154.434)" fill="#b6bdc4"/>
  <path id="Path_12500" data-name="Path 12500" d="M.423,164.813A.765.765,0,0,0,0,165.5v14.275a.765.765,0,0,0,.765.765H4.588V162.73Zm2.636,11.9a.765.765,0,1,1-1.529,0v-1.02a.765.765,0,1,1,1.529,0Zm0-4.078a.765.765,0,1,1-1.529,0v-1.02a.765.765,0,1,1,1.529,0Zm0-4.078a.765.765,0,1,1-1.529,0v-1.02a.765.765,0,0,1,1.529,0Zm0,0" transform="translate(0 -154.434)" fill="#b6bdc4"/>
</svg>
