<svg xmlns="http://www.w3.org/2000/svg" width="36.963" height="47.686" viewBox="0 0 36.963 47.686">
  <g id="education_icon" data-name="education icon" transform="translate(-564.565 -857.823)">
    <g id="driving-license_1_" data-name="driving-license (1)" transform="translate(564.565 907.22) rotate(-90)">
      <path id="Path_12601" data-name="Path 12601" d="M43.494,61H4.191A4.233,4.233,0,0,0,0,65.265V93.7a4.233,4.233,0,0,0,4.191,4.265h39.3A4.233,4.233,0,0,0,47.686,93.7V65.265A4.233,4.233,0,0,0,43.494,61Zm2.143,32.7a1.992,1.992,0,0,1-2.143,2.1l-39.3.049A2.151,2.151,0,0,1,2.107,93.7V65.265a2.271,2.271,0,0,1,2.084-2.289h39.3a2.165,2.165,0,0,1,2.143,2.289Z" transform="translate(1.711 -61)" fill="#8f8f8f"/>
    </g>
    <g id="Group_5923" data-name="Group 5923" transform="translate(-43 1)">
      <g id="Group_5921" data-name="Group 5921" transform="translate(657.316 861)">
        <g id="curriculum">
          <g id="Group_5461" data-name="Group 5461" transform="translate(0)">
            <g id="Group_5460" data-name="Group 5460">
              <path id="Path_12624" data-name="Path 12624" d="M97.456,353.129H70.623a.685.685,0,0,0,0,1.359H97.456a.607.607,0,0,0,.6-.679A.643.643,0,0,0,97.456,353.129Z" transform="translate(-115.288 -326.039)" fill="#8f8f8f"/>
              <path id="Path_12625" data-name="Path 12625" d="M97.456,414.871H70.623a.685.685,0,0,0,0,1.359H97.456a.607.607,0,0,0,.6-.679A.643.643,0,0,0,97.456,414.871Z" transform="translate(-115.288 -384.229)" fill="#8f8f8f"/>
              <path id="Path_12810" data-name="Path 12810" d="M97.456,414.871H70.623a.685.685,0,0,0,0,1.359H97.456a.607.607,0,0,0,.6-.679A.643.643,0,0,0,97.456,414.871Z" transform="translate(-115.288 -380.229)" fill="#8f8f8f"/>
              <path id="Path_12629" data-name="Path 12629" d="M337.845,111.435h-8.791a.685.685,0,1,0,0,1.359h8.791a.685.685,0,1,0,0-1.359Z" transform="translate(-355.978 -102.255)" fill="#8f8f8f"/>
              <path id="Path_12808" data-name="Path 12808" d="M337.845,111.435h-8.791a.685.685,0,1,0,0,1.359h8.791a.685.685,0,1,0,0-1.359Z" transform="translate(-355.978 -99.255)" fill="#8f8f8f"/>
              <path id="Path_12809" data-name="Path 12809" d="M337.845,111.435h-8.791a.685.685,0,1,0,0,1.359h8.791a.685.685,0,1,0,0-1.359Z" transform="translate(-355.978 -96.255)" fill="#8f8f8f"/>
              <path id="Path_12811" data-name="Path 12811" d="M337.845,111.435h-8.791a.685.685,0,1,0,0,1.359h8.791a.685.685,0,1,0,0-1.359Z" transform="translate(-355.978 -93.255)" fill="#8f8f8f"/>
            </g>
          </g>
        </g>
      </g>
      <g id="Group_5922" data-name="Group 5922" transform="translate(-47.425 -1.559)">
        <g id="Group_4945" data-name="Group 4945" transform="translate(660.964 875.464)">
          <path id="Path_12452" data-name="Path 12452" d="M16.637,13.759a5.849,5.849,0,0,1-2.32.577,6.7,6.7,0,0,1-2.426-.577c-2.136,0-3.875,1.355-3.875,3.02v6.116a.706.706,0,0,0,.775.6H19.737a.706.706,0,0,0,.775-.6V16.779C20.512,15.114,18.774,13.759,16.637,13.759Z" transform="translate(-8.017 -13.759)" fill="#8f8f8f" stroke="#8f8f8f" stroke-width="1.5"/>
        </g>
        <g id="Group_5911" data-name="Group 5911" transform="translate(663.981 870.683)">
          <g id="Group_4947" data-name="Group 4947" transform="translate(0 0)">
            <path id="Path_12453" data-name="Path 12453" d="M9.792,5.876a3.227,3.227,0,0,0,6.455,0,11.132,11.132,0,0,1-3.227.51C11.529,6.477,9.711,5.574,9.792,5.876Z" transform="translate(-9.789 -5.814)" fill="#8f8f8f" stroke="#8f8f8f" stroke-width="1.5"/>
          </g>
        </g>
        <g id="mortarboard_1_" data-name="mortarboard (1)" transform="translate(660.509 864.47)">
          <path id="Path_12803" data-name="Path 12803" d="M13.12,44.713l-6.3-2.222a.392.392,0,0,0-.261,0l-6.3,2.222a.392.392,0,0,0,0,.739l6.3,2.239a.392.392,0,0,0,.263,0l6.3-2.239a.392.392,0,0,0,0-.739Z" transform="translate(0 -42.468)" fill="#8f8f8f"/>
          <path id="Path_12804" data-name="Path 12804" d="M432.027,201.154v-3.42l-.784.279v3.141a.787.787,0,0,0,0,1.365v1.927a.392.392,0,1,0,.784,0v-1.927a.787.787,0,0,0,0-1.365Z" transform="translate(-419.587 -193.676)" fill="#8f8f8f"/>
          <path id="Path_12805" data-name="Path 12805" d="M109.379,223.739a1.174,1.174,0,0,1-.394-.068l-3.541-1.259v1.725c0,.422.44.779,1.309,1.061a9.242,9.242,0,0,0,5.252,0c.868-.282,1.309-.639,1.309-1.061v-1.725l-3.541,1.259A1.174,1.174,0,0,1,109.379,223.739Z" transform="translate(-102.688 -217.709)" fill="#8f8f8f"/>
        </g>
      </g>
    </g>
  </g>
</svg>
