<svg id="Outline" xmlns="http://www.w3.org/2000/svg" width="51.604" height="32.757" viewBox="0 0 51.604 32.757">
  <path id="Path_12566" data-name="Path 12566" d="M67.569,104.633h0a.981.981,0,0,0-.956-.633H16.992a.934.934,0,0,0-.992.862v21.551h1.985V105.724H65.62v22.413H16.992A.934.934,0,0,0,16,129v4.31a3.741,3.741,0,0,0,3.97,3.448H63.635a3.741,3.741,0,0,0,3.97-3.448v-22.08ZM65.62,133.309a1.87,1.87,0,0,1-1.985,1.724H19.97a1.87,1.87,0,0,1-1.985-1.724v-5.172H65.62v5.172Z" transform="translate(-16 -104)" fill="#8f8f8f"/>
  <path id="Path_12576" data-name="Path 12576" d="M208,192h9.924v1.985H208Z" transform="translate(-178.451 -181.084)" fill="#8f8f8f"/>
  <path id="Path_12577" data-name="Path 12577" d="M208,224h5.954v1.985H208Z" transform="translate(-178.451 -209.114)" fill="#8f8f8f"/>
  <path id="Path_12578" data-name="Path 12578" d="M208,256h9.924v1.985H208Z" transform="translate(-178.451 -237.145)" fill="#8f8f8f"/>
  <path id="Path_12579" data-name="Path 12579" d="M208,288h9.924v1.985H208Z" transform="translate(-178.451 -265.175)" fill="#8f8f8f"/>
  <path id="Path_12580" data-name="Path 12580" d="M328,192h5.954v1.985H328Z" transform="translate(-287.297 -181.084)" fill="#8f8f8f"/>
  <path id="Path_12581" data-name="Path 12581" d="M328,224h5.954v1.985H328Z" transform="translate(-287.297 -209.114)" fill="#8f8f8f"/>
  <path id="Path_12582" data-name="Path 12582" d="M328,256h5.954v1.985H328Z" transform="translate(-287.297 -237.145)" fill="#8f8f8f"/>
  <path id="Path_12583" data-name="Path 12583" d="M328,288h5.954v1.985H328Z" transform="translate(-287.297 -265.175)" fill="#8f8f8f"/>
  <path id="Path_12584" data-name="Path 12584" d="M208,160h17.109v1.985H208Z" transform="translate(-178.451 -153.053)" fill="#8f8f8f"/>
  <path id="Path_12646" data-name="Path 12646" d="M208,160h17.109v1.985H208Z" transform="translate(-203.451 -153.053)" fill="#8f8f8f"/>
  <path id="Path_12647" data-name="Path 12647" d="M208,160h17.109v1.985H208Z" transform="translate(-203.451 -149.053)" fill="#8f8f8f"/>
  <path id="Path_12648" data-name="Path 12648" d="M208,160h17.109v1.985H208Z" transform="translate(-203.451 -145.053)" fill="#8f8f8f"/>
  <path id="Path_12649" data-name="Path 12649" d="M208,160h17.109v1.985H208Z" transform="translate(-203.451 -141.053)" fill="#8f8f8f"/>
  <path id="Path_12650" data-name="Path 12650" d="M208,160h17.109v1.985H208Z" transform="translate(-203.451 -137.053)" fill="#8f8f8f"/>
  <path id="Path_12600" data-name="Path 12600" d="M0,0H31.322V1.985H0Z" transform="translate(27.096 0.385) rotate(90)" fill="#8f8f8f"/>
</svg>
