<svg xmlns="http://www.w3.org/2000/svg" width="27.25" height="28.607" viewBox="0 0 27.25 28.607">
  <g id="حساب_بانکی_" data-name="حساب بانکی " transform="translate(-208.852 -1085.9)">
    <g id="Group_13199" data-name="Group 13199" transform="translate(195.828 901.619)">
      <g id="_3135788" data-name="3135788" transform="translate(17.649 184.381)">
        <g id="Group_12747" data-name="Group 12747" transform="translate(0 0)">
          <path id="Path_18821" data-name="Path 18821" d="M324.88,194.709h-7.918a.418.418,0,1,0,0,.832h7.918a.418.418,0,1,0,0-.832Z" transform="translate(-305.514 -183.906)" fill="#324456" stroke="#00445c" stroke-width="0.2"/>
          <path id="Path_18822" data-name="Path 18822" d="M324.88,239.922h-7.918a.418.418,0,1,0,0,.832h7.918a.418.418,0,1,0,0-.832Z" transform="translate(-305.514 -226.611)" fill="#324456" stroke="#00445c" stroke-width="0.2"/>
          <path id="Path_18824" data-name="Path 18824" d="M316.962,330.348a.418.418,0,1,0,0,.832h3.959a.418.418,0,1,0,0-.832Z" transform="translate(-305.514 -314.53)" fill="#324456" stroke="#00445c" stroke-width="0.2"/>
          <path id="Path_18825" data-name="Path 18825" d="M29.215,4.893,24.925.6A2.059,2.059,0,0,0,23.469,0H9.352A2.061,2.061,0,0,0,7.293,2.059L7.131,11.25a.416.416,0,1,0,.832,0l.163-9.191A1.228,1.228,0,0,1,9.352.832H23.469a1.225,1.225,0,0,1,.264.029V4.65a1.436,1.436,0,0,0,1.434,1.434h3.789a1.227,1.227,0,0,1,.029.264v20a1.228,1.228,0,0,1-1.227,1.227H9.352a1.228,1.228,0,0,1-1.227-1.227V25.015a.416.416,0,0,0-.832,0v1.334a2.061,2.061,0,0,0,2.059,2.059H27.759a2.061,2.061,0,0,0,2.059-2.059v-20a2.062,2.062,0,0,0-.6-1.456ZM24.566,4.65V1.421L28.4,5.252H25.168A.6.6,0,0,1,24.566,4.65Z" transform="translate(-7.293 0)" fill="#324456" stroke="#00445c" stroke-width="0.2"/>
          <path id="Path_18826" data-name="Path 18826" d="M159.605,48.663H151.35a.9.9,0,0,0-.895.895v1.595a.9.9,0,0,0,.895.895h8.255a.9.9,0,0,0,.895-.895V49.558A.9.9,0,0,0,159.605,48.663Zm.063,2.49a.063.063,0,0,1-.063.063H151.35a.063.063,0,0,1-.063-.063V49.558a.063.063,0,0,1,.063-.063h8.255a.063.063,0,0,1,.063.063v1.595Z" transform="translate(-147.851 -45.963)" fill="#324456" stroke="#00445c" stroke-width="0.2"/>
        </g>
      </g>
      <g id="_3358623" data-name="3358623" transform="translate(13.174 188.766)">
        <path id="Path_19385" data-name="Path 19385" d="M16.141,23.57c2.977,0,6.141-.923,6.141-2.632a.439.439,0,0,0-.877,0c0,.732-2,1.754-5.263,1.754s-5.263-1.022-5.263-1.754a.439.439,0,0,0-.877,0C10,22.647,13.163,23.57,16.141,23.57Z" transform="translate(-10 -4.537)" fill="#324456" stroke="#324456" stroke-width="0.3"/>
        <path id="Path_19386" data-name="Path 19386" d="M16.141,20.57c2.977,0,6.141-.923,6.141-2.632a.439.439,0,1,0-.877,0c0,.732-2,1.754-5.263,1.754s-5.263-1.022-5.263-1.754a.439.439,0,1,0-.877,0C10,19.647,13.163,20.57,16.141,20.57Z" transform="translate(-10 -4.168)" fill="#324456" stroke="#324456" stroke-width="0.3"/>
        <path id="Path_19387" data-name="Path 19387" d="M16.141,17.263c2.977,0,6.141-.923,6.141-2.632S19.118,12,16.141,12,10,12.923,10,14.632,13.163,17.263,16.141,17.263Zm0-4.386c3.262,0,5.263,1.022,5.263,1.754s-2,1.754-5.263,1.754-5.263-1.022-5.263-1.754S12.879,12.877,16.141,12.877Z" transform="translate(-10 -3.493)" fill="#324456" stroke="#324456" stroke-width="0.3"/>
        <path id="Path_19388" data-name="Path 19388" d="M23.439,20.641a.439.439,0,0,0,.439-.439V14.939a.439.439,0,0,0-.877,0V20.2A.439.439,0,0,0,23.439,20.641Z" transform="translate(-23 -3.8)" fill="#324456" stroke="#324456" stroke-width="0.3"/>
        <path id="Path_19389" data-name="Path 19389" d="M10.439,20.641a.439.439,0,0,0,.439-.439V14.939a.439.439,0,0,0-.877,0V20.2A.439.439,0,0,0,10.439,20.641Z" transform="translate(1.404 -3.8)" fill="#324456" stroke="#324456" stroke-width="0.3"/>
      </g>
    </g>
    <path id="Path_19398" data-name="Path 19398" d="M56.479,70.7h8.137a.479.479,0,1,0,0-.957H56.957v-.28l1.436-1.436.619.619a.479.479,0,0,0,.677,0l1.576-1.576.619.619a.479.479,0,0,0,.677,0l1.576-1.576v.28a.479.479,0,1,0,.957,0V64.957a.479.479,0,0,0-.479-.479H63.18a.479.479,0,0,0,0,.957h.28l-1.238,1.238-.619-.619a.479.479,0,0,0-.677,0l-1.576,1.576-.619-.619a.479.479,0,0,0-.677,0l-1.1,1.1V64.479a.479.479,0,0,0-.957,0v5.744A.479.479,0,0,0,56.479,70.7Z" transform="translate(168 1041)" fill="#324456" stroke="#fff" stroke-width="0.2"/>
  </g>
</svg>
