<svg xmlns="http://www.w3.org/2000/svg" width="27.352" height="28.607" viewBox="0 0 27.352 28.607">
  <g id="اطلاعات_آدرس" data-name="اطلاعات آدرس" transform="translate(-12.922 -184.281)">
    <g id="_3135788" data-name="3135788" transform="translate(17.649 184.381)">
      <g id="Group_12747" data-name="Group 12747" transform="translate(0 0)">
        <path id="Path_18821" data-name="Path 18821" d="M324.88,194.709h-7.918a.418.418,0,1,0,0,.832h7.918a.418.418,0,1,0,0-.832Z" transform="translate(-305.514 -183.906)" fill="#324456" stroke="#00445c" stroke-width="0.2"/>
        <path id="Path_18822" data-name="Path 18822" d="M324.88,239.922h-7.918a.418.418,0,1,0,0,.832h7.918a.418.418,0,1,0,0-.832Z" transform="translate(-305.514 -226.611)" fill="#324456" stroke="#00445c" stroke-width="0.2"/>
        <path id="Path_18823" data-name="Path 18823" d="M325.339,285.551a.439.439,0,0,0-.459-.416h-7.918a.418.418,0,1,0,0,.832h7.918A.439.439,0,0,0,325.339,285.551Z" transform="translate(-305.514 -269.315)" fill="#324456" stroke="#00445c" stroke-width="0.2"/>
        <path id="Path_18824" data-name="Path 18824" d="M316.962,330.348a.418.418,0,1,0,0,.832h3.959a.418.418,0,1,0,0-.832Z" transform="translate(-305.514 -312.02)" fill="#324456" stroke="#00445c" stroke-width="0.2"/>
        <path id="Path_18825" data-name="Path 18825" d="M29.215,4.893,24.925.6A2.059,2.059,0,0,0,23.469,0H9.352A2.061,2.061,0,0,0,7.293,2.059v4.26a.416.416,0,1,0,.832,0V2.059A1.228,1.228,0,0,1,9.352.832H23.469a1.225,1.225,0,0,1,.264.029V4.65a1.436,1.436,0,0,0,1.434,1.434h3.789a1.227,1.227,0,0,1,.029.264v20a1.228,1.228,0,0,1-1.227,1.227H9.352a1.228,1.228,0,0,1-1.227-1.227V25.015a.416.416,0,0,0-.832,0v1.334a2.061,2.061,0,0,0,2.059,2.059H27.759a2.061,2.061,0,0,0,2.059-2.059v-20a2.062,2.062,0,0,0-.6-1.456ZM24.566,4.65V1.421L28.4,5.252H25.168A.6.6,0,0,1,24.566,4.65Z" transform="translate(-7.293 0)" fill="#324456" stroke="#00445c" stroke-width="0.2"/>
        <path id="Path_18826" data-name="Path 18826" d="M159.605,48.663H151.35a.9.9,0,0,0-.895.895v1.595a.9.9,0,0,0,.895.895h8.255a.9.9,0,0,0,.895-.895V49.558A.9.9,0,0,0,159.605,48.663Zm.063,2.49a.063.063,0,0,1-.063.063H151.35a.063.063,0,0,1-.063-.063V49.558a.063.063,0,0,1,.063-.063h8.255a.063.063,0,0,1,.063.063v1.595Z" transform="translate(-147.851 -45.963)" fill="#324456" stroke="#00445c" stroke-width="0.2"/>
      </g>
    </g>
    <g id="_3523370" data-name="3523370" transform="translate(13.172 191.764)">
      <path id="Path_19007" data-name="Path 19007" d="M209.325,74.148a2.754,2.754,0,1,0-2.754-2.754A2.757,2.757,0,0,0,209.325,74.148Zm0-3.836a1.082,1.082,0,1,1-1.082,1.082A1.084,1.084,0,0,1,209.325,70.311Z" transform="translate(-202.731 -64.816)" fill="#324456" stroke="#fff" stroke-width="0.5"/>
      <path id="Path_19008" data-name="Path 19008" d="M144.243,0a6.6,6.6,0,0,0-6.594,6.594c.113,4.707,5.808,8.941,6.594,9.543.786-.6,6.481-4.835,6.594-9.543A6.6,6.6,0,0,0,144.243,0Zm0,14.011c-1.619-1.317-5-4.765-4.922-7.417a4.922,4.922,0,1,1,9.844,0C149.239,9.246,145.862,12.694,144.243,14.011Z" transform="translate(-137.649)" fill="#324456" stroke="#fff" stroke-width="0.5"/>
    </g>
  </g>
</svg>
