<svg xmlns="http://www.w3.org/2000/svg" width="27.723" height="27.725" viewBox="0 0 27.723 27.725">
  <g id="_631172" data-name="631172" transform="translate(-0.008)">
    <g id="Group_12856" data-name="Group 12856" transform="translate(12.332 18.08)">
      <g id="Group_12855" data-name="Group 12855">
        <path id="Path_19072" data-name="Path 19072" d="M229.023,333.891a1.408,1.408,0,1,0,1.408,1.408A1.409,1.409,0,0,0,229.023,333.891Zm0,1.733a.325.325,0,1,1,.325-.325A.325.325,0,0,1,229.023,335.624Z" transform="translate(-227.615 -333.891)" fill="#324456"/>
      </g>
    </g>
    <g id="Group_12858" data-name="Group 12858" transform="translate(17.161 16.127)">
      <g id="Group_12857" data-name="Group 12857">
        <path id="Path_19073" data-name="Path 19073" d="M317.732,297.978a.541.541,0,1,0,.159.383A.546.546,0,0,0,317.732,297.978Z" transform="translate(-316.808 -297.819)" fill="#324456"/>
      </g>
    </g>
    <g id="Group_12860" data-name="Group 12860" transform="translate(0.007 0)">
      <g id="Group_12859" data-name="Group 12859" transform="translate(0 0)">
        <path id="Path_19074" data-name="Path 19074" d="M25.023,7.8h-.584L16.8.159a.542.542,0,0,0-.766,0L14.079,2.116,6.253.019A.541.541,0,0,0,5.59.4L3.608,7.8H2.281A2.277,2.277,0,0,0,.007,10.071c0,.03,0,.06,0,.09s0,.03,0,.045V25.017a2.71,2.71,0,0,0,2.707,2.707H25.023a2.71,2.71,0,0,0,2.707-2.707V10.5A2.71,2.71,0,0,0,25.023,7.8ZM24.539,8.88h.484A1.626,1.626,0,0,1,26.648,10.5v4.34a1.285,1.285,0,0,1-1.283,1.283h-.558V13.97a2.71,2.71,0,0,0-2.651-2.706ZM14.624,3.1h0l1.795-1.795L23.5,8.388l-2.856,2.856h-.991l1.3-1.3a.542.542,0,0,0,0-.766,1.125,1.125,0,0,1,0-1.59.542.542,0,0,0,0-.766L17.979,3.859a.542.542,0,0,0-.766,0,1.125,1.125,0,0,1-1.59,0,.542.542,0,0,0-.766,0L7.472,11.245H6.481ZM13.03,9.21a2.588,2.588,0,0,0-2.524,2.034H9L15.288,4.96a2.215,2.215,0,0,0,2.261,0l2.3,2.3a2.215,2.215,0,0,0,0,2.261l-1.726,1.726H15.554A2.588,2.588,0,0,0,13.03,9.21Zm1.4,2.034H11.634a1.5,1.5,0,0,1,2.792,0Zm-8.517-.959L7.343,4.934A2.214,2.214,0,0,0,9.3,3.8l2.437.653L8.2,7.993ZM6.5,1.205,13.195,3l-.572.572-3.5-.938a.541.541,0,0,0-.663.383,1.124,1.124,0,0,1-1.377.795.541.541,0,0,0-.663.383L4.526,11.262H3.8ZM2.281,8.88H3.318L2.68,11.262h-.4a1.191,1.191,0,0,1,0-2.383ZM26.648,25.016a1.626,1.626,0,0,1-1.624,1.624h-.759a2.693,2.693,0,0,0,.542-1.624V22.842h.325a2.584,2.584,0,0,0,1.516-.49Zm0-4.774a1.518,1.518,0,0,1-1.516,1.516H13.76a2.274,2.274,0,1,1,0-4.548H15.4a.541.541,0,1,0,0-1.083H13.76a3.357,3.357,0,1,0,0,6.714h9.963v2.175a1.627,1.627,0,0,1-1.6,1.624H3.689v-6.1a.541.541,0,0,0-1.083,0v6.094a1.626,1.626,0,0,1-1.516-1.62V12.007a2.26,2.26,0,0,0,1.191.338H22.1a1.626,1.626,0,0,1,1.624,1.624v2.158H19.808a.541.541,0,0,0,0,1.083h5.556a2.351,2.351,0,0,0,1.283-.38v3.412Z" transform="translate(-0.007 0)" fill="#324456"/>
      </g>
    </g>
    <g id="Group_12862" data-name="Group 12862" transform="translate(2.606 17.89)">
      <g id="Group_12861" data-name="Group 12861">
        <path id="Path_19075" data-name="Path 19075" d="M48.93,330.547a.541.541,0,1,0,.159.383A.546.546,0,0,0,48.93,330.547Z" transform="translate(-48.006 -330.388)" fill="#324456"/>
      </g>
    </g>
  </g>
</svg>
