<svg xmlns="http://www.w3.org/2000/svg" width="28.428" height="22.531" viewBox="0 0 28.428 22.531">
  <g id="کارت_بانکی" data-name="کارت بانکی" transform="translate(0 -53.099)">
    <path id="Path_19380" data-name="Path 19380" d="M27.923,55.527a2.121,2.121,0,0,0-1.453-.749L6.451,53.107a2.135,2.135,0,0,0-2.3,1.943l-.4,3.779H2.135A2.138,2.138,0,0,0,0,60.964V73.5a2.138,2.138,0,0,0,2.135,2.135H22.224A2.138,2.138,0,0,0,24.359,73.5V71.463l.713.06q.09.007.179.007a2.138,2.138,0,0,0,2.126-1.958L28.42,57.084A2.121,2.121,0,0,0,27.923,55.527ZM2.135,59.939H22.224a1.026,1.026,0,0,1,1.025,1.025v1.142H1.11V60.964a1.026,1.026,0,0,1,1.025-1.025ZM1.11,63.216H23.249v2.3H1.11Zm21.114,11.3H2.135A1.026,1.026,0,0,1,1.11,73.5V66.63H23.249V73.5a1.026,1.026,0,0,1-1.025,1.025Zm5.09-17.529L26.271,69.48a1.026,1.026,0,0,1-1.106.936l-.805-.067V60.964a2.138,2.138,0,0,0-2.135-2.135H4.86l.391-3.667V55.15a1.026,1.026,0,0,1,1.106-.936l20.019,1.672a1.025,1.025,0,0,1,.936,1.106Z" transform="translate(0 0)" fill="#324456"/>
    <path id="Path_19381" data-name="Path 19381" d="M276.53,326.532h-5.344a.555.555,0,0,0-.555.555v3.486a.555.555,0,0,0,.555.555h5.344a.555.555,0,0,0,.555-.555v-3.486A.555.555,0,0,0,276.53,326.532Zm-.555,3.486h-4.233v-2.376h4.233Z" transform="translate(-255.605 -258.251)" fill="#324456"/>
  </g>
</svg>
