<svg xmlns="http://www.w3.org/2000/svg" width="26.826" height="26.827" viewBox="0 0 26.826 26.827">
  <g id="_631200_1_" data-name="631200 (1)" transform="translate(-0.007)">
    <g id="Group_13090" data-name="Group 13090" transform="translate(3.57 23.683)">
      <g id="Group_13089" data-name="Group 13089">
        <path id="Path_19245" data-name="Path 19245" d="M68.9,452.155a.524.524,0,1,0,.154.37A.527.527,0,0,0,68.9,452.155Z" transform="translate(-68.003 -452.001)" fill="#324456"/>
      </g>
    </g>
    <g id="Group_13092" data-name="Group 13092" transform="translate(23.714 9.432)">
      <g id="Group_13091" data-name="Group 13091">
        <path id="Path_19246" data-name="Path 19246" d="M453.348,180.162a.523.523,0,1,0,.154.37A.527.527,0,0,0,453.348,180.162Z" transform="translate(-452.454 -180.008)" fill="#324456"/>
      </g>
    </g>
    <g id="Group_13094" data-name="Group 13094" transform="translate(0.007)">
      <g id="Group_13093" data-name="Group 13093" transform="translate(0)">
        <path id="Path_19247" data-name="Path 19247" d="M26.68.153A.524.524,0,0,0,26.309,0H13.42A.524.524,0,0,0,12.9.525v1.5L7.929,3.354A.524.524,0,0,0,7.559,4L10.133,13.6,7.906,15.829a1.571,1.571,0,0,0-1.3-.686H1.579A1.574,1.574,0,0,0,.007,16.715v8.54a1.574,1.574,0,0,0,1.572,1.572h5.03a1.574,1.574,0,0,0,1.526-1.194l.623.543a2.64,2.64,0,0,0,1.735.65H26.309a.524.524,0,0,0,.524-.524V.524A.524.524,0,0,0,26.68.153ZM7.133,25.255a.525.525,0,0,1-.524.524H1.579a.525.525,0,0,1-.524-.524v-8.54a.525.525,0,0,1,.524-.524H3.57v6.036a.524.524,0,1,0,1.048,0V16.191H6.609a.525.525,0,0,1,.524.524v8.54ZM8.707,4.23,12.9,3.108V5.049l-.351.094a.524.524,0,0,0-.37.642,1.412,1.412,0,0,1-1,1.728.524.524,0,0,0-.37.643l2.042,7.563H11.8l-.542-2.12a.523.523,0,0,0-.088-.184ZM12.9,7.452v4.421L11.94,8.335A2.455,2.455,0,0,0,12.9,7.452Zm7.527,18.327H10.492a1.592,1.592,0,0,1-1.047-.392l-1.265-1.1V17.036l2.288-2.288.415,1.623a.524.524,0,0,0,.508.394h10.3a.734.734,0,0,1,0,1.467H16.413a.524.524,0,0,0,0,1.048h6.918a.734.734,0,1,1,0,1.467H16.413a.524.524,0,0,0,0,1.048h5.8a.734.734,0,1,1,0,1.467h-5.8a.524.524,0,1,0,0,1.048h4.01a.733.733,0,1,1,0,1.467Zm5.362,0H22.046a1.775,1.775,0,0,0,0-1.467h.164A1.78,1.78,0,0,0,23.8,21.733a1.78,1.78,0,0,0,.959-2.779V12.313a.524.524,0,1,0-1.048,0v5.962a1.782,1.782,0,0,0-.382-.042h-.017a1.78,1.78,0,0,0-1.623-2.515H20.85a2.508,2.508,0,1,0-1.97,0H16.015V5.756a2.466,2.466,0,0,0,1.879-1.879h3.941a2.466,2.466,0,0,0,1.879,1.879V7.385a.524.524,0,0,0,1.048,0v-2.1a.524.524,0,0,0-.524-.524,1.412,1.412,0,0,1-1.411-1.411A.524.524,0,0,0,22.3,2.83H17.426a.524.524,0,0,0-.524.524,1.412,1.412,0,0,1-1.411,1.411.524.524,0,0,0-.524.524v10.43H13.944V1.049H25.785ZM19.865,14.873a1.46,1.46,0,1,1,1.46-1.46A1.461,1.461,0,0,1,19.865,14.873Z" transform="translate(-0.007 0)" fill="#324456"/>
      </g>
    </g>
  </g>
</svg>
