<svg xmlns="http://www.w3.org/2000/svg" width="28.301" height="24.484" viewBox="0 0 28.301 24.484">
  <g id="گواهینامه" transform="translate(0.15 -34.785)">
    <path id="Path_19017" data-name="Path 19017" d="M27.043,34.936H.957A.958.958,0,0,0,0,35.893v3.368a.41.41,0,0,0,.82,0V35.893a.137.137,0,0,1,.137-.137H27.043a.137.137,0,0,1,.137.137v20a.137.137,0,0,1-.137.137H21.787v-.853a4.663,4.663,0,0,0,0-.82v-1.82l.039,0a1.255,1.255,0,0,0,1.057-.227,1.26,1.26,0,0,0,.226-1.058.622.622,0,0,1,.283-.7,1.062,1.062,0,0,0,0-1.858.623.623,0,0,1-.283-.7c.08-.917-.348-1.367-1.284-1.285a.619.619,0,0,1-.7-.284,1.06,1.06,0,0,0-1.857,0,.619.619,0,0,1-.7.284c-.918-.081-1.366.35-1.284,1.285a.623.623,0,0,1-.283.7,1.062,1.062,0,0,0,0,1.858.623.623,0,0,1,.283.7c-.086.983.383,1.363,1.323,1.281v3.494H.957a.137.137,0,0,1-.137-.137V41.34a.41.41,0,0,0-.82,0V55.894a.958.958,0,0,0,.957.957H18.615v1.857a.41.41,0,0,0,.583.372l1-.466,1,.466a.418.418,0,0,0,.583-.372V56.851h5.256A.958.958,0,0,0,28,55.894v-20A.958.958,0,0,0,27.043,34.936ZM18.5,51.724c-.411.036-.431.014-.395-.4a1.415,1.415,0,0,0-.576-1.4c-.333-.277-.333-.32,0-.6a1.415,1.415,0,0,0,.576-1.4c-.036-.41-.016-.432.395-.4a1.411,1.411,0,0,0,1.4-.578c.276-.333.318-.333.594,0a1.412,1.412,0,0,0,1.4.578c.411-.036.431-.014.395.4a1.415,1.415,0,0,0,.576,1.4c.333.277.333.32,0,.6a1.415,1.415,0,0,0-.576,1.4c.036.41.016.432-.395.4a1.714,1.714,0,0,0-.807.059,1.636,1.636,0,0,0-.593.519,1.517,1.517,0,0,1-.3.3,1.518,1.518,0,0,1-.3-.3,1.636,1.636,0,0,0-.593-.519,1.8,1.8,0,0,0-.807-.059Zm1.87,6.066a.41.41,0,0,0-.346,0l-.593.276v-5.05a.917.917,0,0,0,1.531,0v5.05Z" transform="translate(0 0)" fill="#324456" stroke="#324456" stroke-width="0.3"/>
    <path id="Path_19018" data-name="Path 19018" d="M90.387,129.141h14.139a.41.41,0,0,0,0-.82H90.387A.41.41,0,0,0,90.387,129.141Z" transform="translate(-85.068 -88.278)" fill="#324456" stroke="#324456" stroke-width="0.3"/>
    <path id="Path_19019" data-name="Path 19019" d="M108.16,174.349a.41.41,0,0,0-.41-.41H90.388a.41.41,0,0,0,0,.82H107.75A.41.41,0,0,0,108.16,174.349Z" transform="translate(-85.069 -131.401)" fill="#324456" stroke="#324456" stroke-width="0.3"/>
    <path id="Path_19020" data-name="Path 19020" d="M100.662,219.966a.41.41,0,0,0-.41-.41H90.388a.41.41,0,0,0,0,.82h9.864A.41.41,0,0,0,100.662,219.966Z" transform="translate(-85.069 -174.524)" fill="#324456" stroke="#324456" stroke-width="0.3"/>
    <path id="Path_19021" data-name="Path 19021" d="M98.008,270.154h-.671c-.43,0-.667-.114-.755-.571-.08-.416-.681-.363-.791,0-.049.161-.295.622-.51.584-.114-.02-.164-.2-.206-.287a3.5,3.5,0,0,1-.193-.553c-.216-.795-.259-1.625-.394-2.435-.078-.47-.794-.337-.806.109a12.551,12.551,0,0,1-.775,4.152c-.188.494.605.708.791.218a11.6,11.6,0,0,0,.47-1.572,4.159,4.159,0,0,0,.235.57.976.976,0,0,0,1.251.543,1.4,1.4,0,0,0,.5-.366,1.813,1.813,0,0,0,1.5.427l2.436-.005a.41.41,0,0,0,0-.82l-2.089,0Z" transform="translate(-87.8 -218.994)" fill="#324456" stroke="#324456" stroke-width="0.3"/>
    <path id="Path_19022" data-name="Path 19022" d="M341.7,277.49a1.6,1.6,0,1,0-1.6-1.6A1.6,1.6,0,0,0,341.7,277.49Zm0-2.384a.782.782,0,1,1-.782.782A.783.783,0,0,1,341.7,275.106Z" transform="translate(-321.495 -226.261)" fill="#324456" stroke="#324456" stroke-width="0.3"/>
  </g>
</svg>
