<svg xmlns="http://www.w3.org/2000/svg" width="30.2" height="35.343" viewBox="0 0 30.2 35.343">
  <g id="اطلاعات_تماس" data-name="اطلاعات تماس" transform="translate(-37.366 0.1)">
    <g id="Group_13193" data-name="Group 13193" transform="translate(37.466 0)">
      <path id="Path_19378" data-name="Path 19378" d="M151.337,149.234a7.868,7.868,0,1,0,7.868-7.868A7.878,7.878,0,0,0,151.337,149.234Zm7.868,6.839a6.821,6.821,0,0,1-5.013-2.193,5.077,5.077,0,0,1,3.089-3.755,3.17,3.17,0,0,0,3.848,0,5.077,5.077,0,0,1,3.089,3.755,6.821,6.821,0,0,1-5.013,2.193Zm-2.15-8.476a2.15,2.15,0,1,1,2.15,2.15A2.152,2.152,0,0,1,157.056,147.6Zm8.988,1.637a6.8,6.8,0,0,1-1.037,3.616,6.1,6.1,0,0,0-3.137-3.523,3.179,3.179,0,1,0-5.329,0,6.1,6.1,0,0,0-3.137,3.523,6.838,6.838,0,1,1,12.64-3.617Z" transform="translate(-143.521 -131.663)" fill="#324456" stroke="#324456" stroke-width="0.2"/>
      <path id="Path_19379" data-name="Path 19379" d="M67.466,8.786V4.321a1.957,1.957,0,0,0-1.954-1.954h-.749A2.8,2.8,0,0,0,62,0H40.265a2.8,2.8,0,0,0-2.8,2.8V32.344a2.8,2.8,0,0,0,2.8,2.8H62a2.8,2.8,0,0,0,2.8-2.8V30.586a.515.515,0,1,0-1.03,0v1.758A1.771,1.771,0,0,1,62,34.114H43.142V7.758a.515.515,0,1,0-1.03,0V34.114H40.265A1.771,1.771,0,0,1,38.5,32.344V2.8A1.771,1.771,0,0,1,40.265,1.03h1.847V5.35a.515.515,0,1,0,1.03,0V1.03H62A1.771,1.771,0,0,1,63.767,2.8V28.184a.515.515,0,0,0,1.03,0V25.429h.715a1.957,1.957,0,0,0,1.954-1.954V19.01a1.95,1.95,0,0,0-.634-1.44,1.949,1.949,0,0,0,.634-1.44V11.665a1.95,1.95,0,0,0-.634-1.44,1.949,1.949,0,0,0,.634-1.44Zm-1.03,14.689a.926.926,0,0,1-.925.925H64.8V18.085h.715a.926.926,0,0,1,.925.925Zm0-7.344a.926.926,0,0,1-.925.925H64.8V10.741h.715a.926.926,0,0,1,.925.925Zm0-7.344a.926.926,0,0,1-.925.925H64.8V3.4h.715a.926.926,0,0,1,.925.925Z" transform="translate(-37.466 0)" fill="#324456" stroke="#324456" stroke-width="0.2"/>
    </g>
  </g>
</svg>
