<svg xmlns="http://www.w3.org/2000/svg" width="27" height="22.645" viewBox="0 0 27 22.645">
  <g id="حساب_الکترونیکی" data-name="حساب الکترونیکی" transform="translate(-8 -48)">
    <path id="Path_19026" data-name="Path 19026" d="M33.476,48H9.524A1.526,1.526,0,0,0,8,49.524v19.6a1.526,1.526,0,0,0,1.524,1.524H33.476A1.526,1.526,0,0,0,35,69.121v-19.6A1.526,1.526,0,0,0,33.476,48Zm.653,21.121a.654.654,0,0,1-.653.653H9.524a.654.654,0,0,1-.653-.653V51.484H34.129Zm0-18.508H8.871V49.524a.654.654,0,0,1,.653-.653H33.476a.654.654,0,0,1,.653.653Z" fill="#324456"/>
    <path id="Path_19027" data-name="Path 19027" d="M32.435,72.871h.435a.435.435,0,1,0,0-.871h-.435a.435.435,0,1,0,0,.871Z" transform="translate(-22.694 -22.694)" fill="#324456"/>
    <path id="Path_19028" data-name="Path 19028" d="M64.435,72.871h.435a.435.435,0,0,0,0-.871h-.435a.435.435,0,1,0,0,.871Z" transform="translate(-52.952 -22.694)" fill="#324456"/>
    <path id="Path_19029" data-name="Path 19029" d="M96.435,72.871h.435a.435.435,0,1,0,0-.871h-.435a.435.435,0,1,0,0,.871Z" transform="translate(-83.21 -22.694)" fill="#324456"/>
    <path id="Path_19030" data-name="Path 19030" d="M75.919,184a3.919,3.919,0,1,0,3.919,3.919A3.919,3.919,0,0,0,75.919,184Zm0,6.968a3.034,3.034,0,0,1-1.738-.546,1.742,1.742,0,0,1,3.476,0A3.034,3.034,0,0,1,75.919,190.968Zm-.871-3.919a.871.871,0,1,1,.871.871A.871.871,0,0,1,75.048,187.048ZM78.4,189.7a2.6,2.6,0,0,0-.628-1.01,2.655,2.655,0,0,0-.584-.44,1.742,1.742,0,1,0-2.527,0,2.626,2.626,0,0,0-1.211,1.45,3.048,3.048,0,1,1,4.95,0Z" transform="translate(-60.516 -128.597)" fill="#324456"/>
    <path id="Path_19031" data-name="Path 19031" d="M107.919,336h-3.484a.436.436,0,0,0,0,.871h3.484a.436.436,0,0,0,0-.871Z" transform="translate(-90.774 -272.323)" fill="#324456"/>
    <path id="Path_19032" data-name="Path 19032" d="M122.177,360h-1.742a.435.435,0,1,0,0,.871h1.742a.435.435,0,1,0,0-.871Z" transform="translate(-105.903 -295.016)" fill="#324456"/>
    <path id="Path_19033" data-name="Path 19033" d="M266.887,216H256.435a.435.435,0,1,0,0,.871h10.452a.435.435,0,0,0,0-.871Z" transform="translate(-234.5 -158.855)" fill="#324456"/>
    <path id="Path_19034" data-name="Path 19034" d="M256.435,248.871h6.1a.435.435,0,0,0,0-.871h-6.1a.435.435,0,1,0,0,.871Z" transform="translate(-234.5 -189.113)" fill="#324456"/>
    <path id="Path_19035" data-name="Path 19035" d="M393.306,248.871a.435.435,0,0,0,0-.871h-.871a.435.435,0,0,0,0,.871Z" transform="translate(-363.097 -189.113)" fill="#324456"/>
    <path id="Path_19036" data-name="Path 19036" d="M266.887,280H256.435a.435.435,0,0,0-.435.435v2.177a.435.435,0,0,0,.435.435h10.452a.435.435,0,0,0,.435-.435v-2.177A.435.435,0,0,0,266.887,280Zm-.435,2.177h-9.581v-1.306h9.581Z" transform="translate(-234.5 -219.371)" fill="#324456"/>
  </g>
</svg>
