<svg xmlns="http://www.w3.org/2000/svg" width="34" height="32.316" viewBox="0 0 34 32.316">
  <g id="معافیت" transform="translate(17181 20705)">
    <g id="Group_13188" data-name="Group 13188" transform="translate(-17219 -21238)">
      <g id="_3939360" data-name="3939360" transform="translate(18.537 517.361)">
        <path id="Path_19367" data-name="Path 19367" d="M49.55,30.182a20.56,20.56,0,0,1-1.1-3.856,16.8,16.8,0,0,0-.487-1.973A12.33,12.33,0,0,0,44.9,19.544,13.43,13.43,0,0,0,35.209,16a13.43,13.43,0,0,0-9.69,3.544,12.33,12.33,0,0,0-3.065,4.808,16.759,16.759,0,0,0-.487,1.973,20.553,20.553,0,0,1-1.1,3.856,21.709,21.709,0,0,0-1.088,6.432l-.149.3a1.6,1.6,0,0,0,.3,1.844l1.055,1.055a.531.531,0,0,0,.122.09h0c.013.007.287.156.788.387v7.135a.533.533,0,0,0,.533.533h3.2a.533.533,0,0,0,.533-.533V41.853a31.977,31.977,0,0,0,18.108,0v5.569a.533.533,0,0,0,.533.533h3.2a.533.533,0,0,0,.533-.533V40.287c.5-.231.774-.379.788-.387h0a.532.532,0,0,0,.122-.091l1.055-1.055a1.6,1.6,0,0,0,.3-1.844l-.167-.335h.017A21.323,21.323,0,0,0,49.55,30.182Zm-27.694.4a21.466,21.466,0,0,0,1.154-4.038,15.738,15.738,0,0,1,.454-1.85,11.227,11.227,0,0,1,2.794-4.379,12.4,12.4,0,0,1,8.95-3.246,12.4,12.4,0,0,1,8.95,3.246,11.227,11.227,0,0,1,2.794,4.379,15.729,15.729,0,0,1,.454,1.85,21.472,21.472,0,0,0,1.154,4.038,14.9,14.9,0,0,1,.8,3.492l-.624-1.248A2.637,2.637,0,0,0,47.689,31.7c-4.2-2.4-10.434-2.923-12.48-2.923s-8.276.525-12.48,2.923a2.637,2.637,0,0,0-1.053,1.117l-.626,1.252a14.837,14.837,0,0,1,.806-3.5Zm1.1,6.851,1.386-2.773a.53.53,0,0,1,.24-.239c.13-.065.3-.146.5-.239V44.759H22.96Zm0,9.461V45.824h2.13v1.065ZM35.209,42.1a31.511,31.511,0,0,1-9.054-1.354V33.728a25.237,25.237,0,0,1,9.054-1.751,25.238,25.238,0,0,1,9.054,1.751v7.014A31.512,31.512,0,0,1,35.209,42.1Zm12.249,2.663h-2.13V34.178c.2.093.373.174.5.239a.53.53,0,0,1,.24.239l1.386,2.773Zm0,2.13h-2.13V45.824h2.13ZM49.734,38l-.533.533L47.025,34.18a1.608,1.608,0,0,0-.72-.717,26.2,26.2,0,0,0-11.1-2.551,26.2,26.2,0,0,0-11.1,2.551,1.608,1.608,0,0,0-.72.717l-2.177,4.355L20.683,38a.532.532,0,0,1-.1-.615L22.628,33.3a1.575,1.575,0,0,1,.628-.668c3.983-2.272,10.117-2.783,11.952-2.783s7.97.511,11.952,2.783a1.576,1.576,0,0,1,.628.668l2.044,4.089A.532.532,0,0,1,49.734,38Z" fill="#324456"/>
        <path id="Path_19368" data-name="Path 19368" d="M104.533,73.048a.533.533,0,0,0,.533-.533,7.4,7.4,0,0,1,2.718-5.765,10.1,10.1,0,0,1,2.79-1.723.533.533,0,1,0-.365-1,10.986,10.986,0,0,0-3.1,1.895A8.533,8.533,0,0,0,104,72.516.533.533,0,0,0,104.533,73.048Z" transform="translate(-78.91 -44.799)" fill="#324456"/>
      </g>
    </g>
    <g id="Ellipse_538" data-name="Ellipse 538" transform="translate(-17161 -20705)" fill="#fff" stroke="#324456" stroke-width="1">
      <circle cx="7" cy="7" r="7" stroke="none"/>
      <circle cx="7" cy="7" r="6.5" fill="none"/>
    </g>
    <path id="Path_19372" data-name="Path 19372" d="M30,12v7.56" transform="translate(-17164.055 -20730.336) rotate(45)" fill="none" stroke="#324456" stroke-linecap="round" stroke-linejoin="round" stroke-width="1.5"/>
    <path id="Path_19371" data-name="Path 19371" d="M33.06,16.5H25.5" transform="translate(-17163.035 -20730.406) rotate(45)" fill="none" stroke="#324456" stroke-linecap="round" stroke-linejoin="round" stroke-width="1.5"/>
  </g>
</svg>
