<svg xmlns="http://www.w3.org/2000/svg" width="27" height="30.721" viewBox="0 0 27 30.721">
  <g id="خانوار" transform="translate(-31 2)">
    <path id="Path_18983" data-name="Path 18983" d="M47.65,30.72H32.35A1.352,1.352,0,0,1,31,29.37V6.852A1.352,1.352,0,0,1,32.35,5.5h1.587a.45.45,0,0,1,0,.9H32.35a.45.45,0,0,0-.45.45V29.37a.45.45,0,0,0,.45.45h15.3a.45.45,0,0,0,.45-.45V18.9H36.75a1.352,1.352,0,0,1-1.35-1.35V1.35A1.352,1.352,0,0,1,36.75,0h14.5A1.352,1.352,0,0,1,52.6,1.35v4.5a.45.45,0,0,1-.9,0V1.35A.45.45,0,0,0,51.25.9H36.75a.45.45,0,0,0-.45.45v16.2a.45.45,0,0,0,.45.45h14.5a.45.45,0,0,0,.45-.45V7.65a.45.45,0,0,1,.45-.45h2.7a.45.45,0,0,1,0,.9H52.6s0-.224,0,4.5h2.25a.45.45,0,0,1,0,.9H52.6c.062.044,0,.293,0,4.05a1.344,1.344,0,0,1-.077.45H54.85a.45.45,0,0,1,0,.9H49v1.8c0,2.012-.224,1.737,0,.9v2.82h7.65a.45.45,0,0,0,.45-.45V4.152a.45.45,0,0,0-.45-.45h-2.7a.45.45,0,1,1,0-.9h2.7A1.352,1.352,0,0,1,58,4.152V23.97a1.352,1.352,0,0,1-1.35,1.35H49v2.7h4.95a.45.45,0,0,0,.45-.45v-.9a.45.45,0,1,1,.9,0v.9a1.352,1.352,0,0,1-1.35,1.35H49v.45A1.352,1.352,0,0,1,47.65,30.72Z" transform="translate(0 -2)" fill="#324456"/>
    <g id="_4129027" data-name="4129027" transform="translate(35.738 0.63)">
      <path id="Path_18985" data-name="Path 18985" d="M13.929,111.981a3.128,3.128,0,0,0,1.152-2.444,3,3,0,0,0-2.918-3.073,3,3,0,0,0-2.918,3.073,3.128,3.128,0,0,0,1.152,2.444,4.292,4.292,0,0,0-.5.272,2.355,2.355,0,0,0-1.632-.664,2.312,2.312,0,0,0-.93.2,4.379,4.379,0,0,0-1.2-.828A3.128,3.128,0,0,0,7.3,108.512a3,3,0,0,0-2.918-3.073,3,3,0,0,0-2.918,3.073,3.128,3.128,0,0,0,1.152,2.444A4.632,4.632,0,0,0,0,115.175l.53,3.077,16.011-.113V116.2A4.632,4.632,0,0,0,13.929,111.981Zm-3.714-2.444a1.951,1.951,0,1,1,1.948,2.052A2,2,0,0,1,10.215,109.537Zm-.483,4.613a1.5,1.5,0,0,1-1.462,1.54,1.542,1.542,0,0,1,0-3.079A1.5,1.5,0,0,1,9.732,114.15Zm-7.3-5.638a2,2,0,0,1,1.949-2.052,2.055,2.055,0,0,1,0,4.1A2,2,0,0,1,2.429,108.512Zm2.964,9.74H.969v-3.077a3.507,3.507,0,0,1,3.408-3.59,3.287,3.287,0,0,1,2.138.8,2.647,2.647,0,0,0,.232,3.762,3.089,3.089,0,0,0-1.353,2.109Zm.99,0a1.926,1.926,0,0,1,3.775,0Zm9.189,0H11.148a3.089,3.089,0,0,0-1.353-2.109,2.609,2.609,0,0,0,.907-1.993,2.658,2.658,0,0,0-.223-1.069,3.256,3.256,0,0,1,1.685-.471,3.507,3.507,0,0,1,3.408,3.59Z" transform="translate(0 -102.235)" fill="#324456"/>
    </g>
  </g>
</svg>
