<svg xmlns="http://www.w3.org/2000/svg" width="28.697" height="28.979" viewBox="0 0 28.697 28.979">
  <g id="_3135788" data-name="3135788" transform="translate(-2.412 0.1)">
    <g id="Group_13056" data-name="Group 13056" transform="translate(2.512 0)">
      <path id="Path_19185" data-name="Path 19185" d="M324.194,194.709h-7.269a.422.422,0,1,0,0,.843h7.269a.422.422,0,1,0,0-.843Z" transform="translate(-298.853 -183.764)" fill="#324456" stroke="#324456" stroke-width="0.2"/>
      <path id="Path_19186" data-name="Path 19186" d="M324.194,239.922h-7.269a.422.422,0,1,0,0,.843h7.269a.422.422,0,1,0,0-.843Z" transform="translate(-298.853 -226.436)" fill="#324456" stroke="#324456" stroke-width="0.2"/>
      <path id="Path_19187" data-name="Path 19187" d="M324.616,285.557a.422.422,0,0,0-.422-.422h-7.269a.422.422,0,1,0,0,.843h7.269A.421.421,0,0,0,324.616,285.557Z" transform="translate(-298.853 -269.107)" fill="#324456" stroke="#324456" stroke-width="0.2"/>
      <path id="Path_19188" data-name="Path 19188" d="M316.925,330.348a.422.422,0,1,0,0,.843h3.635a.422.422,0,1,0,0-.843Z" transform="translate(-298.853 -311.779)" fill="#324456" stroke="#324456" stroke-width="0.2"/>
      <path id="Path_19189" data-name="Path 19189" d="M30.4,4.957,26.053.611A2.086,2.086,0,0,0,24.578,0h-14.3A2.088,2.088,0,0,0,8.189,2.086V6.4a.422.422,0,1,0,.843,0V2.086A1.244,1.244,0,0,1,10.275.843h14.3a1.241,1.241,0,0,1,.268.029V4.711A1.455,1.455,0,0,0,26.3,6.164h3.839a1.242,1.242,0,0,1,.029.268V26.694a1.244,1.244,0,0,1-1.243,1.243H23.261a1.9,1.9,0,0,0-.236-2.4l-3.833-3.833a.984.984,0,0,0-1.034-.227l-.825-.825a8.18,8.18,0,1,0-1.877,1.876l.825.825a.984.984,0,0,0,.227,1.034l3.545,3.545H10.275a1.244,1.244,0,0,1-1.243-1.243V25.343a.422.422,0,1,0-.843,0v1.351a2.088,2.088,0,0,0,2.086,2.086H28.924a2.088,2.088,0,0,0,2.086-2.086V6.432A2.089,2.089,0,0,0,30.4,4.957ZM5.5,21.074a7.336,7.336,0,1,1,10.945-.641,7.444,7.444,0,0,1-1.211,1.211A7.339,7.339,0,0,1,5.5,21.074ZM16.12,22a8.3,8.3,0,0,0,.682-.682l.694.694-.684.684L16.119,22l0,0Zm4.817,5.628L17.105,23.8a.141.141,0,0,1,0-.2l.006-.006h0L18.4,22.3a.141.141,0,0,1,.2,0l3.833,3.833a1.054,1.054,0,0,1-1.491,1.491ZM25.688,4.711V1.439l3.882,3.882H26.3A.611.611,0,0,1,25.688,4.711Z" transform="translate(-2.512 0)" fill="#324456" stroke="#324456" stroke-width="0.2"/>
      <path id="Path_19190" data-name="Path 19190" d="M159.725,48.663h-8.364a.908.908,0,0,0-.907.907v1.616a.908.908,0,0,0,.907.907h8.364a.908.908,0,0,0,.907-.907V49.57A.908.908,0,0,0,159.725,48.663Zm.064,2.522a.064.064,0,0,1-.064.064h-8.363a.064.064,0,0,1-.064-.064V49.57a.064.064,0,0,1,.064-.064h8.364a.064.064,0,0,1,.064.064v1.616Z" transform="translate(-142.139 -45.928)" fill="#324456" stroke="#324456" stroke-width="0.2"/>
      <path id="Path_19191" data-name="Path 19191" d="M44.622,178.172A6.5,6.5,0,1,0,33.6,172.589a.422.422,0,0,0,.833.127,5.655,5.655,0,1,1,9.845,4.584,1.823,1.823,0,0,0-.912-.865,8.212,8.212,0,0,0-1.89-.429l0-.532a2.473,2.473,0,0,0,.979-1.6.748.748,0,0,0,.46-.695c0-.559,0-1.485,0-2.024a1.035,1.035,0,0,0-.858-1.018,1.035,1.035,0,0,0-1.014-.833H39.007a1.9,1.9,0,0,0-1.9,1.9v1.981a.745.745,0,0,0,.455.685,2.48,2.48,0,0,0,.935,1.569l0,.581a8.213,8.213,0,0,0-1.886.445,1.778,1.778,0,0,0-.856.816,5.61,5.61,0,0,1-1.3-2.728.422.422,0,0,0-.831.145,6.5,6.5,0,0,0,11,3.476Zm-5.615-8.028h2.035a.19.19,0,0,1,.19.19.629.629,0,0,0,.628.628h.021a.19.19,0,0,1,.19.19v.226l-.51-.048a2.351,2.351,0,0,0-1.437.334,1.491,1.491,0,0,1-.779.22h-1.4V171.2A1.061,1.061,0,0,1,39.007,170.143Zm-1.059,2.95v-.367h1.4a2.334,2.334,0,0,0,1.219-.344,1.5,1.5,0,0,1,.918-.213l.589.055c0,.26,0,.6,0,.867a.523.523,0,0,0-.432.484,1.637,1.637,0,0,1-3.268,0,.527.527,0,0,0-.426-.484Zm2.062,2.863a2.479,2.479,0,0,0,.627-.081v.235a.722.722,0,0,0,.07.307,1.288,1.288,0,0,1-.718.22h0a1.288,1.288,0,0,1-.713-.214.722.722,0,0,0,.067-.307v-.252A2.47,2.47,0,0,0,40.01,175.957Zm-3.6,1.97a.955.955,0,0,1,.542-.694,6.724,6.724,0,0,1,1.535-.362,2.125,2.125,0,0,0,1.494.609h.006a2.125,2.125,0,0,0,1.5-.622,6.721,6.721,0,0,1,1.538.349.962.962,0,0,1,.582.742A5.664,5.664,0,0,1,36.414,177.926Z" transform="translate(-31.852 -157.69)" fill="#324456" stroke="#324456" stroke-width="0.2"/>
    </g>
  </g>
</svg>
