<svg xmlns="http://www.w3.org/2000/svg" width="27.486" height="32.986" viewBox="0 0 27.486 32.986">
  <g id="_3324709" data-name="3324709" transform="translate(-43.171 0.3)">
    <path id="Path_19240" data-name="Path 19240" d="M67.344,0h-20.2a1.71,1.71,0,0,0-1.708,1.708V4.1H44.42a.949.949,0,1,0,0,1.9h1.016V9.672H44.42a.949.949,0,0,0,0,1.9h1.016v3.674H44.42a.949.949,0,1,0,0,1.9h1.016v3.674H44.42a.949.949,0,0,0,0,1.9h1.016v3.674H44.42a.949.949,0,1,0,0,1.9h1.016v2.392a1.71,1.71,0,0,0,1.708,1.708h20.2a3.017,3.017,0,0,0,3.014-3.014V3.014A3.017,3.017,0,0,0,67.344,0ZM68.46,29.372a1.118,1.118,0,0,1-1.116,1.116H47.334v-2.2H48.35a.949.949,0,0,0,0-1.9H47.334V22.714H48.35a.949.949,0,0,0,0-1.9H47.334V17.142H48.35a.949.949,0,0,0,0-1.9H47.334V11.57H48.35a.949.949,0,0,0,0-1.9H47.334V6H48.35a.949.949,0,0,0,0-1.9H47.334V1.9h20.01A1.118,1.118,0,0,1,68.46,3.014Z" transform="translate(0)" fill="#324456" stroke="#fff" stroke-width="0.6"/>
    <path id="Path_19241" data-name="Path 19241" d="M297.409,417.179h-8.242a.949.949,0,1,0,0,1.9h8.242a.949.949,0,0,0,0-1.9Z" transform="translate(-232.742 -390.791)" fill="#324456" stroke="#fff" stroke-width="0.6"/>
    <path id="Path_19244" data-name="Path 19244" d="M297.484,417.179h-4.526a.949.949,0,0,0,0,1.9h4.526a.949.949,0,1,0,0-1.9Z" transform="translate(-232.817 -393.731)" fill="#324456" stroke="#fff" stroke-width="0.6"/>
    <path id="Path_19243" data-name="Path 19243" d="M299.683,60.131h-2.444a.863.863,0,0,0-.862.862v1.955h-1.955a.863.863,0,0,0-.862.862v2.444a.863.863,0,0,0,.862.862h1.955V69.07a.863.863,0,0,0,.862.862h2.444a.863.863,0,0,0,.862-.862V67.115H302.5a.863.863,0,0,0,.862-.862V63.809a.863.863,0,0,0-.862-.862h-1.955V60.993A.863.863,0,0,0,299.683,60.131Zm2.453,4.042V65.89H300.1a.78.78,0,0,0-.779.779v2.038H297.6V66.669a.78.78,0,0,0-.779-.779h-2.038V64.173h2.038a.78.78,0,0,0,.779-.779V61.356h1.717v2.038a.78.78,0,0,0,.779.779Z" transform="translate(-240.721 -53.161)" fill="#324456" stroke="#fff" stroke-width="0.2"/>
    <path id="Path_19225" data-name="Path 19225" d="M111.048,108.933c-3.974,4.84-.245,12.529,6.026,12.406a7.675,7.675,0,0,0,7.666-7.666c0-.084,0-.168-.012-.6-.073-5.992-8.081-9.48-12.766-5.116l.787.879c6.264-5.315,14.491,3.119,9.084,9.236a7.3,7.3,0,0,1-2.075,1.548,9.073,9.073,0,0,1-2.684.675,11.083,11.083,0,0,1-2.756-.762,6.961,6.961,0,0,1-2-1.461,6.526,6.526,0,0,1-.34-8.411Zm9.606,10.145a6.532,6.532,0,0,1-7.16,0l.462,1.219,3.118.339,2.785-1.014Z" transform="translate(-59.475 -102.156)" fill="#324456"/>
  </g>
</svg>
