<svg xmlns="http://www.w3.org/2000/svg" width="28" height="25" viewBox="0 0 28 25">
  <g id="پایان_خدمت" data-name="پایان خدمت" transform="translate(17332 16377)">
    <g id="Subtraction_5" data-name="Subtraction 5" transform="translate(-17332 -16373)" fill="none">
      <path d="M27,21H1a1,1,0,0,1-1-1V1A1,1,0,0,1,1,0H11.2V.386a3.267,3.267,0,0,0,6.533,0V0H27a1,1,0,0,1,1,1V20A1,1,0,0,1,27,21Z" stroke="none"/>
      <path d="M 27 19.99970054626465 L 26.99990081787109 19.99979972839355 L 27 1.000000238418579 L 18.68954658508301 1.000000238418579 C 18.39089775085449 3.062462091445923 16.61091613769531 4.652200222015381 14.46660041809082 4.652200222015381 C 12.32273197174072 4.652200222015381 10.54314041137695 3.062536954879761 10.24455451965332 1.000075221061707 L 1.000000357627869 1.000800251960754 L 0.9999004006385803 19.99970054626465 L 27 19.99970054626465 M 27 20.99970054626465 L 0.9999004006385803 20.99970054626465 C 0.4485504031181335 20.99970054626465 4.089355343239731e-07 20.55114936828613 4.089355343239731e-07 19.99979972839355 L 4.089355343239731e-07 1.000800251960754 C 4.089355343239731e-07 0.4489602744579315 0.4485504031181335 2.731323149873788e-07 0.9999004006385803 2.731323149873788e-07 L 11.20050048828125 2.731323149873788e-07 L 11.20050048828125 0.3861002624034882 C 11.20050048828125 2.18703031539917 12.66567039489746 3.652200222015381 14.46660041809082 3.652200222015381 C 16.26803016662598 3.652200222015381 17.73360061645508 2.18703031539917 17.73360061645508 0.3861002624034882 L 17.73360061645508 2.731323149873788e-07 L 27 2.731323149873788e-07 C 27.55134963989258 2.731323149873788e-07 27.99990081787109 0.4489602744579315 27.99990081787109 1.000800251960754 L 27.99990081787109 19.99979972839355 C 27.99990081787109 20.55114936828613 27.55134963989258 20.99970054626465 27 20.99970054626465 Z" stroke="none" fill="#324456"/>
    </g>
    <g id="_97392" data-name="97392" transform="translate(-17329.689 -16369.33)">
      <path id="Path_19009" data-name="Path 19009" d="M36.015,8.27H34.932V7.147s.007-.008.006-.012a5.48,5.48,0,0,0,.566-.9,1.307,1.307,0,0,0,.865-.932c.232-.659.107-1.248-.3-1.425,0-.062,0-.136,0-.223l.213-.064c.487-.145.991-.294.991-.9A2.491,2.491,0,0,0,35.968.9a5.345,5.345,0,0,0-5.938,0,2.492,2.492,0,0,0-1.306,1.786c0,.607.5.756.99.9l.214.065c0,.084,0,.156,0,.217-.417.169-.55.764-.315,1.432a1.281,1.281,0,0,0,.87.934,6.055,6.055,0,0,0,.6.96V8.27h-1.1A2.454,2.454,0,0,0,27.5,10.686v1.259a.374.374,0,0,0,.223.322,12.383,12.383,0,0,0,5.294,1.192,12.325,12.325,0,0,0,2.123-.184,10.755,10.755,0,0,0,3.14-1.02.361.361,0,0,0,.187-.311V10.686A2.428,2.428,0,0,0,36.015,8.27Zm-4.21-.387a1.891,1.891,0,0,0,2.4-.035v.534L32.982,9.926,31.805,8.383ZM30.638,4.019c0-.053,0-.1,0-.19h4.72c0,.045,0,.124,0,.177a5.65,5.65,0,0,1-1.411.514A4.467,4.467,0,0,1,30.638,4.019Zm-1.2-1.3a.116.116,0,0,1,0-.037C29.436,2.1,30.94.713,33,.713S36.561,2.1,36.561,2.686a.185.185,0,0,1,0,.035,1.711,1.711,0,0,1-.478.18c-.128.038-.412.157-.628.2h-4.91a5.741,5.741,0,0,1-.626-.2A1.759,1.759,0,0,1,29.44,2.724Zm1.371,2.788a.356.356,0,0,0-.232.006.949.949,0,0,1-.3-.455,1.083,1.083,0,0,1-.069-.471,5.156,5.156,0,0,0,2.687.753,5.642,5.642,0,0,0,1.225-.137,6.311,6.311,0,0,0,1.641-.615,1.085,1.085,0,0,1-.069.47.944.944,0,0,1-.3.456.356.356,0,0,0-.437.194c-.384.863-1.129,1.871-1.966,1.871S31.413,6.573,31.03,5.707A.356.356,0,0,0,30.811,5.512Zm6.931,6.214a11.156,11.156,0,0,1-2.764.853,11.635,11.635,0,0,1-6.752-.862v-1.03A1.757,1.757,0,0,1,29.982,8.95h1.324l1.414,1.767a.355.355,0,0,0,.556,0L34.691,8.95h1.324a1.731,1.731,0,0,1,1.727,1.736Z" transform="translate(-27.5 0)" fill="#324456"/>
      <path id="Path_19010" data-name="Path 19010" d="M73.714,241.5H72.146a.363.363,0,0,0,0,.725h1.568a.363.363,0,0,0,0-.725Z" transform="translate(-69.783 -230.556)" fill="#324456"/>
    </g>
    <path id="Path_19023" data-name="Path 19023" d="M356.373,203.5h-7.136a.613.613,0,1,0,0,1.225h7.136a.613.613,0,1,0,0-1.225Zm0,0" transform="translate(-17665.178 -16566.713)" fill="#324456" stroke="#fff" stroke-width="0.2"/>
    <path id="Path_19024" data-name="Path 19024" d="M356.373,283.5h-7.136a.613.613,0,1,0,0,1.225h7.136a.613.613,0,1,0,0-1.225Zm0,0" transform="translate(-17665.178 -16642.793)" fill="#324456" stroke="#fff" stroke-width="0.2"/>
    <path id="Path_19025" data-name="Path 19025" d="M356.373,123.5h-7.136a.612.612,0,1,0,0,1.225h7.136a.612.612,0,1,0,0-1.225Zm0,0" transform="translate(-17665.178 -16490.631)" fill="#324456" stroke="#fff" stroke-width="0.2"/>
    <g id="Rectangle_11238" data-name="Rectangle 11238" transform="translate(-17320 -16377)" fill="#fff" stroke="#324456" stroke-width="1">
      <rect width="5" height="7" rx="2.5" stroke="none"/>
      <rect x="0.5" y="0.5" width="4" height="6" rx="2" fill="none"/>
    </g>
  </g>
</svg>
