<svg xmlns="http://www.w3.org/2000/svg" width="27.101" height="35.28" viewBox="0 0 27.101 35.28">
  <g id="گذرنامه" transform="translate(-77.256 0.05)">
    <path id="Path_19037" data-name="Path 19037" d="M83.134,34.147h-4.5a.181.181,0,0,1-.189-.172V1.2a.181.181,0,0,1,.189-.172H94.845a.544.544,0,0,0,.568-.516A.544.544,0,0,0,94.845,0H78.631a1.27,1.27,0,0,0-1.325,1.2v32.77a1.27,1.27,0,0,0,1.325,1.2h4.5a.519.519,0,1,0,0-1.033Z" fill="#324456" stroke="#324456" stroke-width="0.1"/>
    <path id="Path_19038" data-name="Path 19038" d="M192.864,0h-3.595a.544.544,0,0,0-.568.516.544.544,0,0,0,.568.516h3.595a2.359,2.359,0,0,1,2.46,2.237V31.91a2.359,2.359,0,0,1-2.46,2.237H177.558a.519.519,0,1,0,0,1.033h15.306a3.448,3.448,0,0,0,3.6-3.27V3.27a3.448,3.448,0,0,0-3.6-3.27Z" transform="translate(-92.153 0)" fill="#324456" stroke="#324456" stroke-width="0.1"/>
    <path id="Path_19039" data-name="Path 19039" d="M160.3,105.984a.477.477,0,0,0-.676.163.53.53,0,0,0,.156.709,6.238,6.238,0,0,0,3.432,1.031,6.808,6.808,0,1,0-6.479-6.8,7.026,7.026,0,0,0,1.456,4.3.475.475,0,0,0,.69.074.532.532,0,0,0,.07-.724,5.77,5.77,0,0,1-.64-1.035h2.136a8.666,8.666,0,0,0,.937,2.832A5.353,5.353,0,0,1,160.3,105.984Zm4.742.544a8.669,8.669,0,0,0,.936-2.83h2.134A5.62,5.62,0,0,1,165.043,106.528Zm-3.829-5.44a14.784,14.784,0,0,1,.084-1.58h3.828a14.942,14.942,0,0,1,0,3.161H161.3A14.763,14.763,0,0,1,161.214,101.088Zm2-5.77c.671,0,1.4,1.25,1.762,3.161h-3.524C161.813,96.568,162.54,95.317,163.212,95.317Zm2.9,4.19H168.5a6.014,6.014,0,0,1,0,3.161h-2.382c.049-.5.075-1.033.075-1.58S166.164,100.012,166.115,99.508Zm2-1.03h-2.134a8.67,8.67,0,0,0-.936-2.83A5.62,5.62,0,0,1,168.112,98.478Zm-6.731-2.831a8.665,8.665,0,0,0-.937,2.831h-2.134A5.62,5.62,0,0,1,161.381,95.647Zm-3.456,7.021a6,6,0,0,1,0-3.161h2.382c-.049.5-.075,1.032-.075,1.58s.026,1.076.074,1.58Zm3.523,1.03h3.524c-.364,1.91-1.091,3.161-1.762,3.161S161.813,105.608,161.449,103.7Z" transform="translate(-71.894 -88.218)" fill="#324456" stroke="#324456" stroke-width="0.1"/>
    <path id="Path_19040" data-name="Path 19040" d="M171.732,355.825a.568.568,0,0,0-.568-.568H157.3a.568.568,0,1,0,0,1.135h13.864A.568.568,0,0,0,171.732,355.825Z" transform="translate(-71.893 -331.921)" fill="#324456" stroke="#324456" stroke-width="0.1"/>
    <path id="Path_19041" data-name="Path 19041" d="M184.353,402.683a.568.568,0,0,0,0,1.136h9.776a.568.568,0,1,0,0-1.136Z" transform="translate(-96.901 -376.098)" fill="#324456" stroke="#324456" stroke-width="0.1"/>
  </g>
</svg>
