<svg xmlns="http://www.w3.org/2000/svg" width="29.465" height="30.854" viewBox="0 0 29.465 30.854">
  <g id="تماس_بستگان" data-name="تماس بستگان" transform="translate(-11.469 0.15)">
    <path id="Path_19050" data-name="Path 19050" d="M185.511,2.914a1.2,1.2,0,0,0-1.2-1.2h-1.506V1.2a1.2,1.2,0,0,0-1.2-1.2H165.977a.448.448,0,1,0,0,.9h15.634a.3.3,0,0,1,.3.3V29.356a.3.3,0,0,1-.3.3h-3.77a.448.448,0,1,0,0,.9h3.77a1.2,1.2,0,0,0,1.2-1.2v-.467h1.506a1.2,1.2,0,0,0,1.2-1.2V22.621a1.191,1.191,0,0,0-.265-.749,1.191,1.191,0,0,0,.265-.749V16.052a1.191,1.191,0,0,0-.265-.749,1.191,1.191,0,0,0,.265-.749V9.483a1.191,1.191,0,0,0-.265-.749,1.191,1.191,0,0,0,.265-.749Zm-1.2-.3a.3.3,0,0,1,.3.3V7.984a.3.3,0,0,1-.3.3h-1.506V2.612Zm.3,6.871v5.071a.3.3,0,0,1-.3.3h-1.506V9.181h1.506A.3.3,0,0,1,184.616,9.483Zm0,6.569v5.071a.3.3,0,0,1-.3.3h-1.506V15.751h1.506A.3.3,0,0,1,184.616,16.052Zm0,11.64a.3.3,0,0,1-.3.3h-1.506V22.32h1.506a.3.3,0,0,1,.3.3Z" transform="translate(-144.726)" fill="#324456" stroke="#324456" stroke-width="0.3"/>
    <path id="Path_19051" data-name="Path 19051" d="M31.027,29.658H15.906a.3.3,0,0,1-.191-.068h0a.3.3,0,0,1-.111-.234V27.608h1.379a1.712,1.712,0,1,0,0-3.424H15.6V20.528h1.379a1.712,1.712,0,0,0,0-3.424H15.6V13.449h1.379a1.712,1.712,0,0,0,0-3.424H15.6V6.369h1.379a1.712,1.712,0,0,0,0-3.424H15.6V1.2a.3.3,0,0,1,.3-.3h3.256a.448.448,0,0,0,0-.9H15.906a1.2,1.2,0,0,0-1.2,1.2V2.945H13.331a1.712,1.712,0,1,0,0,3.424H14.71v3.656H13.331a1.712,1.712,0,1,0,0,3.424H14.71V17.1H13.331a1.712,1.712,0,1,0,0,3.424H14.71v3.656H13.331a1.712,1.712,0,1,0,0,3.424H14.71v1.748a1.2,1.2,0,0,0,1.2,1.2H31.027a.448.448,0,0,0,0-.9Zm-18.513-25a.818.818,0,0,1,.817-.817h3.653a.817.817,0,0,1,0,1.634H13.331A.818.818,0,0,1,12.514,4.657Zm0,7.079a.818.818,0,0,1,.817-.817h3.653a.817.817,0,0,1,0,1.634H13.331A.818.818,0,0,1,12.514,11.737Zm0,7.08A.818.818,0,0,1,13.331,18h3.653a.817.817,0,0,1,0,1.634H13.331A.818.818,0,0,1,12.514,18.816Zm0,7.079a.818.818,0,0,1,.817-.817h3.653a.817.817,0,0,1,0,1.634H13.331A.818.818,0,0,1,12.514,25.9Z" transform="translate(0 0)" fill="#324456" stroke="#324456" stroke-width="0.3"/>
    <g id="Group_12849" data-name="Group 12849" transform="translate(21.006 6.922)">
      <path id="Path_19052" data-name="Path 19052" d="M181.305,132.708h-10.89a1.492,1.492,0,0,1-1.49-1.49V117.489a1.492,1.492,0,0,1,1.49-1.49h10.89a1.492,1.492,0,0,1,1.49,1.49v13.728A1.492,1.492,0,0,1,181.305,132.708Zm-10.89-15.814a.6.6,0,0,0-.6.6v13.728a.6.6,0,0,0,.6.6h10.89a.6.6,0,0,0,.6-.6V117.489a.6.6,0,0,0-.6-.6Z" transform="translate(-168.925 -115.999)" fill="#324456" stroke="#324456" stroke-width="0.3"/>
    </g>
    <g id="Group_12850" data-name="Group 12850" transform="translate(23.138 9.157)">
      <path id="Path_19053" data-name="Path 19053" d="M210.98,165.684a3.027,3.027,0,0,1-2.625-1.512l-3.3-5.72a3.029,3.029,0,0,1,1.107-4.133l1.291-.745a.954.954,0,0,1,1.3.35l1.118,1.936a.88.88,0,0,1-.322,1.2l-.529.305a.369.369,0,0,0-.135.5l1.89,3.274a.369.369,0,0,0,.5.135l.529-.305a.878.878,0,0,1,1.2.322l1.118,1.936a.956.956,0,0,1-.349,1.3c-1.325.765-1.809,1.15-2.8,1.15Zm-3.053-11.343a.058.058,0,0,0-.029.008l-1.291.745a2.133,2.133,0,0,0-.78,2.91l3.3,5.72a2.133,2.133,0,0,0,2.91.78l1.291-.745a.06.06,0,0,0,.022-.082l-1.109-1.922-.515.3A1.263,1.263,0,0,1,210,161.59l-1.89-3.274a1.265,1.265,0,0,1,.463-1.726l.515-.3-1.109-1.922a.058.058,0,0,0-.036-.028l-.016,0Z" transform="translate(-204.647 -153.446)" fill="#324456" stroke="#324456" stroke-width="0.3"/>
    </g>
  </g>
</svg>
