<svg xmlns="http://www.w3.org/2000/svg" width="28.7" height="33.388" viewBox="0 0 28.7 33.388">
  <g id="Group_13141" data-name="Group 13141" transform="translate(24107.323 -4454.468)">
    <g id="_3135788" data-name="3135788" transform="translate(-24107.123 4454.668)">
      <g id="Group_13056" data-name="Group 13056" transform="translate(0 0)">
        <path id="Path_19187" data-name="Path 19187" d="M325.17,285.585a.45.45,0,0,0-.45-.45h-7.766a.45.45,0,0,0,0,.9h7.766A.45.45,0,0,0,325.17,285.585Z" transform="translate(-312.58 -261.22)" fill="#324456" stroke="#324456" stroke-width="0.4"/>
        <path id="Path_19232" data-name="Path 19232" d="M327.358,285.585a.517.517,0,0,0-.564-.45h-9.726a.462.462,0,1,0,0,.9h9.726A.517.517,0,0,0,327.358,285.585Z" transform="translate(-312.58 -263.935)" fill="#324456" stroke="#324456" stroke-width="0.4"/>
        <path id="Path_19188" data-name="Path 19188" d="M316.953,330.348a.45.45,0,0,0,0,.9h3.883a.45.45,0,1,0,0-.9Z" transform="translate(-312.58 -303.718)" fill="#324456" stroke="#324456" stroke-width="0.4"/>
        <path id="Subtraction_7" data-name="Subtraction 7" d="M15.573,30.748H2.229A2.232,2.232,0,0,1,0,28.518V2.229A2.233,2.233,0,0,1,2.229,0h15.28a2.254,2.254,0,0,1,1.577.652l4.641,4.641a2.257,2.257,0,0,1,.652,1.576v9.855c-.3-.031-.6-.048-.9-.05V6.87a1.462,1.462,0,0,0-.028-.282h-4.1A1.555,1.555,0,0,1,17.8,5.035V.93A1.539,1.539,0,0,0,17.509.9H2.229A1.329,1.329,0,0,0,.9,2.229v26.29a1.329,1.329,0,0,0,1.328,1.329H12.675c.945,0,1.752,0,2.4-.015a9.488,9.488,0,0,0,.5.913ZM18.7,1.535h0v3.5a.642.642,0,0,0,.651.647h3.494L18.7,1.535Z" fill="#324456" stroke="#324456" stroke-width="0.4"/>
        <path id="Path_19190" data-name="Path 19190" d="M160.359,48.663h-8.935a.97.97,0,0,0-.969.969v1.726a.97.97,0,0,0,.969.969h8.935a.97.97,0,0,0,.969-.969V49.632A.97.97,0,0,0,160.359,48.663Zm.068,2.695a.068.068,0,0,1-.068.068h-8.935a.068.068,0,0,1-.068-.068V49.632a.068.068,0,0,1,.068-.068h8.935a.068.068,0,0,1,.068.068v1.726Z" transform="translate(-147.635 -45.742)" fill="#324456" stroke="#324456" stroke-width="0.4"/>
        <path id="Path_19191" data-name="Path 19191" d="M42.88,176.419a5.471,5.471,0,1,0-9.276-4.7.355.355,0,1,0,.7.107,4.761,4.761,0,1,1,8.289,3.859,1.535,1.535,0,0,0-.768-.728,6.916,6.916,0,0,0-1.591-.362l0-.448a2.083,2.083,0,0,0,.825-1.35.63.63,0,0,0,.387-.585c0-.47,0-1.25,0-1.7a.871.871,0,0,0-.723-.858.871.871,0,0,0-.854-.7H38.153a1.6,1.6,0,0,0-1.6,1.6v1.668a.627.627,0,0,0,.383.577,2.088,2.088,0,0,0,.787,1.321l0,.489a6.915,6.915,0,0,0-1.588.375,1.5,1.5,0,0,0-.721.687,4.723,4.723,0,0,1-1.092-2.3.355.355,0,1,0-.7.122,5.471,5.471,0,0,0,9.258,2.926Zm-4.727-6.759h1.713a.16.16,0,0,1,.16.16.529.529,0,0,0,.529.529h.017a.16.16,0,0,1,.16.16v.19l-.429-.04a1.979,1.979,0,0,0-1.21.281,1.255,1.255,0,0,1-.656.185H37.261v-.573A.893.893,0,0,1,38.153,169.66Zm-.892,2.484v-.309h1.177a1.965,1.965,0,0,0,1.027-.289,1.264,1.264,0,0,1,.773-.179l.5.046c0,.219,0,.507,0,.73a.441.441,0,0,0-.363.408,1.378,1.378,0,0,1-2.752,0,.444.444,0,0,0-.359-.407ZM39,174.554a2.085,2.085,0,0,0,.528-.068v.2a.608.608,0,0,0,.059.258,1.085,1.085,0,0,1-.6.185h0a1.084,1.084,0,0,1-.6-.18.608.608,0,0,0,.057-.259v-.212A2.08,2.08,0,0,0,39,174.554Zm-3.027,1.658a.8.8,0,0,1,.457-.584,5.659,5.659,0,0,1,1.292-.3,1.789,1.789,0,0,0,1.258.513h.005a1.789,1.789,0,0,0,1.264-.524,5.662,5.662,0,0,1,1.295.294.81.81,0,0,1,.49.625A4.769,4.769,0,0,1,35.969,176.212Z" transform="translate(-27.913 -158.859)" fill="#324456" stroke="#324456" stroke-width="0.2"/>
      </g>
    </g>
    <g id="_2309943" data-name="2309943" transform="translate(-24091.764 4472.387)">
      <path id="Path_19230" data-name="Path 19230" d="M51.667,4.2V4.181c-.007-.386-.014-.75-.014-1.1a.964.964,0,0,0-.963-.963A6.6,6.6,0,0,1,45.783.274a.958.958,0,0,0-1.342,0,6.6,6.6,0,0,1-4.906,1.843.964.964,0,0,0-.963.963c0,.358-.007.726-.015,1.115a16.763,16.763,0,0,0,.682,6.137,7.8,7.8,0,0,0,1.88,2.918A9.822,9.822,0,0,0,44.8,15.416a.962.962,0,0,0,.631,0,9.823,9.823,0,0,0,3.678-2.166,7.8,7.8,0,0,0,1.88-2.918A16.763,16.763,0,0,0,51.667,4.2Zm-1.532,5.822A7.525,7.525,0,0,1,45.13,14.56a.056.056,0,0,1-.037,0,7.524,7.524,0,0,1-5-4.542,15.815,15.815,0,0,1-.626-5.8c.008-.394.015-.766.015-1.133a.057.057,0,0,1,.057-.057,7.453,7.453,0,0,0,5.538-2.1.056.056,0,0,1,.079,0,7.454,7.454,0,0,0,5.538,2.1.057.057,0,0,1,.057.057c0,.359.007.728.014,1.118v.015h0A15.813,15.813,0,0,1,50.135,10.018Z" transform="translate(-38.542 0)" fill="#324456"/>
      <path id="Path_19231" data-name="Path 19231" d="M155.653,145.3h-1.875V143.43a.583.583,0,0,0-.583-.583H150.87a.583.583,0,0,0-.583.583V145.3h-1.875a.583.583,0,0,0-.583.583v2.325a.583.583,0,0,0,.583.583h1.875v1.875a.583.583,0,0,0,.583.583H153.2a.583.583,0,0,0,.583-.583V148.8h1.875a.583.583,0,0,0,.583-.583v-2.325A.583.583,0,0,0,155.653,145.3Zm-.583,2.325H153.2a.583.583,0,0,0-.583.583v1.875h-1.16v-1.875a.583.583,0,0,0-.583-.583H149v-1.16h1.875a.583.583,0,0,0,.583-.583v-1.875h1.16v1.875a.583.583,0,0,0,.583.583h1.875v1.16Z" transform="translate(-145.503 -139.506)" fill="#324456"/>
    </g>
  </g>
</svg>
