<svg xmlns="http://www.w3.org/2000/svg" width="28.646" height="37.107" viewBox="0 0 28.646 37.107">
  <g id="Group_13140" data-name="Group 13140" transform="translate(24199.148 -4536.501)">
    <g id="_942830" data-name="942830" transform="translate(-24189.111 4554.657)">
      <g id="Group_13064" data-name="Group 13064" transform="translate(0 0)">
        <g id="Group_13063" data-name="Group 13063">
          <path id="Path_19211" data-name="Path 19211" d="M18.605,110.99a6.914,6.914,0,0,0-13.111,0,6.111,6.111,0,0,0-.187,3.732,6.875,6.875,0,0,0,.918,2.188L.9,122.24a1.751,1.751,0,0,0,2.476,2.476l2.938-2.938a.467.467,0,1,0-.661-.661l-2.938,2.939A.816.816,0,1,1,1.556,122.9l5.232-5.232a6.91,6.91,0,0,0,12-2.946A6.285,6.285,0,0,0,18.605,110.99Zm-6.555,8.178a5.979,5.979,0,1,1,5.979-5.979A5.986,5.986,0,0,1,12.05,119.168Z" transform="translate(-0.384 -106.275)" fill="#324456"/>
        </g>
      </g>
      <g id="Group_13068" data-name="Group 13068" transform="translate(6.378 13.455)">
        <g id="Group_13067" data-name="Group 13067">
          <path id="Path_19213" data-name="Path 19213" d="M143.6,394.446a.467.467,0,1,0,.137.33A.471.471,0,0,0,143.6,394.446Z" transform="translate(-142.8 -394.309)" fill="#324456"/>
        </g>
      </g>
    </g>
    <g id="Group_13078" data-name="Group 13078" transform="translate(-24199 4536.648)">
      <g id="_3135788" data-name="3135788" transform="translate(0 0)">
        <g id="Group_13056" data-name="Group 13056" transform="translate(0 0)">
          <path id="Path_19187" data-name="Path 19187" d="M324.993,285.576a.441.441,0,0,0-.441-.441h-7.608a.441.441,0,1,0,0,.882h7.608A.441.441,0,0,0,324.993,285.576Z" transform="translate(-312.66 -261.704)" fill="#324456" stroke="#324456" stroke-width="0.3"/>
          <path id="Path_19232" data-name="Path 19232" d="M327.136,285.576a.506.506,0,0,0-.553-.441h-9.528a.452.452,0,1,0,0,.882h9.528A.506.506,0,0,0,327.136,285.576Z" transform="translate(-312.66 -264.364)" fill="#324456" stroke="#324456" stroke-width="0.3"/>
          <path id="Path_19188" data-name="Path 19188" d="M316.944,330.348a.441.441,0,0,0,0,.882h3.8a.441.441,0,0,0,0-.882Z" transform="translate(-312.66 -304.257)" fill="#324456" stroke="#324456" stroke-width="0.3"/>
          <path id="Subtraction_7" data-name="Subtraction 7" d="M12.951,30.122H2.185A2.185,2.185,0,0,1,0,27.94V2.185A2.185,2.185,0,0,1,2.185,0H17.153A2.2,2.2,0,0,1,18.7.642L23.245,5.19a2.2,2.2,0,0,1,.64,1.543v9.908c-.286-.074-.583-.137-.883-.185V6.734a1.274,1.274,0,0,0-.031-.28H18.954a1.523,1.523,0,0,1-1.521-1.521V.915a1.265,1.265,0,0,0-.28-.031H2.185a1.3,1.3,0,0,0-1.3,1.3V27.94a1.3,1.3,0,0,0,1.3,1.3h10.38a9.516,9.516,0,0,0,.385.881ZM18.316,1.508V4.933a.639.639,0,0,0,.638.638h3.424Z" fill="#324456" stroke="#324456" stroke-width="0.3"/>
          <path id="Path_19190" data-name="Path 19190" d="M160.157,48.663H151.4a.95.95,0,0,0-.949.949V51.3a.95.95,0,0,0,.949.949h8.753a.95.95,0,0,0,.949-.949V49.612A.95.95,0,0,0,160.157,48.663Zm.066,2.64a.067.067,0,0,1-.067.067H151.4a.067.067,0,0,1-.067-.067V49.612a.067.067,0,0,1,.067-.067h8.753a.067.067,0,0,1,.067.067V51.3Z" transform="translate(-147.692 -45.798)" fill="#324456" stroke="#324456" stroke-width="0.3"/>
          <path id="Path_19191" data-name="Path 19191" d="M42.691,176.228a5.359,5.359,0,1,0-9.087-4.6.348.348,0,1,0,.687.105,4.664,4.664,0,1,1,8.12,3.781,1.5,1.5,0,0,0-.752-.713,6.774,6.774,0,0,0-1.559-.354l0-.439a2.04,2.04,0,0,0,.808-1.322.617.617,0,0,0,.379-.573c0-.461,0-1.225,0-1.669a.854.854,0,0,0-.708-.84.854.854,0,0,0-.836-.687H38.06a1.571,1.571,0,0,0-1.569,1.569v1.634a.614.614,0,0,0,.375.565,2.045,2.045,0,0,0,.771,1.294l0,.479a6.774,6.774,0,0,0-1.556.367,1.466,1.466,0,0,0-.706.673,4.627,4.627,0,0,1-1.07-2.25.348.348,0,1,0-.685.119,5.36,5.36,0,0,0,9.069,2.867Zm-4.631-6.621h1.678a.157.157,0,0,1,.157.157.519.519,0,0,0,.518.518h.017a.157.157,0,0,1,.157.157v.187l-.42-.039a1.939,1.939,0,0,0-1.185.275,1.23,1.23,0,0,1-.642.181H37.186v-.561A.875.875,0,0,1,38.06,169.607Zm-.874,2.433v-.3h1.153a1.925,1.925,0,0,0,1.006-.283,1.238,1.238,0,0,1,.757-.176l.485.046c0,.214,0,.5,0,.715a.432.432,0,0,0-.356.4,1.35,1.35,0,0,1-2.7,0,.435.435,0,0,0-.352-.4Zm1.7,2.361a2.045,2.045,0,0,0,.517-.067v.194a.6.6,0,0,0,.058.253,1.062,1.062,0,0,1-.592.182h0a1.062,1.062,0,0,1-.588-.177.6.6,0,0,0,.056-.253v-.208A2.038,2.038,0,0,0,38.887,174.4Zm-2.966,1.625a.788.788,0,0,1,.447-.572,5.545,5.545,0,0,1,1.266-.3,1.753,1.753,0,0,0,1.233.5h.005a1.753,1.753,0,0,0,1.238-.513,5.543,5.543,0,0,1,1.268.288.793.793,0,0,1,.48.612A4.672,4.672,0,0,1,35.921,176.026Z" transform="translate(-28.028 -159.023)" fill="#324456" stroke="#324456" stroke-width="0.2"/>
        </g>
      </g>
    </g>
    <g id="Group_13079" data-name="Group 13079" transform="translate(-24181.512 4557.309)">
      <g id="Group_13087" data-name="Group 13087" transform="translate(0 0)">
        <path id="Path_19237" data-name="Path 19237" d="M8.35,3.015a.951.951,0,0,0-.773-.651L5.835,2.111,5.056.533A.951.951,0,0,0,4.2,0h0A.951.951,0,0,0,3.34.534L2.561,2.112.82,2.366A.957.957,0,0,0,.29,4L1.55,5.227l-.3,1.735A.956.956,0,0,0,2.642,7.97L4.2,7.151l1.558.818a.957.957,0,0,0,1.389-1.01l-.3-1.734L8.108,4A.951.951,0,0,0,8.35,3.015ZM5.987,4.477a.957.957,0,0,0-.275.847l.252,1.468L4.645,6.1a.957.957,0,0,0-.891,0l-1.319.694.251-1.468a.957.957,0,0,0-.276-.847L1.344,3.438l1.474-.215A.957.957,0,0,0,3.539,2.7L4.2,1.364,4.858,2.7a.957.957,0,0,0,.721.524l1.474.214Z" transform="translate(0 0)" fill="#324456"/>
      </g>
    </g>
  </g>
</svg>
