<svg xmlns="http://www.w3.org/2000/svg" width="27.3" height="34.352" viewBox="0 0 27.3 34.352">
  <g id="مشمولین" transform="translate(-293.758 -374.217)">
    <g id="Group_13138" data-name="Group 13138" transform="translate(293.908 374.367)">
      <g id="Group_13078" data-name="Group 13078" transform="translate(0 0)">
        <g id="_3135788" data-name="3135788" transform="translate(0)">
          <g id="Group_13056" data-name="Group 13056" transform="translate(0 0)">
            <path id="Subtraction_7" data-name="Subtraction 7" d="M26.277,5.865,21.135.723A2.468,2.468,0,0,0,19.39,0H2.468A2.471,2.471,0,0,0,0,2.468V30.337a.5.5,0,1,0,1,0V2.468A1.472,1.472,0,0,1,2.468,1H19.39a1.468,1.468,0,0,1,.317.034V5.574a1.721,1.721,0,0,0,1.719,1.719h4.542A1.47,1.47,0,0,1,26,7.61V31.584a1.472,1.472,0,0,1-1.47,1.47h-6.7c.054-.081.263,0-3.794,0H2.468A1.472,1.472,0,0,1,1,31.584v-1.6a.5.5,0,1,0-1,0v1.6a2.471,2.471,0,0,0,2.468,2.468H24.532A2.471,2.471,0,0,0,27,31.584V7.61A2.472,2.472,0,0,0,26.277,5.865ZM20.7,5.574V1.7L25.3,6.3H21.426A.723.723,0,0,1,20.7,5.574Z" fill="#324458" stroke="#324458" stroke-width="0.3"/>
          </g>
        </g>
      </g>
    </g>
    <g id="_3050400" data-name="3050400" transform="translate(297.411 377.818)">
      <path id="Path_19335" data-name="Path 19335" d="M16.921,16.011a.477.477,0,1,1,.674.674l-1.728,1.729a.478.478,0,0,1-.674,0l-1.1-1.1a.478.478,0,0,1,.676-.674l.763.763Zm0,9.5a.477.477,0,1,1,.674.675L15.868,27.91a.478.478,0,0,1-.674,0l-1.1-1.1a.478.478,0,1,1,.676-.674l.763.763Zm0-18.992a.477.477,0,1,1,.674.674L15.868,8.916a.475.475,0,0,1-.674,0l-1.1-1.1a.478.478,0,0,1,.676-.674l.763.763Zm-5.154,17a.887.887,0,0,1,.885-.885h6.382a.887.887,0,0,1,.887.885V29.9a.89.89,0,0,1-.887.885H12.652a.89.89,0,0,1-.885-.885Zm7.2.069H12.721v6.245h6.245Zm-7.2-19.06a.891.891,0,0,1,.885-.887h6.382a.891.891,0,0,1,.887.887v6.382a.89.89,0,0,1-.887.885H12.652a.888.888,0,0,1-.885-.885Zm7.2.069H12.721v6.245h6.245Zm-7.2,9.427a.888.888,0,0,1,.885-.885h6.382a.887.887,0,0,1,.887.885V20.4a.889.889,0,0,1-.887.885H12.652a.888.888,0,0,1-.885-.885Zm7.2.069H12.721v6.245h6.245Z" transform="translate(-11.767 -3.638)" fill="#324458"/>
    </g>
    <g id="Group_13139" data-name="Group 13139" transform="translate(307.717 377.819)">
      <g id="Group_13127" data-name="Group 13127">
        <path id="Path_19314" data-name="Path 19314" d="M145.31,176.035a2.017,2.017,0,1,0-2.017-2.017A2.017,2.017,0,0,0,145.31,176.035Zm0-3.25a1.237,1.237,0,1,1-1.237,1.237A1.237,1.237,0,0,1,145.31,172.784Zm0,0" transform="translate(-142.212 -172)" fill="#324458" stroke="#324458" stroke-width="0.1"/>
        <path id="Path_19315" data-name="Path 19315" d="M111.766,325.122a3.028,3.028,0,0,0-2.193.917,3.237,3.237,0,0,0-.905,2.291.391.391,0,0,0,.39.39h5.416a.391.391,0,0,0,.39-.39,3.237,3.237,0,0,0-.905-2.291,3.028,3.028,0,0,0-2.193-.917Zm-2.291,2.817a2.387,2.387,0,0,1,.656-1.354,2.3,2.3,0,0,1,3.27,0,2.4,2.4,0,0,1,.656,1.354Zm0,0" transform="translate(-108.668 -320.342)" fill="#324458" stroke="#324458" stroke-width="0.1"/>
      </g>
      <g id="Group_13128" data-name="Group 13128" transform="translate(0 9.534)">
        <path id="Path_19314-2" data-name="Path 19314" d="M145.31,176.035a2.017,2.017,0,1,0-2.017-2.017A2.017,2.017,0,0,0,145.31,176.035Zm0-3.25a1.237,1.237,0,1,1-1.237,1.237A1.237,1.237,0,0,1,145.31,172.784Zm0,0" transform="translate(-142.212 -172)" fill="#324458" stroke="#324458" stroke-width="0.1"/>
        <path id="Path_19315-2" data-name="Path 19315" d="M111.766,325.122a3.028,3.028,0,0,0-2.193.917,3.237,3.237,0,0,0-.905,2.291.391.391,0,0,0,.39.39h5.416a.391.391,0,0,0,.39-.39,3.237,3.237,0,0,0-.905-2.291,3.028,3.028,0,0,0-2.193-.917Zm-2.291,2.817a2.387,2.387,0,0,1,.656-1.354,2.3,2.3,0,0,1,3.27,0,2.4,2.4,0,0,1,.656,1.354Zm0,0" transform="translate(-108.668 -320.342)" fill="#324458" stroke="#324458" stroke-width="0.1"/>
      </g>
      <g id="Group_13130" data-name="Group 13130" transform="translate(0 18.735)">
        <path id="Path_19314-3" data-name="Path 19314" d="M145.31,176.035a2.017,2.017,0,1,0-2.017-2.017A2.017,2.017,0,0,0,145.31,176.035Zm0-3.25a1.237,1.237,0,1,1-1.237,1.237A1.237,1.237,0,0,1,145.31,172.784Zm0,0" transform="translate(-142.212 -172)" fill="#324458" stroke="#324458" stroke-width="0.1"/>
        <path id="Path_19315-3" data-name="Path 19315" d="M111.766,325.122a3.028,3.028,0,0,0-2.193.917,3.237,3.237,0,0,0-.905,2.291.391.391,0,0,0,.39.39h5.416a.391.391,0,0,0,.39-.39,3.237,3.237,0,0,0-.905-2.291,3.028,3.028,0,0,0-2.193-.917Zm-2.291,2.817a2.387,2.387,0,0,1,.656-1.354,2.3,2.3,0,0,1,3.27,0,2.4,2.4,0,0,1,.656,1.354Zm0,0" transform="translate(-108.668 -320.342)" fill="#324458" stroke="#324458" stroke-width="0.1"/>
      </g>
    </g>
  </g>
</svg>
