<svg xmlns="http://www.w3.org/2000/svg" width="22.681" height="23.497" viewBox="0 0 22.681 23.497">
  <g id="Group_13134" data-name="Group 13134" transform="translate(-112.85 -232.751)">
    <g id="Group_13133" data-name="Group 13133" transform="translate(100 -17.434)">
      <g id="Group_13078" data-name="Group 13078" transform="translate(13 250.335)">
        <g id="_3135788" data-name="3135788" transform="translate(0 0)">
          <g id="Group_13056" data-name="Group 13056">
            <path id="Subtraction_7" data-name="Subtraction 7" d="M16.712,23.2H1.681A1.683,1.683,0,0,1,0,21.515V1.681A1.683,1.683,0,0,1,1.681,0H13.209A1.693,1.693,0,0,1,14.4.492L17.9,4a1.693,1.693,0,0,1,.492,1.189V8.51a6.383,6.383,0,0,0-.68-.146V5.184a1.029,1.029,0,0,0-.023-.216H14.6A1.172,1.172,0,0,1,13.425,3.8V.7a.977.977,0,0,0-.216-.023H1.681a1,1,0,0,0-1,1V21.515a1,1,0,0,0,1,1H9.563c1.431,0,2.091-.015,2.374-.021l.171,0c.037,0,.051,0,.053.005s0,.005-.006.01l-.008.009h4.565a1,1,0,0,0,1-1v-.4a6.387,6.387,0,0,0,.68-.146v.544A1.683,1.683,0,0,1,16.712,23.2ZM14.1,1.16V3.8a.492.492,0,0,0,.491.491h2.637Z" fill="#324458" stroke="#324458" stroke-width="0.3"/>
          </g>
        </g>
      </g>
      <path id="Path_19330" data-name="Path 19330" d="M324.773,194.709h-7.817a.423.423,0,1,0,0,.843h7.817a.423.423,0,1,0,0-.843Z" transform="translate(-301.003 65.095)" fill="#324458" stroke="#324458" stroke-width="0.2"/>
      <path id="Path_19331" data-name="Path 19331" d="M322.53,239.922h-5.7a.434.434,0,0,0,0,.843h5.7a.434.434,0,0,0,0-.843Z" transform="translate(-301.003 24.423)" fill="#324458" stroke="#324458" stroke-width="0.2"/>
      <path id="Path_19332" data-name="Path 19332" d="M323.2,285.557a.39.39,0,0,0-.348-.422h-6a.429.429,0,0,0,0,.843h6A.39.39,0,0,0,323.2,285.557Z" transform="translate(-301.003 -23.201)" fill="#324458" stroke="#324458" stroke-width="0.2"/>
      <path id="Path_19333" data-name="Path 19333" d="M316.925,330.348a.422.422,0,1,0,0,.843h3.635a.422.422,0,1,0,0-.843Z" transform="translate(-301.003 -60.919)" fill="#324458" stroke="#324458" stroke-width="0.2"/>
      <path id="Path_19334" data-name="Path 19334" d="M159.725,48.663h-8.364a.908.908,0,0,0-.907.907v1.616a.908.908,0,0,0,.907.907h8.364a.908.908,0,0,0,.907-.907V49.57A.908.908,0,0,0,159.725,48.663Zm.064,2.522a.064.064,0,0,1-.064.064h-8.363a.064.064,0,0,1-.064-.064V49.57a.064.064,0,0,1,.064-.064h8.364a.064.064,0,0,1,.064.064v1.616Z" transform="translate(-134.955 204.931)" fill="#324458" stroke="#324458" stroke-width="0.2"/>
    </g>
    <g id="_54993" data-name="54993" transform="translate(124 242)">
      <g id="_x37__43_">
        <g id="Group_13132" data-name="Group 13132">
          <path id="Path_19329" data-name="Path 19329" d="M7.611,5.572,6.126,7.058V3.243a.36.36,0,1,0-.721,0V7.058L3.92,5.573a.36.36,0,1,0-.51.51L5.449,8.121a.353.353,0,0,0,.317.093.355.355,0,0,0,.317-.093L8.121,6.082a.361.361,0,0,0-.51-.51ZM5.766,0a5.766,5.766,0,1,0,5.766,5.766A5.766,5.766,0,0,0,5.766,0Zm0,10.811a5.045,5.045,0,1,1,5.045-5.045A5.045,5.045,0,0,1,5.766,10.811Z" fill="#324458"/>
        </g>
      </g>
    </g>
  </g>
</svg>
