<svg xmlns="http://www.w3.org/2000/svg" width="18.393" height="23.197" viewBox="0 0 18.393 23.197">
  <g id="مشمولین" transform="translate(-293.908 -374.367)">
    <g id="Group_13138" data-name="Group 13138" transform="translate(293.908 374.367)">
      <g id="Group_13078" data-name="Group 13078" transform="translate(0 0)">
        <g id="_3135788" data-name="3135788" transform="translate(0 0)">
          <g id="Group_13056" data-name="Group 13056">
            <path id="Subtraction_7" data-name="Subtraction 7" d="M17.9,4,14.4.492A1.681,1.681,0,0,0,13.209,0H1.681A1.683,1.683,0,0,0,0,1.681V20.667a.34.34,0,0,0,.68,0V1.681a1,1,0,0,1,1-1H13.209A1,1,0,0,1,13.425.7V3.8A1.173,1.173,0,0,0,14.6,4.969H17.69a1,1,0,0,1,.024.216V21.516a1,1,0,0,1-1,1H12.147c.037-.055.179,0-2.584,0H1.681a1,1,0,0,1-1-1V20.427a.34.34,0,1,0-.68,0v1.089A1.683,1.683,0,0,0,1.681,23.2H16.712a1.683,1.683,0,0,0,1.681-1.681V5.184A1.684,1.684,0,0,0,17.9,4Zm-3.8-.2V1.16l3.129,3.129H14.6A.492.492,0,0,1,14.1,3.8Z" fill="#324458"/>
          </g>
        </g>
      </g>
    </g>
    <g id="Group_13209" data-name="Group 13209" transform="translate(293.908 374.367)">
      <g id="Group_13078-2" data-name="Group 13078" transform="translate(0 0)">
        <g id="_3135788-2" data-name="3135788" transform="translate(0 0)">
          <g id="Group_13056-2" data-name="Group 13056">
            <path id="Subtraction_7-2" data-name="Subtraction 7" d="M17.9,4,14.4.492A1.681,1.681,0,0,0,13.209,0H1.681A1.683,1.683,0,0,0,0,1.681V20.667a.34.34,0,0,0,.68,0V1.681a1,1,0,0,1,1-1H13.209A1,1,0,0,1,13.425.7V3.8A1.173,1.173,0,0,0,14.6,4.969H17.69a1,1,0,0,1,.024.216V21.516a1,1,0,0,1-1,1H12.147c.037-.055.179,0-2.584,0H1.681a1,1,0,0,1-1-1V20.427a.34.34,0,1,0-.68,0v1.089A1.683,1.683,0,0,0,1.681,23.2H16.712a1.683,1.683,0,0,0,1.681-1.681V5.184A1.684,1.684,0,0,0,17.9,4Zm-3.8-.2V1.16l3.129,3.129H14.6A.492.492,0,0,1,14.1,3.8Z" fill="#324458"/>
          </g>
        </g>
      </g>
      <path id="Path_19400" data-name="Path 19400" d="M324.05,239.922h-7.133a.422.422,0,0,0,0,.843h7.133a.422.422,0,0,0,0-.843Z" transform="translate(-311.601 -220.913)" fill="#324458"/>
      <path id="Path_19402" data-name="Path 19402" d="M326.581,285.557a.481.481,0,0,0-.524-.422h-9.03a.431.431,0,1,0,0,.843h9.03A.481.481,0,0,0,326.581,285.557Z" transform="translate(-311.601 -268.536)" fill="#324458"/>
    </g>
    <g id="family" transform="translate(238.371 319.602)">
      <path id="Path_19093" data-name="Path 19093" d="M60.225,60.926l-.218.094v2.936a5.547,5.547,0,0,0,4.67,5.477l.057.009.057-.009a5.546,5.546,0,0,0,4.67-5.477V61.02l-.218-.094a11.443,11.443,0,0,0-9.017,0Zm1.713,6.223a4.827,4.827,0,0,1-.485-.652v-.83a1.278,1.278,0,0,1,2.2-.882,1.275,1.275,0,0,0,.092,1.5,2,2,0,0,0-1.011,1.584A4.814,4.814,0,0,1,61.939,67.149Zm.239-4.039a.555.555,0,1,1,.555.555A.555.555,0,0,1,62.178,63.11Zm3.111,2.364a.555.555,0,1,1-.555-.555A.555.555,0,0,1,65.289,65.474Zm-.555,3.236a4.818,4.818,0,0,1-1.278-.411V68.03a1.278,1.278,0,1,1,2.557,0V68.3A4.82,4.82,0,0,1,64.734,68.709Zm2.8-1.56a4.811,4.811,0,0,1-.8.723,2,2,0,0,0-1.011-1.584,1.275,1.275,0,0,0,.092-1.5,1.278,1.278,0,0,1,2.2.882v.83A4.829,4.829,0,0,1,67.53,67.149ZM66.181,63.11a.555.555,0,1,1,.555.555A.555.555,0,0,1,66.181,63.11Zm2.557.846A4.824,4.824,0,0,1,68.623,65a2.012,2.012,0,0,0-.9-1.076,1.278,1.278,0,1,0-1.97,0,1.991,1.991,0,0,0-.487.387,1.274,1.274,0,0,0-1.058,0,1.991,1.991,0,0,0-.487-.387,1.278,1.278,0,1,0-1.97,0,2.012,2.012,0,0,0-.9,1.076,4.824,4.824,0,0,1-.114-1.044V61.5a10.721,10.721,0,0,1,8.007,0Z" transform="translate(0 0)" fill="#324458"/>
    </g>
  </g>
</svg>
