<svg xmlns="http://www.w3.org/2000/svg" width="22.999" height="26.66" viewBox="0 0 22.999 26.66">
  <g id="insurance_3_" data-name="insurance (3)" transform="translate(0 0)">
    <path id="Path_13333" data-name="Path 13333" d="M26.055,274.142v-4.81l-5.028-2.467L16,269.324v4.818a3.705,3.705,0,0,0,.374,1.5,3.986,3.986,0,0,0,1.264,1.594l3.389,2.309,3.389-2.309A4.262,4.262,0,0,0,26.055,274.142Zm-2.5-2.092-2.931,2.858a.358.358,0,0,1-.5,0L18.5,273.321a.358.358,0,0,1,.5-.512l1.377,1.343,2.681-2.615a.358.358,0,0,1,.5.512Z" transform="translate(-16 -252.886)" fill="#b7bdc4"/>
    <path id="Path_13334" data-name="Path 13334" d="M213.948,329.508v5.071h4.786v-5.071H216.7v5.05h-.715v-5.05Z" transform="translate(-202.152 -311.797)" fill="#b7bdc4"/>
    <path id="Path_13335" data-name="Path 13335" d="M167.795,32.313h10.286v3.455H167.795Z" transform="translate(-158.749 -32.313)" fill="#b7bdc4"/>
    <path id="Path_13337" data-name="Path 13337" d="M123.877,102.3h-17.62v9.182l5.192,2.547a.358.358,0,0,1,.2.321v5.033a4.221,4.221,0,0,1-.319,1.526h.63v-5.429a.358.358,0,0,1,.358-.358h5.5a.358.358,0,0,1,.358.358v5.429h1.782a.358.358,0,0,1,.358.358v1.708H119.6v-1.351h-8.617a4.59,4.59,0,0,1-1.154,1.351H108.7a.358.358,0,0,0,0,.715h15.179Zm-3.065,10.39h-11.49a.358.358,0,0,1,0-.715h11.49a.358.358,0,0,1,0,.715Zm0-3.056h-11.49a.358.358,0,0,1,0-.715h11.49a.358.358,0,0,1,0,.715Zm0-3.667h-11.49a.358.358,0,0,1,0-.715h11.49a.358.358,0,0,1,0,.715Z" transform="translate(-100.879 -98.129)" fill="#b7bdc4"/>
  </g>
</svg>
