<svg xmlns="http://www.w3.org/2000/svg" width="26" height="25.922" viewBox="0 0 26 25.922">
  <g id="Group_5715" data-name="Group 5715" transform="translate(-1182.958 -623.568)">
    <path id="Path_12663" data-name="Path 12663" d="M575.906,94.618v4.99c0,.833.232,1.059,1.079,1.062H582v17.773a1.823,1.823,0,0,1-2.04,2.043q-7.863.008-15.723,0a1.8,1.8,0,0,1-1.986-1.409.952.952,0,0,1,.19-.712,21.24,21.24,0,0,1,1.638-1.641.777.777,0,0,1,.637-.137,8.042,8.042,0,0,0,9.53-3.337.973.973,0,0,1,.678-.376c1.024-.042,2.049-.016,3.074-.022.6,0,.971-.311.954-.772-.015-.44-.37-.73-.936-.735-.942-.009-1.884,0-2.889,0a9.161,9.161,0,0,1,.243-1.263.6.6,0,0,1,.464-.263c.714-.028,1.431,0,2.146-.01.614-.008.976-.3.972-.759s-.368-.744-.981-.748c-.847-.006-1.694,0-2.564,0-.1-.527-.182-.992-.281-1.537h2.72c.211,0,.5.037.616-.079a1.329,1.329,0,0,0,.455-.777c.01-.412-.341-.636-.755-.644a14.722,14.722,0,0,0-2.437.017c-1.243.187-1.734-.563-2.2-1.56h2.443c.7,0,1.393,0,2.089-.006.547-.007.928-.332.888-.772a.775.775,0,0,0-.877-.735q-3.017,0-6.034-.009a1.819,1.819,0,0,1-.776-.16,7.917,7.917,0,0,0-8.693.674c-.088.063-.189.108-.348.2-.015-.247-.035-.433-.036-.617V96.55a1.8,1.8,0,0,1,1.887-1.973c3.829-.017,7.659-.007,11.488,0A3.267,3.267,0,0,1,575.906,94.618Zm-6.045,4.536c-1.236,0-2.472-.006-3.713,0-.58,0-.895.288-.893.757s.325.748.9.75q3.62.008,7.243,0c.627,0,.955-.276.95-.76s-.333-.746-.96-.748c-1.174-.008-2.352,0-3.531,0Zm6.266,16.739h0c.656,0,1.311.01,1.966,0a.788.788,0,0,0,.855-.75.778.778,0,0,0-.853-.752q-1.938-.021-3.875,0a.743.743,0,0,0-.839.752c0,.449.3.736.837.746.638.008,1.276,0,1.911,0Z" transform="translate(626.963 529)" fill="#b7bdc4"/>
    <path id="Path_12664" data-name="Path 12664" d="M563.1,174.337a3.9,3.9,0,0,0-2.124-2.719c1.015-2.143.8-3.644-.651-4.758a3.322,3.322,0,0,0-4.083.124c-1.357,1.173-1.532,2.736-.487,4.613a3.98,3.98,0,0,0-2.118,2.662c-1.257-.706-2.034-3.463-1.6-5.613a6.455,6.455,0,1,1,11.063,5.691Z" transform="translate(636.027 468.034)" fill="#b7bdc4"/>
    <path id="Path_12665" data-name="Path 12665" d="M513.621,258.614l2.14,2.139c-.649.634-1.437,1.392-2.218,2.165-.632.624-1.25,1.264-1.886,1.886a1.528,1.528,0,1,1-2.155-2.15c1.319-1.332,2.649-2.654,3.975-3.978a3.384,3.384,0,0,1,.262-.216Z" transform="translate(674 384.126)" fill="#b7bdc4"/>
    <path id="Path_12666" data-name="Path 12666" d="M581.966,243.346h.7a2.379,2.379,0,0,1,2.609,2.415.589.589,0,0,1-.217.45,6.469,6.469,0,0,1-6.257-.008.549.549,0,0,1-.217-.4,2.389,2.389,0,0,1,2.575-2.455C581.425,243.345,581.7,243.346,581.966,243.346Z" transform="translate(612.457 397.486)" fill="#b7bdc4"/>
    <path id="Path_12667" data-name="Path 12667" d="M593.83,199.66a1.775,1.775,0,1,1-1.77,1.78A1.794,1.794,0,0,1,593.83,199.66Z" transform="translate(600.541 436.103)" fill="#b7bdc4"/>
    <path id="Path_12668" data-name="Path 12668" d="M693.7,100.19l3.953,3.923h-2.836c-1.117,0-1.117,0-1.117-1.131C693.7,102.052,693.7,101.117,693.7,100.19Z" transform="translate(510.696 524.03)" fill="#b7bdc4"/>
  </g>
</svg>
