<svg xmlns="http://www.w3.org/2000/svg" width="23.844" height="26.858" viewBox="0 0 23.844 26.858">
  <g id="contract_4_" data-name="contract (4)" transform="translate(0)">
    <g id="Group_7462" data-name="Group 7462" transform="translate(0.393 0.393)">
      <g id="Group_7461" data-name="Group 7461">
        <g id="Group_7460" data-name="Group 7460">
          <g id="Group_7449" data-name="Group 7449">
            <g id="Group_7448" data-name="Group 7448">
              <g id="Group_7447" data-name="Group 7447">
                <g id="Group_7446" data-name="Group 7446">
                  <g id="Group_7445" data-name="Group 7445">
                    <g id="Group_7444" data-name="Group 7444">
                      <g id="Group_7443" data-name="Group 7443">
                        <g id="Group_7442" data-name="Group 7442">
                          <g id="Group_7441" data-name="Group 7441">
                            <g id="Group_7440" data-name="Group 7440">
                              <path id="Path_13292" data-name="Path 13292" d="M37.855,7.5a1.621,1.621,0,0,0-1.621,1.621V30a1.621,1.621,0,0,0,1.621,1.621H53.091A1.621,1.621,0,0,0,54.712,30V12.5a1.228,1.228,0,0,0-.36-.868l-3.77-3.77a1.227,1.227,0,0,0-.868-.36Z" transform="translate(-36.234 -7.5)" fill="#b7bdc4"/>
                              <path id="Path_13294" data-name="Path 13294" d="M307.036,13.627l-3.77-3.77a1.227,1.227,0,0,0-.36-.249v2.758a1.621,1.621,0,0,0,1.621,1.621h2.758A1.228,1.228,0,0,0,307.036,13.627Z" transform="translate(-288.918 -9.497)" fill="#b7bdc4"/>
                            </g>
                          </g>
                        </g>
                      </g>
                    </g>
                  </g>
                </g>
              </g>
            </g>
          </g>
          <g id="Group_7459" data-name="Group 7459" transform="translate(3.073 13.269)">
            <g id="Group_7457" data-name="Group 7457" transform="translate(0.899 1.055)">
              <g id="Group_7456" data-name="Group 7456">
                <g id="Group_7451" data-name="Group 7451">
                  <g id="Group_7450" data-name="Group 7450">
                    <path id="Path_13295" data-name="Path 13295" d="M127.741,287.308l-5.788-3.428a.625.625,0,0,1-.219-.856l.3-.5-1.171-.693a1.761,1.761,0,0,0-1.831-.256l-.76.294a1.617,1.617,0,0,1-1.407-.117l-2.033-1.2-2.888,4.874,2.6,1.537a1.616,1.616,0,0,1,.456.4l.877,1.138A10.094,10.094,0,0,0,118,290.187l3.348,1.984a.93.93,0,1,0,.948-1.6l1.046.62a.93.93,0,0,0,.948-1.6l.7.413a.93.93,0,0,0,.948-1.6l.853.506a.93.93,0,1,0,.948-1.6Z" transform="translate(-111.941 -280.553)" fill="#b7bdc4"/>
                  </g>
                  <path id="Path_13296" data-name="Path 13296" d="M251.408,387.976l-1.995-1.181a1.067,1.067,0,0,1-.267.479,1.108,1.108,0,0,1-1.361.167l-.567-.336a.05.05,0,0,0-.066.072,1.083,1.083,0,0,1-1.438,1.555l-.446-.266a.043.043,0,0,0-.056.063,1.082,1.082,0,0,1,.059,1.223,1.1,1.1,0,0,1-1.5.348l-.366-.217a.214.214,0,0,0-.319.226,1.079,1.079,0,0,1-.635,1.211L245,392.827a.95.95,0,0,0,1.3-.329.93.93,0,0,0-.335-1.259l1.025.607a.95.95,0,0,0,1.3-.329.93.93,0,0,0-.335-1.259l.676.4a.95.95,0,0,0,1.3-.329.93.93,0,0,0-.335-1.259l.832.493a.95.95,0,0,0,1.3-.329A.93.93,0,0,0,251.408,387.976Z" transform="translate(-235.608 -381.222)" fill="#b7bdc4"/>
                </g>
                <g id="Group_7452" data-name="Group 7452" transform="translate(8.281 0.291)">
                  <path id="Path_13297" data-name="Path 13297" d="M276.823,286.1l-1.561.908a1.617,1.617,0,0,1-1.407.117l-.857-.337a1.376,1.376,0,0,0-.841-.053l-1.312.332a1.377,1.377,0,0,0-1.039,1.335v1.752a.449.449,0,0,0,.448.449,1.352,1.352,0,0,0,1.353-1.352v-.074l5.618,3.327a1.619,1.619,0,0,1,.355-.284l2.132-1.245Z" transform="translate(-269.805 -286.104)" fill="#b7bdc4"/>
                </g>
                <g id="Group_7453" data-name="Group 7453" transform="translate(12.468 1.697)">
                  <path id="Path_13298" data-name="Path 13298" d="M353.291,312.905l-.3,1.113-3.363,1.971,3.232,1.914a1.617,1.617,0,0,1,.355-.285l2.132-1.245Z" transform="translate(-349.627 -312.905)" fill="#b7bdc4"/>
                </g>
                <g id="Group_7455" data-name="Group 7455" transform="translate(1.532 5.971)">
                  <g id="Group_7454" data-name="Group 7454">
                    <path id="Path_13299" data-name="Path 13299" d="M143.363,395.847l-.527.734a.93.93,0,1,1-1.511-1.085l.527-.734a.93.93,0,1,1,1.511,1.085Z" transform="translate(-141.151 -394.375)" fill="#b7bdc4"/>
                    <path id="Path_13300" data-name="Path 13300" d="M172.743,401.086l-1.108,1.543a.93.93,0,0,1-1.511-1.085L171.232,400a.93.93,0,1,1,1.511,1.085Z" transform="translate(-168.439 -399.339)" fill="#b7bdc4"/>
                    <path id="Path_13301" data-name="Path 13301" d="M201.541,421.761l-1.108,1.543a.93.93,0,1,1-1.511-1.085l1.108-1.543a.93.93,0,0,1,1.511,1.085Z" transform="translate(-195.726 -418.929)" fill="#b7bdc4"/>
                  </g>
                  <path id="Path_13302" data-name="Path 13302" d="M234.312,455.508l-.368.513a.93.93,0,1,1-1.511-1.085l.368-.513a.93.93,0,1,1,1.511,1.085Z" transform="translate(-227.479 -450.906)" fill="#b7bdc4"/>
                </g>
              </g>
            </g>
            <g id="Group_7458" data-name="Group 7458">
              <path id="Path_13303" data-name="Path 13303" d="M99.686,260.989l-.814-.482a.471.471,0,0,0-.646.165l-3.348,5.652a.471.471,0,0,0,.165.646l.814.482a1.15,1.15,0,0,0,1.575-.4l2.657-4.485A1.15,1.15,0,0,0,99.686,260.989Z" transform="translate(-94.812 -260.441)" fill="#b7bdc4"/>
              <path id="Path_13304" data-name="Path 13304" d="M373.473,260.506l-.814.482a1.15,1.15,0,0,0-.4,1.575l2.657,4.485a1.15,1.15,0,0,0,1.575.4l.814-.482a.471.471,0,0,0,.165-.646l-3.348-5.652A.472.472,0,0,0,373.473,260.506Z" transform="translate(-357.549 -260.44)" fill="#b7bdc4"/>
            </g>
          </g>
        </g>
      </g>
    </g>
    <g id="Group_7465" data-name="Group 7465" transform="translate(0 0)">
      <g id="Group_7464" data-name="Group 7464" transform="translate(0 0)">
        <g id="Group_7463" data-name="Group 7463">
          <path id="Path_13305" data-name="Path 13305" d="M95.49,137.8H82.628a.489.489,0,0,0,0,.96H95.49a.489.489,0,0,0,0-.96Z" transform="translate(-79.426 -130.575)" fill="#324458"/>
          <path id="Path_13306" data-name="Path 13306" d="M82.628,86.512h6.431a.486.486,0,0,0,0-.955H82.628a.486.486,0,0,0,0,.955Z" transform="translate(-79.426 -81.069)" fill="#324458"/>
          <path id="Path_13307" data-name="Path 13307" d="M95.49,184.1H82.628a.5.5,0,0,0,0,.973H95.49a.5.5,0,0,0,0-.973Z" transform="translate(-79.426 -174.439)" fill="#324458"/>
          <path id="Path_13308" data-name="Path 13308" d="M36.079,24.195l-5.334-.081a1.227,1.227,0,0,1-1.225-1.225V2.015A1.227,1.227,0,0,1,30.745.79H42.6A.845.845,0,0,1,42.717.8V3.263a2.018,2.018,0,0,0,2.015,2.015H47.2a.839.839,0,0,1,.009.113l.1,8.353a.4.4,0,1,0,.79,0L48,5.392a1.612,1.612,0,0,0-.475-1.147L43.751.475A1.612,1.612,0,0,0,42.6,0H30.745A2.018,2.018,0,0,0,28.73,2.015V22.888A2.018,2.018,0,0,0,30.745,24.9l5.334.081a.4.4,0,1,0,0-.79ZM46.646,4.488H44.732a1.227,1.227,0,0,1-1.225-1.225V1.349Z" transform="translate(-28.73 0)" fill="#324458"/>
          <path id="Path_13309" data-name="Path 13309" d="M107.946,258.978l-3.348-5.651a.866.866,0,0,0-1.187-.3l-.814.482a1.547,1.547,0,0,0-.682,1.8,1.211,1.211,0,0,1-.852-.009c-.643-.2-1.132-.609-1.939-.405-1.371.349-1.329.332-1.453.374a2.112,2.112,0,0,0-2.137-.263l-.759.294a1.215,1.215,0,0,1-1.064-.089l-.207-.122a1.544,1.544,0,0,0-.737-1.583h0l-.814-.482a.868.868,0,0,0-1.187.3l-3.348,5.651a.866.866,0,0,0,.3,1.187l.814.482a1.535,1.535,0,0,0,.785.215,1.555,1.555,0,0,0,.844-.249l.17.1-.358.5a1.324,1.324,0,0,0,1.282,2.08,1.323,1.323,0,0,0,1.511,1.085,1.324,1.324,0,0,0,1.828.994,1.323,1.323,0,0,0,2.251.372l.952.564a1.327,1.327,0,0,0,1.992-.982h0a1.325,1.325,0,0,0,2-1.042,1.325,1.325,0,0,0,1.642-1.146,1.326,1.326,0,0,0,1.5-2.087l.525-.307a1.541,1.541,0,0,0,1.375-.1l.814-.482a.866.866,0,0,0,.3-1.187Zm-19.008.99-.814-.482a.076.076,0,0,1-.027-.1l3.348-5.651a.076.076,0,0,1,.1-.027l.814.482a.754.754,0,0,1,.265,1.034L89.971,259.7A.755.755,0,0,1,88.938,259.968Zm1.8,2.452a.534.534,0,0,1-.122-.746l.527-.734a.535.535,0,0,1,.869.624l-.527.734A.535.535,0,0,1,90.739,262.42ZM92.25,263.5a.535.535,0,0,1-.122-.746l.527-.733h0l.581-.81a.535.535,0,1,1,.868.624L93,263.382A.534.534,0,0,1,92.25,263.5Zm1.511,1.084a.535.535,0,0,1-.123-.746h0l1.108-1.543a.535.535,0,1,1,.869.624l-.492.686h0l-.616.857A.535.535,0,0,1,93.76,264.589Zm1.758.74a.535.535,0,0,1-.123-.746l.369-.514a.535.535,0,0,1,.869.624l-.368.513A.535.535,0,0,1,95.518,265.329Zm8.856-3.15a.535.535,0,0,1-.733.188l-3.5-2.072a.4.4,0,1,0-.4.68l2.644,1.566h0a.535.535,0,0,1-.545.92l-2.645-1.567a.4.4,0,1,0-.4.68l1.948,1.154h0a.535.535,0,0,1-.546.92l-1.045-.619h0l-.763-.452a.4.4,0,0,0-.4.68l.763.452h0a.535.535,0,1,1-.545.92l-.89-.527a1.324,1.324,0,0,0-.89-2.025,1.324,1.324,0,0,0-1.445-1.772,1.325,1.325,0,0,0-2.247-.708,1.324,1.324,0,0,0-1.842-.473l-.181-.107,2.485-4.194.118.07a2,2,0,0,0,1.751.146l.759-.294a1.166,1.166,0,0,1,1.1.024,1.769,1.769,0,0,0-.448,1.178V258.7a.845.845,0,0,0,.843.844h0a1.75,1.75,0,0,0,1.654-1.183l5.214,3.087a.535.535,0,0,1,.187.733Zm2.866-2.693-.814.482a.755.755,0,0,1-1.034-.265l-1.245-2.1a.4.4,0,0,0-.68.4l1.245,2.1c.023.04.049.077.075.114l-.346.2a2,2,0,0,0-.2.137l-5.368-3.179a.4.4,0,0,0-.6.34,1.009,1.009,0,0,1-.28.751.951.951,0,0,1-.676.28h0a.054.054,0,0,1-.054-.054v-1.752a.983.983,0,0,1,.741-.951l1.312-.332c.476-.12.745.134,1.458.375a2,2,0,0,0,1.511-.024l.238.4a.4.4,0,1,0,.68-.4l-.47-.793a.754.754,0,0,1,.265-1.034l.814-.482a.076.076,0,0,1,.1.027l3.348,5.651a.076.076,0,0,1-.027.1Z" transform="translate(-84.224 -239.635)" fill="#324458"/>
        </g>
      </g>
    </g>
  </g>
</svg>
