<svg xmlns="http://www.w3.org/2000/svg" width="18.393" height="23.197" viewBox="0 0 18.393 23.197">
  <g id="curriculum-vitae" transform="translate(-53.014)">
    <g id="Group_13210" data-name="Group 13210" transform="translate(53.014 0)">
      <path id="Path_19411" data-name="Path 19411" d="M116.817,273.165H103.629a.34.34,0,1,0,0,.68h13.188a.34.34,0,0,0,0-.68Z" transform="translate(-101.011 -260.789)" fill="#324458"/>
      <path id="Path_19412" data-name="Path 19412" d="M116.817,324.939H103.629a.34.34,0,1,0,0,.68h13.188a.34.34,0,0,0,0-.68Z" transform="translate(-101.011 -310.217)" fill="#324458"/>
      <path id="Path_19413" data-name="Path 19413" d="M117.157,377.053a.34.34,0,0,0-.34-.34H103.629a.34.34,0,1,0,0,.68h13.188A.34.34,0,0,0,117.157,377.053Z" transform="translate(-101.011 -359.646)" fill="#324458"/>
      <path id="Path_19414" data-name="Path 19414" d="M103.629,428.486a.34.34,0,0,0,0,.68h6.579a.34.34,0,1,0,0-.68Z" transform="translate(-101.011 -409.073)" fill="#324458"/>
      <path id="Path_19415" data-name="Path 19415" d="M292.606,185.506H287.76a.34.34,0,1,0,0,.679h4.846a.34.34,0,1,0,0-.679Z" transform="translate(-276.8 -177.101)" fill="#324458"/>
      <path id="Path_19416" data-name="Path 19416" d="M292.606,144.843H287.76a.34.34,0,0,0,0,.68h4.846a.34.34,0,1,0,0-.68Z" transform="translate(-276.8 -138.281)" fill="#324458"/>
      <path id="Path_19417" data-name="Path 19417" d="M71.067,19.3a.34.34,0,0,0,.34-.34V5.184A1.675,1.675,0,0,0,70.915,4C67.314.407,67.407.455,67.178.3a1.669,1.669,0,0,0-.955-.3H54.7a1.683,1.683,0,0,0-1.681,1.681V21.516A1.683,1.683,0,0,0,54.7,23.2H69.726a1.683,1.683,0,0,0,1.681-1.681v-.962a.34.34,0,0,0-.68,0v.962a1,1,0,0,1-1,1H54.7a1,1,0,0,1-1-1V1.681a1,1,0,0,1,1-1H66.223A1.008,1.008,0,0,1,66.439.7V3.8A1.173,1.173,0,0,0,67.61,4.968H70.7a1.008,1.008,0,0,1,.024.216V18.959A.34.34,0,0,0,71.067,19.3ZM67.61,4.289a.492.492,0,0,1-.492-.492V1.16l3.129,3.129Z" transform="translate(-53.014 0)" fill="#324458"/>
      <path id="Path_19418" data-name="Path 19418" d="M102.958,67.988a.34.34,0,0,0-.34.34v3.041a1.123,1.123,0,0,0,1.122,1.122h3.991a1.123,1.123,0,0,0,1.122-1.122V66.421a1.123,1.123,0,0,0-1.122-1.122H103.74a1.123,1.123,0,0,0-1.122,1.122v.319a.34.34,0,0,0,.68,0v-.319a.443.443,0,0,1,.442-.442h3.991a.443.443,0,0,1,.442.442v3.986a3.243,3.243,0,0,0-1.125-.819,1.586,1.586,0,1,0-2.626,0,3.244,3.244,0,0,0-1.125.819V68.328A.34.34,0,0,0,102.958,67.988Zm2.778-.194a.906.906,0,1,1-.906.906A.907.907,0,0,1,105.735,67.795Zm-.742,2.307a1.581,1.581,0,0,0,1.483,0,2.57,2.57,0,0,1,1.641,1.482.443.443,0,0,1-.387.228H103.74a.443.443,0,0,1-.387-.228A2.569,2.569,0,0,1,104.994,70.1Z" transform="translate(-100.371 -62.341)" fill="#324458"/>
    </g>
  </g>
</svg>
