<svg xmlns="http://www.w3.org/2000/svg" width="30.55" height="32.377" viewBox="0 0 30.55 32.377">
  <g id="Group_13131" data-name="Group 13131" transform="translate(-12.85 -250.185)">
    <g id="Group_13129" data-name="Group 13129" transform="translate(15.385 255.648)">
      <g id="_3565856" data-name="3565856" transform="translate(6.293 1.848)">
        <path id="Path_19296" data-name="Path 19296" d="M264.514,243.2a.408.408,0,0,0-.577.577l.613.613a.408.408,0,0,0,.57.006l1.126-1.077a.408.408,0,1,0-.564-.589l-.838.8Z" transform="translate(-255.149 -240.929)" fill="#324458"/>
        <path id="Path_19298" data-name="Path 19298" d="M136.674,294.816h3.769a.408.408,0,0,0,0-.816h-3.769a.408.408,0,0,0,0,.816Z" transform="translate(-136.266 -289.834)" fill="#324458"/>
        <path id="Path_19301" data-name="Path 19301" d="M246.495,100.439a2.634,2.634,0,1,0-2.634-2.634A2.634,2.634,0,0,0,246.495,100.439Zm0-4.452a1.818,1.818,0,1,1-1.818,1.818,1.818,1.818,0,0,1,1.818-1.818Z" transform="translate(-236.548 -95.172)" fill="#324458" stroke="#324458" stroke-width="0.1"/>
        <path id="Path_19304" data-name="Path 19304" d="M246.494,340.407a2.634,2.634,0,1,0,2.634,2.634A2.634,2.634,0,0,0,246.494,340.407Zm0,4.452a1.818,1.818,0,1,1,1.818-1.818,1.818,1.818,0,0,1-1.818,1.818Z" transform="translate(-236.547 -332.073)" fill="#324458" stroke="#324458" stroke-width="0.2"/>
        <path id="Path_19318" data-name="Path 19318" d="M246.494,340.407a2.634,2.634,0,1,0,2.634,2.634A2.634,2.634,0,0,0,246.494,340.407Zm0,4.452a1.818,1.818,0,1,1,1.818-1.818,1.818,1.818,0,0,1-1.818,1.818Z" transform="translate(-236.547 -324.244)" fill="#324458" stroke="#324458" stroke-width="0.2"/>
        <path id="Path_19306" data-name="Path 19306" d="M140.443,417h-3.769a.408.408,0,0,0,0,.816h3.769a.408.408,0,1,0,0-.816Z" transform="translate(-136.266 -404.474)" fill="#324458"/>
        <path id="Path_19317" data-name="Path 19317" d="M140.443,417h-3.769a.408.408,0,0,0,0,.816h3.769a.408.408,0,1,0,0-.816Z" transform="translate(-136.266 -396.645)" fill="#324458"/>
        <path id="Path_19308" data-name="Path 19308" d="M142.269,256h-5.595a.408.408,0,0,0,0,.816h5.595a.408.408,0,0,0,0-.816Z" transform="translate(-136.266 -253.403)" fill="#324458"/>
        <path id="Path_19310" data-name="Path 19310" d="M142.269,379h-5.595a.408.408,0,0,0,0,.816h5.595a.408.408,0,0,0,0-.816Z" transform="translate(-136.266 -368.043)" fill="#324458"/>
        <path id="Path_19316" data-name="Path 19316" d="M142.269,379h-5.595a.408.408,0,0,0,0,.816h5.595a.408.408,0,0,0,0-.816Z" transform="translate(-136.266 -360.214)" fill="#324458"/>
      </g>
      <g id="Group_13127" data-name="Group 13127">
        <path id="Path_19314" data-name="Path 19314" d="M145.01,175.433a1.717,1.717,0,1,0-1.717-1.717A1.717,1.717,0,0,0,145.01,175.433Zm0-2.766a1.053,1.053,0,1,1-1.053,1.053A1.052,1.052,0,0,1,145.01,172.667Zm0,0" transform="translate(-142.373 -172)" fill="#324458" stroke="#324458" stroke-width="0.1"/>
        <path id="Path_19315" data-name="Path 19315" d="M111.3,325.122a2.576,2.576,0,0,0-1.866.78,2.754,2.754,0,0,0-.77,1.949.333.333,0,0,0,.332.332h4.609a.333.333,0,0,0,.332-.332,2.754,2.754,0,0,0-.77-1.949,2.576,2.576,0,0,0-1.866-.78Zm-1.949,2.4a2.031,2.031,0,0,1,.558-1.152,1.956,1.956,0,0,1,2.782,0,2.042,2.042,0,0,1,.558,1.152Zm0,0" transform="translate(-108.668 -321.055)" fill="#324458" stroke="#324458" stroke-width="0.1"/>
      </g>
      <g id="Group_13128" data-name="Group 13128" transform="translate(0 8.112)">
        <path id="Path_19314-2" data-name="Path 19314" d="M145.01,175.433a1.717,1.717,0,1,0-1.717-1.717A1.717,1.717,0,0,0,145.01,175.433Zm0-2.766a1.053,1.053,0,1,1-1.053,1.053A1.052,1.052,0,0,1,145.01,172.667Zm0,0" transform="translate(-142.373 -172)" fill="#324458" stroke="#324458" stroke-width="0.1"/>
        <path id="Path_19315-2" data-name="Path 19315" d="M111.3,325.122a2.576,2.576,0,0,0-1.866.78,2.754,2.754,0,0,0-.77,1.949.333.333,0,0,0,.332.332h4.609a.333.333,0,0,0,.332-.332,2.754,2.754,0,0,0-.77-1.949,2.576,2.576,0,0,0-1.866-.78Zm-1.949,2.4a2.031,2.031,0,0,1,.558-1.152,1.956,1.956,0,0,1,2.782,0,2.042,2.042,0,0,1,.558,1.152Zm0,0" transform="translate(-108.668 -321.055)" fill="#324458" stroke="#324458" stroke-width="0.1"/>
      </g>
      <g id="Group_13130" data-name="Group 13130" transform="translate(0 15.942)">
        <path id="Path_19314-3" data-name="Path 19314" d="M145.01,175.433a1.717,1.717,0,1,0-1.717-1.717A1.717,1.717,0,0,0,145.01,175.433Zm0-2.766a1.053,1.053,0,1,1-1.053,1.053A1.052,1.052,0,0,1,145.01,172.667Zm0,0" transform="translate(-142.373 -172)" fill="#324458" stroke="#324458" stroke-width="0.1"/>
        <path id="Path_19315-3" data-name="Path 19315" d="M111.3,325.122a2.576,2.576,0,0,0-1.866.78,2.754,2.754,0,0,0-.77,1.949.333.333,0,0,0,.332.332h4.609a.333.333,0,0,0,.332-.332,2.754,2.754,0,0,0-.77-1.949,2.576,2.576,0,0,0-1.866-.78Zm-1.949,2.4a2.031,2.031,0,0,1,.558-1.152,1.956,1.956,0,0,1,2.782,0,2.042,2.042,0,0,1,.558,1.152Zm0,0" transform="translate(-108.668 -321.055)" fill="#324458" stroke="#324458" stroke-width="0.1"/>
      </g>
      <circle id="Ellipse_535" data-name="Ellipse 535" cx="1.595" cy="1.595" r="1.595" transform="translate(16.316 12.928)" fill="#fff"/>
    </g>
    <g id="Group_13078" data-name="Group 13078" transform="translate(13 250.335)">
      <g id="_3135788" data-name="3135788" transform="translate(0 0)">
        <g id="Group_13056" data-name="Group 13056">
          <path id="Subtraction_7" data-name="Subtraction 7" d="M23.11,32.077H2.325A2.327,2.327,0,0,1,0,29.753V2.324A2.327,2.327,0,0,1,2.325,0H18.266A2.341,2.341,0,0,1,19.91.681l4.844,4.844a2.341,2.341,0,0,1,.681,1.644V12.91c-.312.038-.628.092-.94.162v-5.9a1.357,1.357,0,0,0-.033-.3H20.184a1.622,1.622,0,0,1-1.62-1.62V.972a1.347,1.347,0,0,0-.3-.033H2.325A1.387,1.387,0,0,0,.94,2.324V29.753a1.387,1.387,0,0,0,1.385,1.385h10.9c1.979,0,2.893-.021,3.283-.03l.237,0c.058,0,.071,0,.073.008s0,.008-.008.013l-.011.013h5.656a9.568,9.568,0,0,0,1.785.646A2.323,2.323,0,0,1,23.11,32.077ZM19.5,1.6V5.251a.68.68,0,0,0,.68.68h3.647Z" fill="#324458" stroke="#324458" stroke-width="0.3"/>
        </g>
      </g>
    </g>
    <g id="account" transform="translate(31.47 262.435) rotate(-1)">
      <path id="Path_19325" data-name="Path 19325" d="M10.966,14.06l.176-.242a2.012,2.012,0,0,0,.461-1.284.462.462,0,1,0-.924,0,1.11,1.11,0,0,1-.285.741l-.176.242a1.649,1.649,0,0,0-.316.973V15.73H4.129v-.987a2,2,0,0,0-.588-1.42L2.7,12.478a1.683,1.683,0,0,1-.5-1.2v-.472a6.535,6.535,0,0,0-.494-2.5L.946,6.461a.284.284,0,0,1,.344-.379,1.537,1.537,0,0,1,.918.749l.168.313a5.01,5.01,0,0,1,.511,1.45l.085.451a.462.462,0,0,0,.917-.085V1.43a.5.5,0,0,1,.132-.338l.006-.007a.5.5,0,0,1,.867.338V7.378a.462.462,0,0,0,.925,0V4.571a.4.4,0,0,1,.146-.307.526.526,0,0,1,.859.408V7.646a.462.462,0,1,0,.924,0V5.824a.914.914,0,0,1,.126-.477.46.46,0,0,1,.287-.212.432.432,0,0,1,.331.05l.034.021a.423.423,0,0,1,.2.361V8.128a.462.462,0,1,0,.925,0v-.82a.819.819,0,0,1,.147-.469.482.482,0,0,1,.884.27V8.89a.462.462,0,1,0,.924,0V7.109a1.416,1.416,0,0,0-1.158-1.392,1.377,1.377,0,0,0-.8.093V5.566a1.343,1.343,0,0,0-.635-1.145L8.975,4.4A1.349,1.349,0,0,0,7.94,4.236a1.408,1.408,0,0,0-.238.081A1.453,1.453,0,0,0,5.817,3.3V1.424A1.428,1.428,0,0,0,5.357.376,1.424,1.424,0,0,0,3.345.46L3.339.467a1.419,1.419,0,0,0-.376.963v4.86A2.452,2.452,0,0,0,1.555,5.2,1.208,1.208,0,0,0,.091,6.812L.851,8.662a5.62,5.62,0,0,1,.424,2.147v.472a2.6,2.6,0,0,0,.767,1.852l.845.845a1.077,1.077,0,0,1,.317.766v1H2.938a.463.463,0,0,0-.462.463l0,2.165a.462.462,0,0,0,.462.462h0l8.023,0a.463.463,0,0,0,.462-.463l0-2.165a.462.462,0,0,0-.462-.462h-.135v-1.25a.732.732,0,0,1,.14-.431ZM3.4,17.908l0-1.241,7.1,0,0,1.241Zm0,0" transform="translate(0 0)" fill="#324458"/>
      <path id="Path_19328" data-name="Path 19328" d="M.891.289A.462.462,0,0,0,.034.636l0,.011A.462.462,0,1,0,.9.3Zm0,0" transform="translate(10.677 10.237)" fill="#324458"/>
    </g>
  </g>
</svg>
