<svg xmlns="http://www.w3.org/2000/svg" width="23" height="30.891" viewBox="0 0 23 30.891">
  <g id="موارد_خاص" data-name="موارد خاص" transform="translate(-51.988 -0.001)">
    <g id="Group_8857" data-name="Group 8857" transform="translate(51.988 0.001)">
      <g id="Group_8856" data-name="Group 8856" transform="translate(0)">
        <rect id="Rectangle_4553" data-name="Rectangle 4553" width="3.569" height="3.172" transform="translate(3.569 11.065)" fill="#b7bdc4"/>
        <path id="Path_14453" data-name="Path 14453" d="M145.895,2.342h-2.26a.635.635,0,0,1-.595-.476A2.3,2.3,0,0,0,140.7,0a2.339,2.339,0,0,0-2.339,1.9.6.6,0,0,1-.595.436h-2.181V6.307h10.31Z" transform="translate(-129.24 -0.001)" fill="#b7bdc4"/>
        <path id="Path_14454" data-name="Path 14454" d="M74.987,86.484V63.763a1.626,1.626,0,0,0-1.621-1.63q-.062,0-.123,0h-3.41v2.022c0,.317-.2.753-.516.753h-11.7c-.317,0-.476-.436-.476-.753V62.137h-3.41a1.626,1.626,0,0,0-1.74,1.5q0,.062,0,.123V86.484a1.784,1.784,0,0,0,1.744,1.824h19.51a1.784,1.784,0,0,0,1.745-1.823ZM54.368,72.248V67.887a.6.6,0,0,1,.595-.595h4.758a.6.6,0,0,1,.595.595v4.362a.6.6,0,0,1-.595.595H54.962A.6.6,0,0,1,54.368,72.248Zm5.908,9-3.093,2.895a.555.555,0,0,1-.4.2.635.635,0,0,1-.436-.2l-1.626-1.665a.6.6,0,0,1,.872-.833l1.19,1.269,2.7-2.538a.595.595,0,0,1,.793.872Zm0-6.344h0L57.183,77.8a.555.555,0,0,1-.4.2.635.635,0,0,1-.436-.2l-1.626-1.665A.6.6,0,0,1,55.6,75.3l1.19,1.269,2.7-2.538a.595.595,0,0,1,.793.872ZM71.815,83.55h-9.12a.595.595,0,0,1,0-1.19h9.12a.595.595,0,0,1,0,1.19Zm0-6.344h-9.12a.595.595,0,0,1,0-1.19h9.12a.595.595,0,0,1,0,1.19Zm0-6.344h-9.12a.595.595,0,0,1,0-1.19h9.12a.595.595,0,0,1,0,1.19Z" transform="translate(-51.988 -57.417)" fill="#b7bdc4"/>
      </g>
    </g>
  </g>
</svg>
