<svg xmlns="http://www.w3.org/2000/svg" xmlns:xlink="http://www.w3.org/1999/xlink" width="30" height="30" viewBox="0 0 30 30">
  <defs>
    <clipPath id="clip-path8">
      <rect id="Rectangle_2082" data-name="Rectangle 2082" width="30" height="30" transform="translate(1878 521)" fill="#fff" stroke="#707070" stroke-width="1"/>
    </clipPath>
  </defs>
  <g id="presence" transform="translate(-1878 -521)">
    <g id="Mask_Group_25" data-name="Mask Group 25" clip-path="url(#clip-path8)">
      <g id="presentation_1_" data-name="presentation (1)" transform="translate(1878 521)">
        <g id="Group_4956" data-name="Group 4956">
          <g id="Group_4955" data-name="Group 4955">
            <path id="Path_12459" data-name="Path 12459" d="M27.044,24.194a3.7,3.7,0,1,0-5.259,0,5.627,5.627,0,0,0-2.077,1.922,5.628,5.628,0,0,0-2.077-1.922,3.7,3.7,0,1,0-5.259,0,5.626,5.626,0,0,0-2.077,1.922,5.628,5.628,0,0,0-2.077-1.922,3.7,3.7,0,1,0-5.259,0A5.591,5.591,0,0,0,0,29.121.879.879,0,0,0,.879,30H29.121A.879.879,0,0,0,30,29.121,5.591,5.591,0,0,0,27.044,24.194Z" />
          </g>
        </g>
        <g id="Group_4958" data-name="Group 4958">
          <g id="Group_4957" data-name="Group 4957">
            <path id="Path_12460" data-name="Path 12460" d="M23.47,0H6.527a.879.879,0,0,0-.879.879V13.116A.879.879,0,0,0,6.527,14H23.47a.879.879,0,0,0,.879-.879V.879A.879.879,0,0,0,23.47,0Z" />
          </g>
        </g>
      </g>
    </g>
    <path id="check" d="M2.755,5.848a.385.385,0,0,1-.273-.113L.114,3.367A.387.387,0,0,1,.66,2.82L2.755,4.915,7.217.452A.387.387,0,0,1,7.764,1L3.028,5.735a.386.386,0,0,1-.273.113Zm0,0" fill="#fff" transform="translate(1890 525.273)"  stroke-width="1"/>
  </g>
</svg>
