<svg  xmlns="http://www.w3.org/2000/svg" xmlns:xlink="http://www.w3.org/1999/xlink" width="30" height="30" viewBox="0 0 30 30">
  <g id="Group_12872" data-name="Group 12872" transform="translate(4.106)">
    <g id="Group_12871" data-name="Group 12871">
      <path id="Path_19120" data-name="Path 19120" d="M81,3.487h3.487V0Z" transform="translate(-81)" />
    </g>
  </g>
  <g id="Group_12874" data-name="Group 12874">
    <g id="Group_12873" data-name="Group 12873">
      <path id="Path_19121" data-name="Path 19121" d="M24.266,12.216h-.9v6.133H21.846V0H9.113V5.007H4.106V18.349H2.585V12.216h-.9L0,19.016v6.936H25.952V19.016ZM8.668,6.589h8.617V8.11H8.668Zm0,3.041h8.617v1.521H8.668Zm0,3.041h7.1v1.521h-7.1Zm15.764,11.76H1.521V19.87H7.147a.761.761,0,0,1,.76.76,2.284,2.284,0,0,0,2.281,2.281h5.576a2.284,2.284,0,0,0,2.281-2.281.761.761,0,0,1,.76-.76h5.626Z"/>
    </g>
  </g>
</svg>
