<svg xmlns="http://www.w3.org/2000/svg" width="27.626" height="29.25" viewBox="0 0 27.626 29.25">
  <g id="conracts" transform="translate(-14.192)">
    <g id="Group_5879" data-name="Group 5879" transform="translate(38.173 3.258)">
      <path id="Path_12788" data-name="Path 12788" d="M437.1,62.888V60.734a.351.351,0,0,0-.029-.139l-1.47-3.422a.352.352,0,0,0-.646,0L433.488,60.6a.352.352,0,0,0-.029.139v2.153Z" transform="translate(-433.459 -56.961)" />
      <path id="Path_12789" data-name="Path 12789" d="M433.46,190.581H437.1v13.038H433.46Z" transform="translate(-433.46 -182.938)" />
      <path id="Path_12790" data-name="Path 12790" d="M433.46,448.517v3.243a.352.352,0,0,0,.352.352h2.941a.352.352,0,0,0,.352-.352v-3.243Z" transform="translate(-433.46 -426.12)" />
    </g>
    <g id="Group_5880" data-name="Group 5880" transform="translate(14.192)">
      <path id="Path_12791" data-name="Path 12791" d="M98.857,280.759H110.9v4.992H98.857Z" transform="translate(-94.014 -264.7)" />
      <path id="Path_12792" data-name="Path 12792" d="M34,0H16.111a1.88,1.88,0,0,0-1.919,1.838V27.411a1.88,1.88,0,0,0,1.919,1.838H34a1.88,1.88,0,0,0,1.919-1.838V1.838A1.88,1.88,0,0,0,34,0ZM23.528,2.7h3.058a.858.858,0,1,1,0,1.716H23.528a.858.858,0,1,1,0-1.716ZM18.177,7.058h3.8a.858.858,0,1,1,0,1.716h-3.8a.858.858,0,0,1,0-1.716Zm0,3.434h3.8a.858.858,0,1,1,0,1.716h-3.8a.858.858,0,0,1,0-1.716Zm6.881,16.129a.917.917,0,1,1,.917-.917A.917.917,0,0,1,25.057,26.621ZM32.8,21.909a.858.858,0,0,1-.858.858H18.177a.858.858,0,0,1-.858-.858V15.2a.858.858,0,0,1,.858-.858H31.938a.858.858,0,0,1,.858.858Z" transform="translate(-14.192)" />
    </g>
  </g>
</svg>
