<svg xmlns="http://www.w3.org/2000/svg" xmlns:xlink="http://www.w3.org/1999/xlink" width="30" height="30" viewBox="0 0 30 30">
  <defs>
    <clipPath id="clip-path7">
      <rect id="Rectangle_2080" data-name="Rectangle 2080" width="30" height="30" transform="translate(1878 532)" fill="#fff" stroke="#707070" stroke-width="1"/>
    </clipPath>
  </defs>
  <g id="organization" transform="translate(-1878 -532)" clip-path="url(#clip-path7)">
    <g id="hierarchy" transform="translate(1878.004 532)">
      <path id="Path_12390" data-name="Path 12390" d="M11.325,11.457a8.055,8.055,0,0,0,7.347,0,.879.879,0,0,0,.477-.78l0-1.918a2.027,2.027,0,0,0-.6-1.443A2.1,2.1,0,0,0,17.08,6.7l-4.18,0a2.056,2.056,0,0,0-2.054,2.055l0,1.92a.879.879,0,0,0,.477.78Zm0,0" />
      <path id="Path_12391" data-name="Path 12391" d="M15,6.067a3.034,3.034,0,1,0-3.034-3.034A3.037,3.037,0,0,0,15,6.067Zm0,0" />
      <path id="Path_12392" data-name="Path 12392" d="M3.156,17.9a.879.879,0,0,0,.879-.879v-.146H14.172v.146a.879.879,0,0,0,1.758,0v-.146H26.066v.146a.879.879,0,0,0,1.758,0v-1s0-.009,0-.014,0-.01,0-.015a.879.879,0,0,0-.879-.879H15.93V15a.879.879,0,1,0-1.758,0v.117H3.156A.879.879,0,0,0,2.277,16s0,.009,0,.013,0,.011,0,.016v1a.879.879,0,0,0,.879.879Zm0,0" />
      <path id="Path_12393" data-name="Path 12393" d="M3.559,24.909a2.64,2.64,0,1,0-2.64-2.64,2.643,2.643,0,0,0,2.64,2.64Zm0,0" />
      <path id="Path_12394" data-name="Path 12394" d="M4.474,25.841H2.637A2.64,2.64,0,0,0,0,28.478v.643A.879.879,0,0,0,.879,30H6.232a.879.879,0,0,0,.879-.879v-.643A2.64,2.64,0,0,0,4.474,25.841Zm0,0" />
      <path id="Path_12395" data-name="Path 12395" d="M12.356,22.269A2.64,2.64,0,1,0,15,19.629,2.643,2.643,0,0,0,12.356,22.269Zm0,0" />
      <path id="Path_12396" data-name="Path 12396" d="M15.915,25.841H14.077a2.64,2.64,0,0,0-2.637,2.637v.643A.879.879,0,0,0,12.32,30h5.353a.879.879,0,0,0,.879-.879v-.643A2.64,2.64,0,0,0,15.915,25.841Zm0,0" />
      <path id="Path_12397" data-name="Path 12397" d="M23.8,22.269a2.64,2.64,0,1,0,2.64-2.64A2.643,2.643,0,0,0,23.8,22.269Zm0,0" />
      <path id="Path_12398" data-name="Path 12398" d="M27.356,25.841H25.518a2.64,2.64,0,0,0-2.637,2.637v.643A.879.879,0,0,0,23.76,30h5.353a.879.879,0,0,0,.879-.879v-.643a2.64,2.64,0,0,0-2.637-2.637Zm0,0" />
    </g>
  </g>
</svg>
