<svg xmlns="http://www.w3.org/2000/svg" xmlns:xlink="http://www.w3.org/1999/xlink" width="30" height="30" viewBox="0 0 30 30">
  <defs>
    <clipPath id="clip-path9">
      <rect id="Rectangle_2078" data-name="Rectangle 2078" width="30" height="30" transform="translate(1878 405)" fill="#fff" stroke="#707070" stroke-width="1"/>
    </clipPath>
  </defs>
  <g id="salary" transform="translate(-1878 -405)" clip-path="url(#clip-path9)">
    <g id="payment" transform="translate(1878 405)">
      <g id="Group_4907" data-name="Group 4907">
        <g id="Group_4906" data-name="Group 4906">
          <path id="Path_12378" data-name="Path 12378" d="M25.179,17.037V7.365H4.821v9.672L8.213,19.15H21.787Zm-17.143.507a.535.535,0,0,1-.536-.536,1.073,1.073,0,0,0-1.071-1.071.535.535,0,0,1-.536-.536V11.115a.535.535,0,0,1,.536-.536A1.073,1.073,0,0,0,7.5,9.508a.535.535,0,0,1,.536-.536H21.964a.535.535,0,0,1,.536.536,1.073,1.073,0,0,0,1.071,1.071.535.535,0,0,1,.536.536V15.4a.535.535,0,0,1-.536.536A1.073,1.073,0,0,0,22.5,17.008a.535.535,0,0,1-.536.536Z" />
          <path id="Path_12379" data-name="Path 12379" d="M20.068,20.222H17.063l1.429.983Z" />
          <path id="Path_12380" data-name="Path 12380" d="M26.25,16.369l3.309-2.062L26.25,12.023Z" />
          <circle id="Ellipse_126" data-name="Ellipse 126" cx="1.071" cy="1.071" r="1.071" transform="translate(13.929 12.186)" />
          <path id="Path_12381" data-name="Path 12381" d="M24.486,3.772a.535.535,0,0,1,.157.379V6.293h.536A1.073,1.073,0,0,1,26.25,7.365v3.356l1.607,1.109V4.15a.535.535,0,0,1,.536-.536h.95L26.25.135l-3.093,3.48h.95A.535.535,0,0,1,24.486,3.772Z" />
          <path id="Path_12382" data-name="Path 12382" d="M12.936,20.222h-3l1.576.983Z" />
          <path id="Path_12383" data-name="Path 12383" d="M23.036,14.933v-3.35A2.15,2.15,0,0,1,21.5,10.043H8.5a2.15,2.15,0,0,1-1.539,1.539v3.35A2.15,2.15,0,0,1,8.5,16.472H21.5A2.15,2.15,0,0,1,23.036,14.933ZM11.095,13.638a.623.623,0,0,1-.177.112.5.5,0,0,1-.407,0,.615.615,0,0,1-.177-.112.8.8,0,0,1-.118-.177.529.529,0,0,1-.037-.2.446.446,0,0,1,.043-.2.614.614,0,0,1,.113-.177.561.561,0,0,1,.761,0,.614.614,0,0,1,.112.177A.53.53,0,0,1,11.095,13.638ZM15,15.4a2.143,2.143,0,1,1,2.143-2.143A2.143,2.143,0,0,1,15,15.4Zm4.666-1.762a.622.622,0,0,1-.177.112.5.5,0,0,1-.407,0,.615.615,0,0,1-.177-.112.8.8,0,0,1-.118-.177.529.529,0,0,1-.037-.2.446.446,0,0,1,.043-.2.614.614,0,0,1,.113-.177.561.561,0,0,1,.761,0,.614.614,0,0,1,.112.177A.53.53,0,0,1,19.666,13.638Z" />
          <path id="Path_12384" data-name="Path 12384" d="M0,15.294V29.114l10.544-7.247Z" />
          <path id="Path_12385" data-name="Path 12385" d="M15.01,20.222h-.02a.55.55,0,0,0-.3.094L.8,29.865H29.2l-13.894-9.55A.54.54,0,0,0,15.01,20.222Z" />
          <path id="Path_12386" data-name="Path 12386" d="M13.236,3.772a.535.535,0,0,1,.157.379V6.293h3.214V4.15a.535.535,0,0,1,.536-.536h.95L15,.135l-3.093,3.48h.95A.535.535,0,0,1,13.236,3.772Z" />
          <path id="Path_12387" data-name="Path 12387" d="M19.456,21.867,30,29.114V15.294Z" />
          <path id="Path_12388" data-name="Path 12388" d="M3.75,12.023.441,14.307,3.75,16.369Z" />
          <path id="Path_12389" data-name="Path 12389" d="M1.986,3.772a.535.535,0,0,1,.157.379V11.83L3.75,10.721V7.365A1.073,1.073,0,0,1,4.821,6.293h.536V4.15a.535.535,0,0,1,.536-.536h.95L3.75.135.657,3.615h.95A.535.535,0,0,1,1.986,3.772Z" />
        </g>
      </g>
    </g>
  </g>
</svg>
