<svg xmlns="http://www.w3.org/2000/svg" xmlns:xlink="http://www.w3.org/1999/xlink" width="30" height="30" viewBox="0 0 30 30">
  <defs>
    <clipPath id="clip-path10">
      <rect id="Rectangle_2085" data-name="Rectangle 2085" width="30" height="30" transform="translate(1878 850)" fill="#fff" stroke="#707070" stroke-width="1"/>
    </clipPath>
  </defs>
  <g id="security" transform="translate(-1878 -850)" clip-path="url(#clip-path10)">
    <g id="Cyber_security" data-name="Cyber security" transform="translate(1875.857 847.857)">
      <path id="Path_12408" data-name="Path 12408" d="M13.393,10.861q.259-.186.536-.348V5.893a3.214,3.214,0,1,1,6.429,0v4.62q.277.161.536.348V5.893a3.75,3.75,0,0,0-7.5,0Z" />
      <path id="Path_12409" data-name="Path 12409" d="M14.464,27.857h5.357V30H14.464Z" />
      <path id="Path_12410" data-name="Path 12410" d="M9.643,32.143h15a.536.536,0,0,0,0-1.071h-15a.536.536,0,1,0,0,1.071Z" />
      <path id="Path_12411" data-name="Path 12411" d="M15,6.429h4.286V7.5H15Z" />
      <path id="Path_12412" data-name="Path 12412" d="M32.143,8.036a1.607,1.607,0,0,0-1.607-1.607H21.964V7.5h8.571a.536.536,0,0,1,.536.536V24.107a.536.536,0,0,1-.536.536H3.75a.536.536,0,0,1-.536-.536V8.036A.536.536,0,0,1,3.75,7.5h8.571V6.429H3.75A1.607,1.607,0,0,0,2.143,8.036V25.179A1.607,1.607,0,0,0,3.75,26.786H30.536a1.607,1.607,0,0,0,1.607-1.607ZM17.679,26.25H16.607a.536.536,0,0,1,0-1.071h1.071a.536.536,0,0,1,0,1.071Z" />
      <path id="Path_12413" data-name="Path 12413" d="M11.786,16.071a5.357,5.357,0,1,0,5.357-5.357A5.357,5.357,0,0,0,11.786,16.071Zm5.357-3.214a1.6,1.6,0,0,1,.536,3.116V18.75a.536.536,0,0,1-1.071,0V15.973a1.6,1.6,0,0,1,.536-3.116Z" />
      <path id="Path_12414" data-name="Path 12414" d="M17.143,22.5a6.418,6.418,0,0,1-4.821-10.667V8.571H4.286v15H30v-15H21.964v3.262A6.418,6.418,0,0,1,17.143,22.5Z" />
      <circle id="Ellipse_127" data-name="Ellipse 127" cx="0.536" cy="0.536" r="0.536" transform="translate(16.607 13.929)" />
      <path id="Path_12415" data-name="Path 12415" d="M15,10.018a6.31,6.31,0,0,1,4.286,0V8.571H15Z" />
    </g>
  </g>
</svg>
