<svg xmlns="http://www.w3.org/2000/svg" xmlns:xlink="http://www.w3.org/1999/xlink" width="30" height="30" viewBox="0 0 30 30">
  <defs>
    <clipPath id="clip-path2">
      <rect id="Rectangle_2113" data-name="Rectangle 2113" width="30" height="30" transform="translate(1870 691)" fill="#fff" stroke="#707070" stroke-width="1"/>
    </clipPath>
  </defs>
  <g id="bourse" transform="translate(-1870 -691)" clip-path="url(#clip-path2)">
    <g id="line-chart" transform="translate(1870 691)">
      <g id="Group_4996" data-name="Group 4996">
        <path id="Path_12465" data-name="Path 12465" d="M2.034,22.334V27.2a.543.543,0,0,0,.542.542h3.76a.543.543,0,0,0,.542-.542V18.643l-2.73,2.73A3.312,3.312,0,0,1,2.034,22.334Z" />
        <path id="Path_12466" data-name="Path 12466" d="M8.752,18.581V27.2a.543.543,0,0,0,.542.542h3.76A.543.543,0,0,0,13.6,27.2V22.125a3.277,3.277,0,0,1-2.262-.961Z" />
        <path id="Path_12467" data-name="Path 12467" d="M15.47,21.589V27.2a.543.543,0,0,0,.542.542h3.76a.543.543,0,0,0,.542-.542V16.849l-4.308,4.308A3.227,3.227,0,0,1,15.47,21.589Z" />
        <path id="Path_12468" data-name="Path 12468" d="M26.669,10.488l-4.481,4.481V27.2a.543.543,0,0,0,.542.542h3.76a.543.543,0,0,0,.542-.542V10.827c-.123-.1-.216-.2-.284-.259Z" />
        <path id="Path_12469" data-name="Path 12469" d="M29.745,2.55a1.048,1.048,0,0,0-.8-.29h-.1c-1.75.08-3.495.166-5.245.247a1.132,1.132,0,0,0-.807.277.919.919,0,0,0-.191.284.907.907,0,0,0,.277,1.1l.438.444c.3.308.61.616.918.918L13.664,16.109,8.912,11.357a1.51,1.51,0,0,0-2.139,0L.444,17.681a1.51,1.51,0,0,0,0,2.139l.284.284a1.51,1.51,0,0,0,2.139,0L7.84,15.129l4.752,4.752a1.518,1.518,0,0,0,2.145,0L26.669,7.949l1.35,1.344a1.022,1.022,0,0,0,.721.382.892.892,0,0,0,.431-.117,1.174,1.174,0,0,0,.259-.191,1.253,1.253,0,0,0,.327-.869c.049-1.134.1-2.268.16-3.408L30,3.382A1.061,1.061,0,0,0,29.745,2.55Z" />
      </g>
    </g>
  </g>
</svg>
