<svg xmlns="http://www.w3.org/2000/svg" width="22.631" height="23.296" viewBox="0 0 22.631 23.296">
  <g id="استخراج" transform="translate(-112.951 -232.851)">
    <path id="Union_55" data-name="Union 55" d="M11674.68-7871.9a1.682,1.682,0,0,1-1.679-1.679v-19.836a1.683,1.683,0,0,1,1.679-1.682h11.529a1.688,1.688,0,0,1,1.188.493l3.5,3.5a1.7,1.7,0,0,1,.493,1.192v3.326a5.626,5.626,0,0,0-.678-.147v-3.179a1.069,1.069,0,0,0-.023-.217h-3.1a1.172,1.172,0,0,1-1.169-1.171v-3.093a.993.993,0,0,0-.217-.024h-11.529a1,1,0,0,0-1,1v19.836a1,1,0,0,0,1,1h7.884c1.43,0,2.09-.015,2.372-.023.085,0,.138,0,.173,0a.118.118,0,0,1,.053.006s0,.006-.006.012l-.009.009h4.564a1,1,0,0,0,1-1v-.4a6.018,6.018,0,0,0,.678-.147v.546a1.683,1.683,0,0,1-1.682,1.679Zm12.425-19.4a.491.491,0,0,0,.49.49h2.639l-3.129-3.126Zm-3.105,11.069a5.769,5.769,0,0,1,5.768-5.768,5.766,5.766,0,0,1,5.765,5.768,5.767,5.767,0,0,1-5.765,5.765A5.766,5.766,0,0,1,11684-7880.233Zm.722,0a5.042,5.042,0,0,0,5.046,5.042,5.044,5.044,0,0,0,5.045-5.042,5.045,5.045,0,0,0-5.045-5.045A5.043,5.043,0,0,0,11684.721-7880.233Zm-8.8,5.072a.422.422,0,0,1-.42-.422.423.423,0,0,1,.42-.423h3.634a.423.423,0,0,1,.423.423.422.422,0,0,1-.423.422Zm13.846-2.624a.365.365,0,0,1-.317-.094l-2.037-2.04a.353.353,0,0,1,0-.508.358.358,0,0,1,.508,0l1.485,1.485v-3.816a.36.36,0,0,1,.361-.361.362.362,0,0,1,.36.361v3.816l1.485-1.485a.362.362,0,0,1,.511,0,.362.362,0,0,1,0,.508l-2.04,2.04a.348.348,0,0,1-.246.1A.569.569,0,0,1,11689.767-7877.786Zm-13.937-2.459a.386.386,0,0,1-.329-.423.386.386,0,0,1,.329-.422h5.7a.386.386,0,0,1,.329.422.386.386,0,0,1-.329.423Zm.018-2.413a.387.387,0,0,1-.347-.42.388.388,0,0,1,.347-.423h6a.39.39,0,0,1,.346.423.389.389,0,0,1-.346.42Zm.105-2.128a.437.437,0,0,1-.452-.422.438.438,0,0,1,.452-.423h7.816a.442.442,0,0,1,.455.423.441.441,0,0,1-.455.422Zm.455-3.625a.908.908,0,0,1-.907-.907v-1.614a.906.906,0,0,1,.907-.907h8.362a.908.908,0,0,1,.907.907v1.614a.91.91,0,0,1-.907.907Zm-.064-2.521v1.614a.065.065,0,0,0,.064.064h8.362a.065.065,0,0,0,.064-.064v-1.614a.065.065,0,0,0-.064-.064h-8.362A.065.065,0,0,0,11676.344-7890.932Z" transform="translate(-11560 8128)" fill="#324458" stroke="#324458" stroke-width="0.1"/>
  </g>
</svg>
