<svg xmlns="http://www.w3.org/2000/svg" width="18.394" height="23.197" viewBox="0 0 18.394 23.197">
  <g id="مشمولین" transform="translate(-293.908 -374.367)">
    <g id="Group_13138" data-name="Group 13138" transform="translate(293.908 374.367)">
      <g id="Group_13078" data-name="Group 13078" transform="translate(0 0)">
        <g id="_3135788" data-name="3135788" transform="translate(0 0)">
          <g id="Group_13056" data-name="Group 13056">
            <path id="Subtraction_7" data-name="Subtraction 7" d="M17.9,4,14.4.492A1.681,1.681,0,0,0,13.209,0H1.681A1.683,1.683,0,0,0,0,1.681V20.667a.34.34,0,0,0,.68,0V1.681a1,1,0,0,1,1-1H13.209A1,1,0,0,1,13.425.7V3.8A1.173,1.173,0,0,0,14.6,4.969H17.69a1,1,0,0,1,.024.216V21.516a1,1,0,0,1-1,1H12.147c.037-.055.179,0-2.584,0H1.681a1,1,0,0,1-1-1V20.427a.34.34,0,1,0-.68,0v1.089A1.683,1.683,0,0,0,1.681,23.2H16.712a1.683,1.683,0,0,0,1.681-1.681V5.184A1.684,1.684,0,0,0,17.9,4Zm-3.8-.2V1.16l3.129,3.129H14.6A.492.492,0,0,1,14.1,3.8Z" fill="#324458"/>
          </g>
        </g>
      </g>
      <path id="Path_19399" data-name="Path 19399" d="M322.53,239.922h-5.7a.434.434,0,0,0,0,.843h5.7a.434.434,0,0,0,0-.843Z" transform="translate(-307.004 -229.913)" fill="#324458"/>
      <path id="Path_19400" data-name="Path 19400" d="M322.53,239.922h-5.7a.434.434,0,0,0,0,.843h5.7a.434.434,0,0,0,0-.843Z" transform="translate(-307.004 -221.913)" fill="#324458"/>
      <path id="Path_19401" data-name="Path 19401" d="M323.2,285.557a.39.39,0,0,0-.348-.422h-6a.429.429,0,0,0,0,.843h6A.39.39,0,0,0,323.2,285.557Z" transform="translate(-307.004 -277.536)" fill="#324458"/>
      <path id="Path_19402" data-name="Path 19402" d="M323.2,285.557a.39.39,0,0,0-.348-.422h-6a.429.429,0,0,0,0,.843h6A.39.39,0,0,0,323.2,285.557Z" transform="translate(-307.004 -269.536)" fill="#324458"/>
    </g>
    <g id="_3050400" data-name="3050400" transform="translate(296.294 376.718)">
      <path id="Path_19335" data-name="Path 19335" d="M15.278,10.067a.325.325,0,0,1,.459.459L14.56,11.7a.325.325,0,0,1-.459,0l-.751-.751a.325.325,0,1,1,.461-.459l.52.52Zm0,8.469a.325.325,0,1,1,.459.459L14.56,20.173a.325.325,0,0,1-.459,0l-.751-.751a.325.325,0,0,1,.461-.459l.52.52Zm-3.511-1.355a.6.6,0,0,1,.6-.6h4.347a.6.6,0,0,1,.6.6v4.347a.606.606,0,0,1-.6.6H12.37a.607.607,0,0,1-.6-.6Zm4.9.047H12.417v4.254h4.254Zm-4.9-8.516a.6.6,0,0,1,.6-.6h4.347a.6.6,0,0,1,.6.6v4.347a.605.605,0,0,1-.6.6H12.37a.605.605,0,0,1-.6-.6Zm4.9.047H12.417v4.254h4.254Z" transform="translate(-11.767 -3.638)" fill="#324458"/>
    </g>
    <g id="Group_13209" data-name="Group 13209" transform="translate(293.908 374.367)">
      <g id="Group_13078-2" data-name="Group 13078" transform="translate(0 0)">
        <g id="_3135788-2" data-name="3135788" transform="translate(0 0)">
          <g id="Group_13056-2" data-name="Group 13056">
            <path id="Subtraction_7-2" data-name="Subtraction 7" d="M17.9,4,14.4.492A1.681,1.681,0,0,0,13.209,0H1.681A1.683,1.683,0,0,0,0,1.681V20.667a.34.34,0,0,0,.68,0V1.681a1,1,0,0,1,1-1H13.209A1,1,0,0,1,13.425.7V3.8A1.173,1.173,0,0,0,14.6,4.969H17.69a1,1,0,0,1,.024.216V21.516a1,1,0,0,1-1,1H12.147c.037-.055.179,0-2.584,0H1.681a1,1,0,0,1-1-1V20.427a.34.34,0,1,0-.68,0v1.089A1.683,1.683,0,0,0,1.681,23.2H16.712a1.683,1.683,0,0,0,1.681-1.681V5.184A1.684,1.684,0,0,0,17.9,4Zm-3.8-.2V1.16l3.129,3.129H14.6A.492.492,0,0,1,14.1,3.8Z" fill="#324458"/>
          </g>
        </g>
      </g>
      <path id="Path_19399-2" data-name="Path 19399" d="M322.53,239.922h-5.7a.434.434,0,0,0,0,.843h5.7a.434.434,0,0,0,0-.843Z" transform="translate(-307.004 -229.913)" fill="#324458"/>
      <path id="Path_19400-2" data-name="Path 19400" d="M322.53,239.922h-5.7a.434.434,0,0,0,0,.843h5.7a.434.434,0,0,0,0-.843Z" transform="translate(-307.004 -221.913)" fill="#324458"/>
      <path id="Path_19401-2" data-name="Path 19401" d="M323.2,285.557a.39.39,0,0,0-.348-.422h-6a.429.429,0,0,0,0,.843h6A.39.39,0,0,0,323.2,285.557Z" transform="translate(-307.004 -277.536)" fill="#324458"/>
      <path id="Path_19402-2" data-name="Path 19402" d="M323.2,285.557a.39.39,0,0,0-.348-.422h-6a.429.429,0,0,0,0,.843h6A.39.39,0,0,0,323.2,285.557Z" transform="translate(-307.004 -269.536)" fill="#324458"/>
    </g>
  </g>
</svg>
