<svg xmlns="http://www.w3.org/2000/svg" width="21.601" height="22.2" viewBox="0 0 21.601 22.2">
  <g id="تائید" transform="translate(-4.574 0.1)">
    <path id="Path_19403" data-name="Path 19403" d="M61,8.107,58.2,5.814V1.559A1.561,1.561,0,0,0,56.639,0H52.533a.509.509,0,1,0,0,1.019h4.106a.542.542,0,0,1,.541.541V10.6L50.5,15.679,43.813,10.6V6.057h0v-4.5a.542.542,0,0,1,.541-.541h4.106a.509.509,0,0,0,0-1.019H44.353a1.561,1.561,0,0,0-1.559,1.559V5.814L39.988,8.107A.509.509,0,0,0,39.8,8.5c.079,5.637-.055,6.693,0,11.939A1.561,1.561,0,0,0,41.361,22H59.631a1.561,1.561,0,0,0,1.559-1.559V8.5A.509.509,0,0,0,61,8.107Zm-.832,12.1-6.026-6.026L60.172,9.6ZM58.2,7.129l1.708,1.4L58.2,9.824Zm-7.7,9.7a.509.509,0,0,0,.308-.1l2.524-1.919L59.5,20.981H41.488l6.176-6.176,2.524,1.919a.508.508,0,0,0,.308.1ZM40.82,9.6l6.026,4.581L40.82,20.209Zm1.974.221-1.708-1.3,1.708-1.4Zm0,0" transform="translate(-35.116)"   stroke-width="0.2"/>
    <path id="Path_19405" data-name="Path 19405" d="M292.509,1.019a.509.509,0,0,0,.509-.509.509.509,0,1,0-.869.36A.513.513,0,0,0,292.509,1.019Zm0,0" transform="translate(-277.129 0)"   stroke-width="0.2"/>
    <path id="Path_19406" data-name="Path 19406" d="M220.867,67.991A4.132,4.132,0,1,0,225,63.859,4.137,4.137,0,0,0,220.867,67.991Zm7.245,0A3.113,3.113,0,1,1,225,64.878,3.117,3.117,0,0,1,228.112,67.991Zm0,0" transform="translate(-209.619 -60.607)"   stroke-width="0.2"/>
    <path id="Path_19407" data-name="Path 19407" d="M270.221,120.332a.509.509,0,1,0-.72.72l.9.9a.509.509,0,0,0,.72,0l1.578-1.578a.509.509,0,0,0-.72-.72l-1.217,1.217Zm0,0" transform="translate(-255.634 -113.418)"   stroke-width="0.2"/>
  </g>
</svg>
